SplineFontDB: 1.0
FontName: THKrub-Bold
FullName: TH Krub Bold
FamilyName: TH Krub
Weight: Bold
Copyright: Copyright (c) 2006 by Department of Intellectual Property (DIP), Ministry of Commerce and Software Industry Promotion Agency (Public Organization) (SIPA). All rights reserved.
Version: 1.1
ItalicAngle: 0
UnderlinePosition: -58
UnderlineWidth: 35
Ascent: 800
Descent: 200
Order2: 1
XUID: [1021 375 425136265 8769607]
FSType: 0
OS2Version: 3
OS2_WeightWidthSlopeOnly: 0
OS2_UseTypoMetrics: 1
CreationTime: 1154211420
ModificationTime: 1174406538
PfmFamily: 17
TTFWeight: 700
TTFWidth: 5
LineGap: 21
VLineGap: 0
Panose: 2 0 5 6 4 0 0 2 0 4
OS2TypoAscent: 0
OS2TypoAOffset: 1
OS2TypoDescent: 0
OS2TypoDOffset: 1
OS2TypoLinegap: 0
OS2WinAscent: -78
OS2WinAOffset: 1
OS2WinDescent: -208
OS2WinDOffset: 1
HheadAscent: 0
HheadAOffset: 1
HheadDescent: 170
HheadDOffset: 1
OS2SubXSize: 700
OS2SubYSize: 650
OS2SubXOff: 0
OS2SubYOff: 140
OS2SupXSize: 700
OS2SupYSize: 650
OS2SupXOff: 0
OS2SupYOff: 477
OS2StrikeYSize: 50
OS2StrikeYPos: 250
OS2FamilyClass: 2053
OS2Vendor: 'b513'
ScriptLang: 2
 1 latn 1 dflt 
 0 
ChainSub: coverage 0 0 'liga' 0 0 0 1
 1 1 0
  Coverage: 7 uni0E47
  BCoverage: 12 uni0E2C.alt1
 1
  SeqLookup: 0 'L030'
EndFPST
ChainSub: coverage 0 0 'liga' 0 0 0 1
 1 0 1
  Coverage: 7 uni0E2C
  FCoverage: 39 uni0E34 uni0E35 uni0E36 uni0E37 uni0E47
 1
  SeqLookup: 0 'L030'
EndFPST
ChainSub: coverage 0 0 'liga' 0 0 0 1
 1 0 1
  Coverage: 15 uni0E0E uni0E0F
  FCoverage: 38 uni0E38.alt1 uni0E39.alt1 uni0E3A.alt1
 1
  SeqLookup: 0 'L030'
EndFPST
ChainSub: coverage 0 0 'liga' 0 0 0 1
 1 1 0
  Coverage: 5 a b c
  BCoverage: 23 uni0E1B uni0E1D uni0E1F
 1
  SeqLookup: 0 'L030'
EndFPST
ChainSub: coverage 0 0 'liga' 0 0 0 1
 1 0 1
  Coverage: 5 a b c
  FCoverage: 64 uni0E48.alt1 uni0E49.alt1 uni0E4A.alt1 uni0E4B.alt1 uni0E4C.alt1
 1
  SeqLookup: 0 'L030'
EndFPST
ChainSub: coverage 0 0 'liga' 0 0 0 1
 1 1 0
  Coverage: 64 uni0E48.alt2 uni0E49.alt2 uni0E4A.alt2 uni0E4B.alt2 uni0E4C.alt2

StartChar: exclam
Encoding: 33 33 2
Width: 191
Flags: W
Fore
139 486 m 1,0,-1
 125 153 l 1,1,-1
 66 153 l 1,2,-1
 52 486 l 1,3,-1
 139 486 l 1,0,-1
52 0 m 1,4,-1
 52 79 l 1,5,-1
 139 79 l 1,6,-1
 139 0 l 1,7,-1
 52 0 l 1,4,-1
EndSplineSet
EndChar
StartChar: quotedbl
Encoding: 34 34 3
Width: 225
Flags: W
Fore
35 512 m 1,0,-1
 90 512 l 1,1,-1
 90 351 l 1,2,-1
 35 351 l 1,3,-1
 35 512 l 1,0,-1
135 512 m 1,4,-1
 190 512 l 1,5,-1
 190 351 l 1,6,-1
 135 351 l 1,7,-1
 135 512 l 1,4,-1
EndSplineSet
EndChar
StartChar: numbersign
Encoding: 35 35 4
Width: 360
Flags: W
Fore
326 143 m 1,0,-1
 262 143 l 1,1,-1
 240 0 l 1,2,-1
 188 0 l 1,3,-1
 210 143 l 1,4,-1
 135 143 l 1,5,-1
 113 0 l 1,6,-1
 61 0 l 1,7,-1
 83 143 l 1,8,-1
 17 143 l 1,9,-1
 17 184 l 1,10,-1
 87 184 l 1,11,-1
 102 275 l 1,12,-1
 35 275 l 1,13,-1
 35 316 l 1,14,-1
 105 316 l 1,15,-1
 127 468 l 1,16,-1
 180 468 l 1,17,-1
 158 316 l 1,18,-1
 233 316 l 1,19,-1
 254 468 l 1,20,-1
 307 468 l 1,21,-1
 286 316 l 1,22,-1
 344 316 l 1,23,-1
 344 275 l 1,24,-1
 280 275 l 1,25,-1
 266 184 l 1,26,-1
 326 184 l 1,27,-1
 326 143 l 1,0,-1
153 275 m 1,28,-1
 139 184 l 1,29,-1
 214 184 l 1,30,-1
 229 275 l 1,31,-1
 153 275 l 1,28,-1
EndSplineSet
EndChar
StartChar: dollar
Encoding: 36 36 5
Width: 423
Flags: W
Fore
194 562 m 1,0,-1
 230 562 l 1,1,-1
 230 489 l 1,2,3
 256 488 256 488 279 479.5 c 128,-1,4
 302 471 302 471 321 458 c 128,-1,5
 340 445 340 445 353.5 429.5 c 128,-1,6
 367 414 367 414 374 399 c 1,7,8
 373 399 373 399 367 393.5 c 128,-1,9
 361 388 361 388 353.5 381.5 c 128,-1,10
 346 375 346 375 339.5 369.5 c 128,-1,11
 333 364 333 364 331 363 c 1,12,13
 313 396 313 396 290.5 416 c 128,-1,14
 268 436 268 436 230 441 c 1,15,-1
 230 272 l 1,16,17
 259 264 259 264 288 253.5 c 128,-1,18
 317 243 317 243 340.5 226 c 128,-1,19
 364 209 364 209 379 184 c 128,-1,20
 394 159 394 159 394 123 c 0,21,22
 394 88 394 88 380.5 64.5 c 128,-1,23
 367 41 367 41 344 27 c 128,-1,24
 321 13 321 13 291.5 6.5 c 128,-1,25
 262 0 262 0 230 0 c 1,26,-1
 230 -90 l 1,27,-1
 194 -90 l 1,28,-1
 194 0 l 1,29,30
 138 2 138 2 92 31 c 128,-1,31
 46 60 46 60 22 111 c 1,32,-1
 68 146 l 1,33,34
 77 126 77 126 89 107.5 c 128,-1,35
 101 89 101 89 116.5 75.5 c 128,-1,36
 132 62 132 62 151 54 c 128,-1,37
 170 46 170 46 194 46 c 1,38,-1
 194 227 l 1,39,40
 167 235 167 235 139.5 245 c 128,-1,41
 112 255 112 255 90.5 270 c 128,-1,42
 69 285 69 285 55.5 308 c 128,-1,43
 42 331 42 331 42 364 c 0,44,45
 42 399 42 399 53.5 422.5 c 128,-1,46
 65 446 65 446 85.5 460.5 c 128,-1,47
 106 475 106 475 134 481.5 c 128,-1,48
 162 488 162 488 194 489 c 1,49,-1
 194 562 l 1,0,-1
194 442 m 1,50,51
 149 442 149 442 126 424 c 128,-1,52
 103 406 103 406 103 367 c 0,53,54
 103 346 103 346 109.5 332 c 128,-1,55
 116 318 116 318 128 309 c 128,-1,56
 140 300 140 300 156.5 294 c 128,-1,57
 173 288 173 288 194 283 c 1,58,-1
 194 442 l 1,50,51
230 46 m 1,59,60
 278 47 278 47 305.5 66.5 c 128,-1,61
 333 86 333 86 333 125 c 0,62,63
 333 150 333 150 324.5 165 c 128,-1,64
 316 180 316 180 302 189.5 c 128,-1,65
 288 199 288 199 269.5 205 c 128,-1,66
 251 211 251 211 230 218 c 1,67,-1
 230 46 l 1,59,60
EndSplineSet
EndChar
StartChar: percent
Encoding: 37 37 6
Width: 597
Flags: W
Fore
164 486 m 0,0,1
 187 486 187 486 207.5 477 c 128,-1,2
 228 468 228 468 243 453 c 128,-1,3
 258 438 258 438 266.5 418 c 128,-1,4
 275 398 275 398 275 375 c 256,5,6
 275 352 275 352 266.5 332 c 128,-1,7
 258 312 258 312 243 297 c 128,-1,8
 228 282 228 282 207.5 273.5 c 128,-1,9
 187 265 187 265 164 265 c 0,10,11
 142 265 142 265 122 273.5 c 128,-1,12
 102 282 102 282 87 297 c 128,-1,13
 72 312 72 312 63.5 332 c 128,-1,14
 55 352 55 352 55 375 c 256,15,16
 55 398 55 398 63.5 418 c 128,-1,17
 72 438 72 438 87 453 c 128,-1,18
 102 468 102 468 122 477 c 128,-1,19
 142 486 142 486 164 486 c 0,0,1
164 438 m 0,20,21
 138 438 138 438 119.5 420 c 128,-1,22
 101 402 101 402 102 375 c 0,23,24
 101 349 101 349 119.5 330.5 c 128,-1,25
 138 312 138 312 164 312 c 0,26,27
 191 312 191 312 209.5 330.5 c 128,-1,28
 228 349 228 349 228 375 c 0,29,30
 228 402 228 402 209.5 420 c 128,-1,31
 191 438 191 438 164 438 c 0,20,21
431 220 m 0,32,33
 454 220 454 220 474 211.5 c 128,-1,34
 494 203 494 203 509 188 c 128,-1,35
 524 173 524 173 533 153 c 128,-1,36
 542 133 542 133 542 110 c 0,37,38
 542 88 542 88 533 68 c 128,-1,39
 524 48 524 48 509 33 c 128,-1,40
 494 18 494 18 474 9 c 128,-1,41
 454 0 454 0 431 0 c 0,42,43
 409 0 409 0 389 9 c 128,-1,44
 369 18 369 18 354 33 c 128,-1,45
 339 48 339 48 330 68 c 128,-1,46
 321 88 321 88 321 110 c 0,47,48
 321 133 321 133 330 153 c 128,-1,49
 339 173 339 173 354 188 c 128,-1,50
 369 203 369 203 389 211.5 c 128,-1,51
 409 220 409 220 431 220 c 0,32,33
431 174 m 0,52,53
 405 174 405 174 386.5 155 c 128,-1,54
 368 136 368 136 369 110 c 0,55,56
 368 84 368 84 386.5 65.5 c 128,-1,57
 405 47 405 47 431 47 c 0,58,59
 458 47 458 47 477 65.5 c 128,-1,60
 496 84 496 84 495 110 c 0,61,62
 496 136 496 136 477 155 c 128,-1,63
 458 174 458 174 431 174 c 0,52,53
190 -7 m 1,64,-1
 139 -7 l 1,65,-1
 407 493 l 1,66,-1
 459 493 l 1,67,-1
 190 -7 l 1,64,-1
EndSplineSet
EndChar
StartChar: ampersand
Encoding: 38 38 7
Width: 477
Flags: W
Fore
283 84 m 1,0,1
 271 96 271 96 255.5 114 c 128,-1,2
 240 132 240 132 225 152.5 c 128,-1,3
 210 173 210 173 196 193.5 c 128,-1,4
 182 214 182 214 171 231 c 1,5,6
 131 208 131 208 109.5 183 c 128,-1,7
 88 158 88 158 88 116 c 0,8,9
 88 81 88 81 113.5 62.5 c 128,-1,10
 139 44 139 44 177 44 c 0,11,12
 220 44 220 44 245.5 57.5 c 128,-1,13
 271 71 271 71 283 84 c 1,0,1
188 301 m 1,14,15
 217 319 217 319 230.5 342 c 128,-1,16
 244 365 244 365 244 390 c 0,17,18
 244 398 244 398 242.5 406.5 c 128,-1,19
 241 415 241 415 236 423 c 128,-1,20
 231 431 231 431 222.5 436 c 128,-1,21
 214 441 214 441 200 441 c 0,22,23
 176 441 176 441 166 424.5 c 128,-1,24
 156 408 156 408 156 386 c 0,25,26
 156 363 156 363 165 342 c 128,-1,27
 174 321 174 321 188 301 c 1,14,15
404 220 m 1,28,29
 402 182 402 182 388.5 145.5 c 128,-1,30
 375 109 375 109 353 77 c 1,31,32
 373 63 373 63 392 54.5 c 128,-1,33
 411 46 411 46 437 44 c 1,34,-1
 427 -7 l 1,35,36
 394 -5 394 -5 367.5 9 c 128,-1,37
 341 23 341 23 317 46 c 1,38,39
 290 20 290 20 252 6.5 c 128,-1,40
 214 -7 214 -7 175 -7 c 0,41,42
 147 -7 147 -7 120 1 c 128,-1,43
 93 9 93 9 73 24.5 c 128,-1,44
 53 40 53 40 40.5 64 c 128,-1,45
 28 88 28 88 28 119 c 0,46,47
 28 165 28 165 53.5 202 c 128,-1,48
 79 239 79 239 141 274 c 1,49,50
 124 300 124 300 113.5 330.5 c 128,-1,51
 103 361 103 361 103 391 c 0,52,53
 103 440 103 440 129.5 466.5 c 128,-1,54
 156 493 156 493 202 493 c 0,55,56
 244 493 244 493 271 466.5 c 128,-1,57
 298 440 298 440 298 395 c 0,58,59
 298 346 298 346 276 313.5 c 128,-1,60
 254 281 254 281 217 255 c 1,61,62
 246 215 246 215 267.5 181 c 128,-1,63
 289 147 289 147 320 114 c 1,64,65
 334 134 334 134 343 165 c 128,-1,66
 352 196 352 196 352 228 c 1,67,-1
 404 220 l 1,28,29
EndSplineSet
EndChar
StartChar: quotesingle
Encoding: 39 39 8
Width: 160
Flags: W
Fore
50 512 m 1,0,-1
 110 512 l 1,1,-1
 110 351 l 1,2,-1
 50 351 l 1,3,-1
 50 512 l 1,0,-1
EndSplineSet
EndChar
StartChar: parenleft
Encoding: 40 40 9
Width: 270
Flags: W
Fore
225 593 m 1,0,1
 194 556 194 556 174 514.5 c 128,-1,2
 154 473 154 473 143 430.5 c 128,-1,3
 132 388 132 388 128 345.5 c 128,-1,4
 124 303 124 303 124 264 c 0,5,6
 124 224 124 224 128 181.5 c 128,-1,7
 132 139 132 139 143 96.5 c 128,-1,8
 154 54 154 54 174 12 c 128,-1,9
 194 -30 194 -30 225 -67 c 1,10,-1
 147 -67 l 1,11,12
 119 -30 119 -30 101.5 12 c 128,-1,13
 84 54 84 54 73.5 96.5 c 128,-1,14
 63 139 63 139 59 181.5 c 128,-1,15
 55 224 55 224 55 264 c 0,16,17
 55 303 55 303 59 345.5 c 128,-1,18
 63 388 63 388 73.5 430.5 c 128,-1,19
 84 473 84 473 101.5 514.5 c 128,-1,20
 119 556 119 556 147 593 c 1,21,-1
 225 593 l 1,0,1
EndSplineSet
EndChar
StartChar: parenright
Encoding: 41 41 10
Width: 270
Flags: W
Fore
45 -67 m 1,0,1
 77 -30 77 -30 96.5 12 c 128,-1,2
 116 54 116 54 127.5 96.5 c 128,-1,3
 139 139 139 139 143 181.5 c 128,-1,4
 147 224 147 224 147 264 c 0,5,6
 147 303 147 303 143 345.5 c 128,-1,7
 139 388 139 388 127.5 430.5 c 128,-1,8
 116 473 116 473 96.5 514.5 c 128,-1,9
 77 556 77 556 45 593 c 1,10,-1
 123 593 l 1,11,12
 151 556 151 556 168.5 514.5 c 128,-1,13
 186 473 186 473 196.5 430.5 c 128,-1,14
 207 388 207 388 211 345.5 c 128,-1,15
 215 303 215 303 215 264 c 0,16,17
 215 224 215 224 211 181.5 c 128,-1,18
 207 139 207 139 196.5 96.5 c 128,-1,19
 186 54 186 54 168.5 12 c 128,-1,20
 151 -30 151 -30 123 -67 c 1,21,-1
 45 -67 l 1,0,1
EndSplineSet
EndChar
StartChar: asterisk
Encoding: 42 42 11
Width: 500
Flags: W
Fore
277 590 m 1,0,-1
 393 641 l 1,1,-1
 413 582 l 1,2,-1
 287 548 l 1,3,-1
 371 452 l 1,4,-1
 320 410 l 1,5,-1
 252 520 l 1,6,-1
 182 410 l 1,7,-1
 130 447 l 1,8,-1
 216 548 l 1,9,-1
 87 578 l 1,10,-1
 109 639 l 1,11,-1
 227 590 l 1,12,-1
 217 722 l 1,13,-1
 285 722 l 1,14,-1
 277 590 l 1,0,-1
EndSplineSet
EndChar
StartChar: plus
Encoding: 43 43 12
Width: 510
Flags: W
Fore
223 400 m 1,0,-1
 287 400 l 1,1,-1
 287 237 l 1,2,-1
 460 237 l 1,3,-1
 460 183 l 1,4,-1
 287 183 l 1,5,-1
 287 20 l 1,6,-1
 223 20 l 1,7,-1
 223 183 l 1,8,-1
 50 183 l 1,9,-1
 50 237 l 1,10,-1
 223 237 l 1,11,-1
 223 400 l 1,0,-1
EndSplineSet
EndChar
StartChar: comma
Encoding: 44 44 13
Width: 214
Flags: W
Fore
151 79 m 1,0,-1
 151 0 l 1,1,-1
 101 -116 l 1,2,-1
 62 -116 l 1,3,-1
 96 0 l 1,4,-1
 63 0 l 1,5,-1
 63 79 l 1,6,-1
 151 79 l 1,0,-1
EndSplineSet
EndChar
StartChar: hyphen
Encoding: 45 45 14
Width: 333
Flags: W
Fore
42 203 m 1,0,-1
 42 263 l 1,1,-1
 291 263 l 1,2,-1
 291 203 l 1,3,-1
 42 203 l 1,0,-1
EndSplineSet
EndChar
StartChar: period
Encoding: 46 46 15
Width: 214
Flags: W
Fore
63 0 m 1,0,-1
 63 79 l 1,1,-1
 151 79 l 1,2,-1
 151 0 l 1,3,-1
 63 0 l 1,0,-1
EndSplineSet
EndChar
StartChar: slash
Encoding: 47 47 16
Width: 225
Flags: W
Fore
68 -38 m 1,0,-1
 0 -38 l 1,1,-1
 181 563 l 1,2,-1
 245 563 l 1,3,-1
 68 -38 l 1,0,-1
EndSplineSet
EndChar
StartChar: zero
Encoding: 48 48 17
Width: 425
Flags: W
Fore
213 -5 m 256,0,1
 165 -5 165 -5 131 10.5 c 128,-1,2
 97 26 97 26 75.5 55.5 c 128,-1,3
 54 85 54 85 44.5 127 c 128,-1,4
 35 169 35 169 35 222 c 0,5,6
 35 335 35 335 75.5 396.5 c 128,-1,7
 116 458 116 458 213 458 c 0,8,9
 261 458 261 458 295 442 c 128,-1,10
 329 426 329 426 350 396 c 128,-1,11
 371 366 371 366 380.5 322 c 128,-1,12
 390 278 390 278 390 222 c 0,13,14
 390 169 390 169 380.5 127 c 128,-1,15
 371 85 371 85 349.5 55.5 c 128,-1,16
 328 26 328 26 294.5 10.5 c 128,-1,17
 261 -5 261 -5 213 -5 c 256,0,1
213 44 m 256,18,19
 250 44 250 44 272.5 54.5 c 128,-1,20
 295 65 295 65 307.5 87 c 128,-1,21
 320 109 320 109 324 142.5 c 128,-1,22
 328 176 328 176 328 222 c 0,23,24
 328 272 328 272 324 307.5 c 128,-1,25
 320 343 320 343 307.5 365.5 c 128,-1,26
 295 388 295 388 272.5 398 c 128,-1,27
 250 408 250 408 213 408 c 256,28,29
 176 408 176 408 153.5 398 c 128,-1,30
 131 388 131 388 118.5 365.5 c 128,-1,31
 106 343 106 343 102 307.5 c 128,-1,32
 98 272 98 272 98 222 c 0,33,34
 98 176 98 176 102 142.5 c 128,-1,35
 106 109 106 109 118.5 87 c 128,-1,36
 131 65 131 65 153.5 54.5 c 128,-1,37
 176 44 176 44 213 44 c 256,18,19
EndSplineSet
EndChar
StartChar: one
Encoding: 49 49 18
Width: 323
Flags: W
Fore
45 0 m 1,0,-1
 45 46 l 1,1,-1
 134 46 l 1,2,-1
 134 389 l 1,3,-1
 50 369 l 1,4,-1
 50 413 l 1,5,-1
 155 456 l 1,6,-1
 192 456 l 1,7,-1
 192 46 l 1,8,-1
 278 46 l 1,9,-1
 278 0 l 1,10,-1
 45 0 l 1,0,-1
EndSplineSet
EndChar
StartChar: two
Encoding: 50 50 19
Width: 379
Flags: W
Fore
45 333 m 1,0,1
 56 395 56 395 99 427 c 128,-1,2
 142 459 142 459 200 459 c 0,3,4
 269 459 269 459 304 422.5 c 128,-1,5
 339 386 339 386 339 327 c 0,6,7
 339 272 339 272 304.5 234 c 128,-1,8
 270 196 270 196 206 168 c 0,9,10
 166 151 166 151 143 135.5 c 128,-1,11
 120 120 120 120 109 105.5 c 128,-1,12
 98 91 98 91 95.5 77 c 128,-1,13
 93 63 93 63 93 49 c 1,14,-1
 331 49 l 1,15,-1
 331 0 l 1,16,-1
 40 0 l 1,17,-1
 40 37 l 2,18,19
 40 60 40 60 43 82 c 128,-1,20
 46 104 46 104 59.5 125.5 c 128,-1,21
 73 147 73 147 101 169 c 128,-1,22
 129 191 129 191 179 212 c 0,23,24
 213 226 213 226 232.5 240.5 c 128,-1,25
 252 255 252 255 261.5 269.5 c 128,-1,26
 271 284 271 284 273.5 299 c 128,-1,27
 276 314 276 314 276 330 c 0,28,29
 276 365 276 365 258.5 387.5 c 128,-1,30
 241 410 241 410 196 410 c 0,31,32
 164 410 164 410 137.5 392 c 128,-1,33
 111 374 111 374 100 324 c 1,34,-1
 45 333 l 1,0,1
EndSplineSet
EndChar
StartChar: three
Encoding: 51 51 20
Width: 397
Flags: W
Fore
81 113 m 1,0,1
 109 69 109 69 138.5 56 c 128,-1,2
 168 43 168 43 199 43 c 0,3,4
 249 43 249 43 269 69 c 128,-1,5
 289 95 289 95 289 129 c 0,6,7
 289 179 289 179 262 198 c 128,-1,8
 235 217 235 217 171 217 c 2,9,-1
 129 217 l 1,10,-1
 129 266 l 1,11,-1
 164 266 l 2,12,13
 225 266 225 266 250 284 c 128,-1,14
 275 302 275 302 275 347 c 0,15,16
 275 376 275 376 257 393.5 c 128,-1,17
 239 411 239 411 193 411 c 0,18,19
 168 411 168 411 143.5 398.5 c 128,-1,20
 119 386 119 386 95 356 c 1,21,-1
 55 389 l 1,22,23
 87 427 87 427 123 443 c 128,-1,24
 159 459 159 459 197 459 c 0,25,26
 261 459 261 459 299.5 433.5 c 128,-1,27
 338 408 338 408 338 351 c 0,28,29
 338 305 338 305 319.5 279.5 c 128,-1,30
 301 254 301 254 268 243 c 1,31,32
 283 239 283 239 298 231 c 128,-1,33
 313 223 313 223 325 209.5 c 128,-1,34
 337 196 337 196 344.5 177 c 128,-1,35
 352 158 352 158 352 131 c 0,36,37
 352 66 352 66 318 29.5 c 128,-1,38
 284 -7 284 -7 197 -7 c 0,39,40
 86 -7 86 -7 35 84 c 1,41,-1
 81 113 l 1,0,1
EndSplineSet
EndChar
StartChar: four
Encoding: 52 52 21
Width: 370
Flags: W
Fore
20 137 m 1,0,-1
 219 456 l 1,1,-1
 291 456 l 1,2,-1
 291 139 l 1,3,-1
 360 139 l 1,4,-1
 360 89 l 1,5,-1
 291 89 l 1,6,-1
 291 0 l 1,7,-1
 233 0 l 1,8,-1
 233 89 l 1,9,-1
 20 89 l 1,10,-1
 20 137 l 1,0,-1
84 139 m 1,11,-1
 233 139 l 1,12,-1
 233 390 l 1,13,-1
 228 390 l 1,14,-1
 84 139 l 1,11,-1
EndSplineSet
EndChar
StartChar: five
Encoding: 53 53 22
Width: 413
Flags: W
Fore
61 206 m 1,0,-1
 82 456 l 1,1,-1
 334 456 l 1,2,-1
 334 407 l 1,3,-1
 138 407 l 1,4,-1
 125 273 l 1,5,6
 146 293 146 293 169 300 c 128,-1,7
 192 307 192 307 216 307 c 0,8,9
 249 307 249 307 276.5 298 c 128,-1,10
 304 289 304 289 324.5 270.5 c 128,-1,11
 345 252 345 252 356.5 222.5 c 128,-1,12
 368 193 368 193 368 152 c 0,13,14
 368 108 368 108 355 77.5 c 128,-1,15
 342 47 342 47 318.5 28.5 c 128,-1,16
 295 10 295 10 263 1.5 c 128,-1,17
 231 -7 231 -7 192 -7 c 0,18,19
 171 -7 171 -7 149 -1.5 c 128,-1,20
 127 4 127 4 107.5 14.5 c 128,-1,21
 88 25 88 25 71.5 41.5 c 128,-1,22
 55 58 55 58 45 79 c 1,23,-1
 88 109 l 1,24,25
 107 71 107 71 133.5 57 c 128,-1,26
 160 43 160 43 196 43 c 0,27,28
 258 43 258 43 281.5 70 c 128,-1,29
 305 97 305 97 305 149 c 0,30,31
 305 210 305 210 283 233.5 c 128,-1,32
 261 257 261 257 209 257 c 0,33,34
 180 257 180 257 148.5 243.5 c 128,-1,35
 117 230 117 230 104 201 c 1,36,-1
 61 206 l 1,0,-1
EndSplineSet
EndChar
StartChar: six
Encoding: 54 54 23
Width: 408
Flags: W
Fore
316 378 m 1,0,1
 297 395 297 395 272 403 c 128,-1,2
 247 411 247 411 221 411 c 0,3,4
 187 411 187 411 165 401 c 128,-1,5
 143 391 143 391 130 369 c 128,-1,6
 117 347 117 347 112 312 c 128,-1,7
 107 277 107 277 107 228 c 1,8,9
 130 254 130 254 161.5 268.5 c 128,-1,10
 193 283 193 283 231 283 c 0,11,12
 273 283 273 283 300 271.5 c 128,-1,13
 327 260 327 260 343.5 240 c 128,-1,14
 360 220 360 220 366.5 193 c 128,-1,15
 373 166 373 166 373 134 c 0,16,17
 373 68 373 68 334 30.5 c 128,-1,18
 295 -7 295 -7 219 -7 c 0,19,20
 124 -7 124 -7 84.5 45.5 c 128,-1,21
 45 98 45 98 45 210 c 0,22,23
 45 329 45 329 85.5 394 c 128,-1,24
 126 459 126 459 222 459 c 0,25,26
 252 459 252 459 286 449.5 c 128,-1,27
 320 440 320 440 343 422 c 1,28,-1
 316 378 l 1,0,1
220 234 m 0,29,30
 195 234 195 234 174.5 225 c 128,-1,31
 154 216 154 216 139.5 203.5 c 128,-1,32
 125 191 125 191 117 179 c 128,-1,33
 109 167 109 167 109 161 c 0,34,35
 109 124 109 124 116.5 101 c 128,-1,36
 124 78 124 78 138.5 65 c 128,-1,37
 153 52 153 52 173.5 48 c 128,-1,38
 194 44 194 44 220 44 c 0,39,40
 273 44 273 44 291.5 66 c 128,-1,41
 310 88 310 88 310 141 c 0,42,43
 310 188 310 188 291.5 211 c 128,-1,44
 273 234 273 234 220 234 c 0,29,30
EndSplineSet
EndChar
StartChar: seven
Encoding: 55 55 24
Width: 339
Flags: W
Fore
30 456 m 1,0,-1
 319 456 l 1,1,-1
 319 415 l 1,2,-1
 126 0 l 1,3,-1
 57 0 l 1,4,-1
 251 407 l 1,5,-1
 30 407 l 1,6,-1
 30 456 l 1,0,-1
EndSplineSet
EndChar
StartChar: eight
Encoding: 56 56 25
Width: 423
Flags: W
Fore
361 340 m 0,0,1
 361 310 361 310 338.5 283 c 128,-1,2
 316 256 316 256 274 241 c 1,3,4
 333 215 333 215 355.5 185.5 c 128,-1,5
 378 156 378 156 378 121 c 0,6,7
 378 59 378 59 337.5 26 c 128,-1,8
 297 -7 297 -7 212 -7 c 256,9,10
 127 -7 127 -7 86 26 c 128,-1,11
 45 59 45 59 45 121 c 0,12,13
 45 156 45 156 67.5 185.5 c 128,-1,14
 90 215 90 215 149 241 c 1,15,16
 106 256 106 256 84 283 c 128,-1,17
 62 310 62 310 62 340 c 0,18,19
 62 398 62 398 101 429 c 128,-1,20
 140 460 140 460 212 460 c 256,21,22
 284 460 284 460 322.5 429 c 128,-1,23
 361 398 361 398 361 340 c 0,0,1
212 43 m 0,24,25
 262 43 262 43 288.5 62.5 c 128,-1,26
 315 82 315 82 315 121 c 0,27,28
 315 139 315 139 309 152.5 c 128,-1,29
 303 166 303 166 290.5 176.5 c 128,-1,30
 278 187 278 187 258.5 197 c 128,-1,31
 239 207 239 207 212 218 c 1,32,33
 184 207 184 207 164 197 c 128,-1,34
 144 187 144 187 131.5 176.5 c 128,-1,35
 119 166 119 166 113.5 152.5 c 128,-1,36
 108 139 108 139 108 121 c 0,37,38
 108 43 108 43 212 43 c 0,24,25
212 263 m 1,39,40
 254 274 254 274 276.5 293.5 c 128,-1,41
 299 313 299 313 299 342 c 0,42,43
 299 412 299 412 212 412 c 0,44,45
 124 412 124 412 124 342 c 0,46,47
 124 286 124 286 212 263 c 1,39,40
EndSplineSet
EndChar
StartChar: nine
Encoding: 57 57 26
Width: 407
Flags: W
Fore
83 76 m 1,0,1
 101 59 101 59 130.5 51 c 128,-1,2
 160 43 160 43 186 43 c 0,3,4
 220 43 220 43 242 53 c 128,-1,5
 264 63 264 63 277 85 c 128,-1,6
 290 107 290 107 295 142 c 128,-1,7
 300 177 300 177 300 226 c 1,8,9
 277 200 277 200 246 185 c 128,-1,10
 215 170 215 170 177 170 c 0,11,12
 135 170 135 170 108 181.5 c 128,-1,13
 81 193 81 193 64.5 213 c 128,-1,14
 48 233 48 233 41.5 260.5 c 128,-1,15
 35 288 35 288 35 319 c 0,16,17
 35 385 35 385 74 422.5 c 128,-1,18
 113 460 113 460 188 460 c 0,19,20
 283 460 283 460 322.5 408 c 128,-1,21
 362 356 362 356 362 244 c 0,22,23
 362 184 362 184 355 137.5 c 128,-1,24
 348 91 348 91 328.5 59 c 128,-1,25
 309 27 309 27 275 10.5 c 128,-1,26
 241 -6 241 -6 186 -6 c 0,27,28
 171 -6 171 -6 153 -3.5 c 128,-1,29
 135 -1 135 -1 117.5 4 c 128,-1,30
 100 9 100 9 83.5 16 c 128,-1,31
 67 23 67 23 55 32 c 1,32,-1
 83 76 l 1,0,1
187 220 m 0,33,34
 213 220 213 220 233.5 229 c 128,-1,35
 254 238 254 238 268.5 250 c 128,-1,36
 283 262 283 262 291 274 c 128,-1,37
 299 286 299 286 299 292 c 0,38,39
 299 330 299 330 291 353 c 128,-1,40
 283 376 283 376 268.5 388.5 c 128,-1,41
 254 401 254 401 233.5 405.5 c 128,-1,42
 213 410 213 410 187 410 c 0,43,44
 134 410 134 410 116 387.5 c 128,-1,45
 98 365 98 365 98 312 c 0,46,47
 98 266 98 266 116 243 c 128,-1,48
 134 220 134 220 187 220 c 0,33,34
EndSplineSet
EndChar
StartChar: colon
Encoding: 58 58 27
Width: 225
Flags: W
Fore
67 0 m 1,0,-1
 67 83 l 1,1,-1
 158 83 l 1,2,-1
 158 0 l 1,3,-1
 67 0 l 1,0,-1
67 247 m 1,4,-1
 67 330 l 1,5,-1
 158 330 l 1,6,-1
 158 247 l 1,7,-1
 67 247 l 1,4,-1
EndSplineSet
EndChar
StartChar: semicolon
Encoding: 59 59 28
Width: 225
Flags: W
Fore
158 83 m 1,0,-1
 158 0 l 1,1,-1
 106 -122 l 1,2,-1
 65 -122 l 1,3,-1
 102 0 l 1,4,-1
 67 0 l 1,5,-1
 67 83 l 1,6,-1
 158 83 l 1,0,-1
67 247 m 1,7,-1
 67 330 l 1,8,-1
 158 330 l 1,9,-1
 158 247 l 1,10,-1
 67 247 l 1,7,-1
EndSplineSet
EndChar
StartChar: less
Encoding: 60 60 29
Width: 486
Flags: W
Fore
454 -5 m 1,0,-1
 32 183 l 1,1,-1
 32 238 l 1,2,-1
 454 426 l 1,3,-1
 454 364 l 1,4,-1
 97 211 l 1,5,-1
 454 57 l 1,6,-1
 454 -5 l 1,0,-1
EndSplineSet
EndChar
StartChar: equal
Encoding: 61 61 30
Width: 486
Flags: W
Fore
454 270 m 1,0,-1
 32 270 l 1,1,-1
 32 323 l 1,2,-1
 454 323 l 1,3,-1
 454 270 l 1,0,-1
454 108 m 1,4,-1
 32 108 l 1,5,-1
 32 161 l 1,6,-1
 454 161 l 1,7,-1
 454 108 l 1,4,-1
EndSplineSet
EndChar
StartChar: greater
Encoding: 62 62 31
Width: 486
Flags: W
Fore
32 57 m 1,0,-1
 389 211 l 1,1,-1
 32 364 l 1,2,-1
 32 426 l 1,3,-1
 454 243 l 1,4,-1
 454 178 l 1,5,-1
 32 -5 l 1,6,-1
 32 57 l 1,0,-1
EndSplineSet
EndChar
StartChar: question
Encoding: 63 63 32
Width: 345
Flags: W
Fore
23 493 m 1,0,1
 40 539 40 539 82.5 566 c 128,-1,2
 125 593 125 593 178 593 c 0,3,4
 208 593 208 593 234 584.5 c 128,-1,5
 260 576 260 576 279.5 559.5 c 128,-1,6
 299 543 299 543 310 518 c 128,-1,7
 321 493 321 493 321 461 c 0,8,9
 321 421 321 421 301 393 c 128,-1,10
 281 365 281 365 257 340 c 128,-1,11
 233 315 233 315 213 287 c 128,-1,12
 193 259 193 259 193 217 c 2,13,-1
 193 178 l 1,14,-1
 120 178 l 1,15,-1
 120 217 l 2,16,17
 120 256 120 256 140 286.5 c 128,-1,18
 160 317 160 317 184 345.5 c 128,-1,19
 208 374 208 374 228 404 c 128,-1,20
 248 434 248 434 248 472 c 0,21,22
 248 495 248 495 229.5 514.5 c 128,-1,23
 211 534 211 534 177 534 c 0,24,25
 137 534 137 534 115.5 511.5 c 128,-1,26
 94 489 94 489 84 463 c 1,27,-1
 23 493 l 1,0,1
104 0 m 1,28,-1
 104 83 l 1,29,-1
 204 83 l 1,30,-1
 204 0 l 1,31,-1
 104 0 l 1,28,-1
EndSplineSet
EndChar
StartChar: at
Encoding: 64 64 33
Width: 549
Flags: W
Fore
241 146 m 0,0,1
 262 146 262 146 278.5 159 c 128,-1,2
 295 172 295 172 306 192.5 c 128,-1,3
 317 213 317 213 323 238 c 128,-1,4
 329 263 329 263 329 286 c 0,5,6
 329 311 329 311 321 327 c 128,-1,7
 313 343 313 343 293 343 c 0,8,9
 266 343 266 343 247.5 331.5 c 128,-1,10
 229 320 229 320 217.5 301 c 128,-1,11
 206 282 206 282 200.5 257.5 c 128,-1,12
 195 233 195 233 195 207 c 0,13,14
 195 175 195 175 205 160.5 c 128,-1,15
 215 146 215 146 241 146 c 0,0,1
374 374 m 1,16,-1
 420 374 l 1,17,-1
 353 200 l 2,18,19
 349 189 349 189 348.5 181.5 c 128,-1,20
 348 174 348 174 348 166 c 0,21,22
 348 148 348 148 367 148 c 0,23,24
 387 148 387 148 405 159 c 128,-1,25
 423 170 423 170 436.5 189.5 c 128,-1,26
 450 209 450 209 458 235 c 128,-1,27
 466 261 466 261 466 290 c 0,28,29
 466 331 466 331 452 361.5 c 128,-1,30
 438 392 438 392 414 413 c 128,-1,31
 390 434 390 434 357 444.5 c 128,-1,32
 324 455 324 455 286 455 c 0,33,34
 240 455 240 455 202 439 c 128,-1,35
 164 423 164 423 138 394.5 c 128,-1,36
 112 366 112 366 97.5 327.5 c 128,-1,37
 83 289 83 289 83 243 c 0,38,39
 83 198 83 198 98 160 c 128,-1,40
 113 122 113 122 140 95 c 128,-1,41
 167 68 167 68 204.5 52.5 c 128,-1,42
 242 37 242 37 287 37 c 0,43,44
 339 37 339 37 381.5 55 c 128,-1,45
 424 73 424 73 454 118 c 1,46,-1
 503 118 l 1,47,48
 487 89 487 89 464 66 c 128,-1,49
 441 43 441 43 412.5 26.5 c 128,-1,50
 384 10 384 10 352 1.5 c 128,-1,51
 320 -7 320 -7 287 -7 c 0,52,53
 233 -7 233 -7 187 13 c 128,-1,54
 141 33 141 33 107.5 68 c 128,-1,55
 74 103 74 103 54.5 149.5 c 128,-1,56
 35 196 35 196 35 248 c 256,57,58
 35 300 35 300 55 345.5 c 128,-1,59
 75 391 75 391 109 425 c 128,-1,60
 143 459 143 459 188.5 478.5 c 128,-1,61
 234 498 234 498 285 498 c 0,62,63
 333 498 333 498 375 482.5 c 128,-1,64
 417 467 417 467 448 439.5 c 128,-1,65
 479 412 479 412 496.5 373.5 c 128,-1,66
 514 335 514 335 514 289 c 0,67,68
 514 249 514 249 500 215 c 128,-1,69
 486 181 486 181 463.5 156 c 128,-1,70
 441 131 441 131 413.5 116.5 c 128,-1,71
 386 102 386 102 360 102 c 0,72,73
 342 102 342 102 328.5 113 c 128,-1,74
 315 124 315 124 314 141 c 1,75,-1
 313 141 l 1,76,77
 296 124 296 124 277 113 c 128,-1,78
 258 102 258 102 232 102 c 0,79,80
 210 102 210 102 193.5 110.5 c 128,-1,81
 177 119 177 119 166 133 c 128,-1,82
 155 147 155 147 149 165 c 128,-1,83
 143 183 143 183 143 203 c 0,84,85
 143 240 143 240 153 273.5 c 128,-1,86
 163 307 163 307 182 332.5 c 128,-1,87
 201 358 201 358 230 373 c 128,-1,88
 259 388 259 388 296 388 c 0,89,90
 319 388 319 388 337 375.5 c 128,-1,91
 355 363 355 363 360 338 c 1,92,-1
 374 374 l 1,16,-1
EndSplineSet
EndChar
StartChar: A
Encoding: 65 65 34
Width: 463
Flags: W
Fore
313 185 m 1,0,-1
 232 420 l 1,1,-1
 151 185 l 1,2,-1
 313 185 l 1,0,-1
193 485 m 1,3,-1
 271 485 l 1,4,-1
 443 0 l 1,5,-1
 371 0 l 1,6,-1
 328 131 l 1,7,-1
 135 131 l 1,8,-1
 92 0 l 1,9,-1
 20 0 l 1,10,-1
 193 485 l 1,3,-1
EndSplineSet
EndChar
StartChar: B
Encoding: 66 66 35
Width: 427
Flags: W
Fore
310 271 m 1,0,1
 329 267 329 267 345 254.5 c 128,-1,2
 361 242 361 242 372.5 225.5 c 128,-1,3
 384 209 384 209 390.5 189.5 c 128,-1,4
 397 170 397 170 397 150 c 0,5,6
 397 117 397 117 388 89.5 c 128,-1,7
 379 62 379 62 359.5 42 c 128,-1,8
 340 22 340 22 308.5 11 c 128,-1,9
 277 0 277 0 231 0 c 2,10,-1
 60 0 l 1,11,-1
 60 486 l 1,12,-1
 233 486 l 2,13,14
 271 486 271 486 297 477 c 128,-1,15
 323 468 323 468 339 452.5 c 128,-1,16
 355 437 355 437 362 416.5 c 128,-1,17
 369 396 369 396 369 373 c 0,18,19
 369 333 369 333 352.5 306.5 c 128,-1,20
 336 280 336 280 310 271 c 1,0,1
128 431 m 1,21,-1
 128 294 l 1,22,-1
 213 294 l 2,23,24
 261 294 261 294 280 316.5 c 128,-1,25
 299 339 299 339 299 373 c 0,26,27
 299 402 299 402 284 416.5 c 128,-1,28
 269 431 269 431 233 431 c 2,29,-1
 128 431 l 1,21,-1
221 52 m 2,30,31
 276 52 276 52 301.5 72 c 128,-1,32
 327 92 327 92 327 150 c 0,33,34
 327 174 327 174 322 192 c 128,-1,35
 317 210 317 210 304 221.5 c 128,-1,36
 291 233 291 233 268.5 238.5 c 128,-1,37
 246 244 246 244 211 244 c 2,38,-1
 128 244 l 1,39,-1
 128 52 l 1,40,-1
 221 52 l 2,30,31
EndSplineSet
EndChar
StartChar: C
Encoding: 67 67 36
Width: 379
Flags: W
Fore
40 242 m 256,0,1
 40 308 40 308 49 355 c 128,-1,2
 58 402 58 402 79.5 432.5 c 128,-1,3
 101 463 101 463 136.5 477 c 128,-1,4
 172 491 172 491 224 491 c 0,5,6
 257 491 257 491 294.5 480.5 c 128,-1,7
 332 470 332 470 359 449 c 1,8,-1
 328 401 l 1,9,10
 305 421 305 421 279 429 c 128,-1,11
 253 437 253 437 223 437 c 0,12,13
 188 437 188 437 165.5 427 c 128,-1,14
 143 417 143 417 130.5 394 c 128,-1,15
 118 371 118 371 113 334 c 128,-1,16
 108 297 108 297 108 242 c 256,17,18
 108 187 108 187 113 150 c 128,-1,19
 118 113 118 113 130.5 90 c 128,-1,20
 143 67 143 67 165.5 57 c 128,-1,21
 188 47 188 47 223 47 c 0,22,23
 253 47 253 47 279 55 c 128,-1,24
 305 63 305 63 328 83 c 1,25,-1
 359 35 l 1,26,27
 332 14 332 14 294.5 3.5 c 128,-1,28
 257 -7 257 -7 224 -7 c 0,29,30
 172 -7 172 -7 136.5 7 c 128,-1,31
 101 21 101 21 79.5 51.5 c 128,-1,32
 58 82 58 82 49 129 c 128,-1,33
 40 176 40 176 40 242 c 256,0,1
EndSplineSet
EndChar
StartChar: D
Encoding: 68 68 37
Width: 467
Flags: W
Fore
130 434 m 1,0,-1
 130 52 l 1,1,-1
 221 52 l 2,2,3
 263 52 263 52 289.5 62 c 128,-1,4
 316 72 316 72 330.5 93.5 c 128,-1,5
 345 115 345 115 350 150 c 128,-1,6
 355 185 355 185 355 236 c 0,7,8
 355 292 355 292 350 329.5 c 128,-1,9
 345 367 345 367 330.5 390.5 c 128,-1,10
 316 414 316 414 289.5 424 c 128,-1,11
 263 434 263 434 221 434 c 2,12,-1
 130 434 l 1,0,-1
60 0 m 1,13,-1
 60 486 l 1,14,-1
 221 486 l 2,15,16
 328 486 328 486 377.5 423.5 c 128,-1,17
 427 361 427 361 427 236 c 0,18,19
 427 118 427 118 377.5 59 c 128,-1,20
 328 0 328 0 221 0 c 2,21,-1
 60 0 l 1,13,-1
EndSplineSet
EndChar
StartChar: E
Encoding: 69 69 38
Width: 366
Flags: W
Fore
130 52 m 1,0,-1
 343 52 l 1,1,-1
 343 0 l 1,2,-1
 60 0 l 1,3,-1
 60 486 l 1,4,-1
 346 486 l 1,5,-1
 346 434 l 1,6,-1
 130 434 l 1,7,-1
 130 280 l 1,8,-1
 316 280 l 1,9,-1
 316 228 l 1,10,-1
 130 228 l 1,11,-1
 130 52 l 1,0,-1
EndSplineSet
EndChar
StartChar: F
Encoding: 70 70 39
Width: 366
Flags: W
Fore
130 0 m 1,0,-1
 60 0 l 1,1,-1
 60 486 l 1,2,-1
 346 486 l 1,3,-1
 346 434 l 1,4,-1
 130 434 l 1,5,-1
 130 280 l 1,6,-1
 316 280 l 1,7,-1
 316 228 l 1,8,-1
 130 228 l 1,9,-1
 130 0 l 1,0,-1
EndSplineSet
EndChar
StartChar: G
Encoding: 71 71 40
Width: 435
Flags: W
Fore
318 206 m 1,0,-1
 297 206 l 2,1,2
 278 206 278 206 267 204 c 128,-1,3
 256 202 256 202 250 201 c 128,-1,4
 244 200 244 200 241.5 201 c 128,-1,5
 239 202 239 202 236 208 c 0,6,7
 231 218 231 218 230 235.5 c 128,-1,8
 229 253 229 253 232 259 c 1,9,-1
 385 259 l 1,10,-1
 385 54 l 1,11,12
 365 33 365 33 327.5 13 c 128,-1,13
 290 -7 290 -7 234 -7 c 0,14,15
 182 -7 182 -7 146.5 7 c 128,-1,16
 111 21 111 21 89.5 51.5 c 128,-1,17
 68 82 68 82 59 129 c 128,-1,18
 50 176 50 176 50 242 c 256,19,20
 50 308 50 308 59 355 c 128,-1,21
 68 402 68 402 89.5 432.5 c 128,-1,22
 111 463 111 463 146.5 477 c 128,-1,23
 182 491 182 491 234 491 c 0,24,25
 267 491 267 491 304.5 480.5 c 128,-1,26
 342 470 342 470 369 449 c 1,27,-1
 338 401 l 1,28,29
 315 421 315 421 289 429 c 128,-1,30
 263 437 263 437 233 437 c 0,31,32
 198 437 198 437 175.5 427 c 128,-1,33
 153 417 153 417 140.5 394 c 128,-1,34
 128 371 128 371 123 334 c 128,-1,35
 118 297 118 297 118 242 c 256,36,37
 118 187 118 187 123 150 c 128,-1,38
 128 113 128 113 140.5 90 c 128,-1,39
 153 67 153 67 175.5 57 c 128,-1,40
 198 47 198 47 233 47 c 0,41,42
 248 47 248 47 271.5 55 c 128,-1,43
 295 63 295 63 318 83 c 1,44,-1
 318 206 l 1,0,-1
EndSplineSet
EndChar
StartChar: H
Encoding: 72 72 41
Width: 456
Flags: W
Fore
326 280 m 1,0,-1
 326 486 l 1,1,-1
 396 486 l 1,2,-1
 396 0 l 1,3,-1
 326 0 l 1,4,-1
 326 228 l 1,5,-1
 130 228 l 1,6,-1
 130 0 l 1,7,-1
 60 0 l 1,8,-1
 60 486 l 1,9,-1
 130 486 l 1,10,-1
 130 280 l 1,11,-1
 326 280 l 1,0,-1
EndSplineSet
EndChar
StartChar: I
Encoding: 73 73 42
Width: 276
Flags: W
Fore
171 47 m 1,0,-1
 253 47 l 1,1,-1
 253 0 l 1,2,-1
 20 0 l 1,3,-1
 20 47 l 1,4,-1
 102 47 l 1,5,-1
 102 439 l 1,6,-1
 23 439 l 1,7,-1
 23 486 l 1,8,-1
 256 486 l 1,9,-1
 256 439 l 1,10,-1
 171 439 l 1,11,-1
 171 47 l 1,0,-1
EndSplineSet
EndChar
StartChar: J
Encoding: 74 74 43
Width: 331
Flags: W
Fore
271 219 m 2,0,1
 271 153 271 153 265 109.5 c 128,-1,2
 259 66 259 66 244 40 c 128,-1,3
 229 14 229 14 202.5 3.5 c 128,-1,4
 176 -7 176 -7 135 -7 c 0,5,6
 102 -7 102 -7 69.5 3.5 c 128,-1,7
 37 14 37 14 10 35 c 1,8,-1
 41 83 l 1,9,10
 64 63 64 63 85 55 c 128,-1,11
 106 47 106 47 136 47 c 0,12,13
 156 47 156 47 168.5 53.5 c 128,-1,14
 181 60 181 60 188.5 78.5 c 128,-1,15
 196 97 196 97 198.5 130.5 c 128,-1,16
 201 164 201 164 201 219 c 2,17,-1
 201 486 l 1,18,-1
 271 486 l 1,19,-1
 271 219 l 2,0,1
EndSplineSet
EndChar
StartChar: K
Encoding: 75 75 44
Width: 434
Flags: W
Fore
60 0 m 1,0,-1
 60 486 l 1,1,-1
 130 486 l 1,2,-1
 130 280 l 1,3,-1
 306 486 l 1,4,-1
 395 486 l 1,5,-1
 216 282 l 1,6,-1
 397 0 l 1,7,-1
 313 0 l 1,8,-1
 172 236 l 1,9,-1
 130 190 l 1,10,-1
 130 0 l 1,11,-1
 60 0 l 1,0,-1
EndSplineSet
EndChar
StartChar: L
Encoding: 76 76 45
Width: 356
Flags: W
Fore
130 52 m 1,0,-1
 346 52 l 1,1,-1
 346 0 l 1,2,-1
 60 0 l 1,3,-1
 60 486 l 1,4,-1
 130 486 l 1,5,-1
 130 52 l 1,0,-1
EndSplineSet
EndChar
StartChar: M
Encoding: 77 77 46
Width: 582
Flags: W
Fore
419 486 m 1,0,-1
 522 486 l 1,1,-1
 522 0 l 1,2,-1
 454 0 l 1,3,-1
 454 404 l 1,4,-1
 326 0 l 1,5,-1
 256 0 l 1,6,-1
 128 404 l 1,7,-1
 128 0 l 1,8,-1
 60 0 l 1,9,-1
 60 486 l 1,10,-1
 163 486 l 1,11,-1
 291 80 l 1,12,-1
 419 486 l 1,0,-1
EndSplineSet
EndChar
StartChar: N
Encoding: 78 78 47
Width: 476
Flags: W
Fore
60 0 m 1,0,-1
 60 486 l 1,1,-1
 153 486 l 1,2,-1
 346 115 l 1,3,-1
 346 486 l 1,4,-1
 416 486 l 1,5,-1
 416 0 l 1,6,-1
 336 0 l 1,7,-1
 130 404 l 1,8,-1
 130 0 l 1,9,-1
 60 0 l 1,0,-1
EndSplineSet
EndChar
StartChar: O
Encoding: 79 79 48
Width: 472
Flags: W
Fore
236 51 m 256,0,1
 271 51 271 51 294.5 61 c 128,-1,2
 318 71 318 71 332.5 93.5 c 128,-1,3
 347 116 347 116 353.5 151 c 128,-1,4
 360 186 360 186 360 237 c 0,5,6
 360 293 360 293 353.5 330.5 c 128,-1,7
 347 368 347 368 332.5 391 c 128,-1,8
 318 414 318 414 294.5 424 c 128,-1,9
 271 434 271 434 236 434 c 256,10,11
 201 434 201 434 177 424 c 128,-1,12
 153 414 153 414 138.5 391 c 128,-1,13
 124 368 124 368 118 330.5 c 128,-1,14
 112 293 112 293 112 237 c 0,15,16
 112 186 112 186 118 151 c 128,-1,17
 124 116 124 116 138.5 93.5 c 128,-1,18
 153 71 153 71 177 61 c 128,-1,19
 201 51 201 51 236 51 c 256,0,1
236 -6 m 0,20,21
 130 -6 130 -6 85 57 c 128,-1,22
 40 120 40 120 40 237 c 0,23,24
 40 362 40 362 84.5 425.5 c 128,-1,25
 129 489 129 489 236 489 c 0,26,27
 289 489 289 489 326.5 473 c 128,-1,28
 364 457 364 457 387.5 425.5 c 128,-1,29
 411 394 411 394 421.5 346.5 c 128,-1,30
 432 299 432 299 432 237 c 0,31,32
 432 179 432 179 421.5 133.5 c 128,-1,33
 411 88 411 88 387.5 57 c 128,-1,34
 364 26 364 26 326.5 10 c 128,-1,35
 289 -6 289 -6 236 -6 c 0,20,21
EndSplineSet
EndChar
StartChar: P
Encoding: 80 80 49
Width: 427
Flags: W
Fore
130 434 m 1,0,-1
 130 232 l 1,1,-1
 211 232 l 2,2,3
 274 232 274 232 300.5 253.5 c 128,-1,4
 327 275 327 275 327 331 c 0,5,6
 327 390 327 390 301.5 412 c 128,-1,7
 276 434 276 434 221 434 c 2,8,-1
 130 434 l 1,0,-1
130 180 m 1,9,-1
 130 0 l 1,10,-1
 60 0 l 1,11,-1
 60 486 l 1,12,-1
 221 486 l 2,13,14
 271 486 271 486 304.5 476.5 c 128,-1,15
 338 467 338 467 358.5 448 c 128,-1,16
 379 429 379 429 388 400 c 128,-1,17
 397 371 397 371 397 331 c 0,18,19
 397 295 397 295 386.5 267 c 128,-1,20
 376 239 376 239 352.5 219.5 c 128,-1,21
 329 200 329 200 291.5 190 c 128,-1,22
 254 180 254 180 201 180 c 2,23,-1
 130 180 l 1,9,-1
EndSplineSet
EndChar
StartChar: Q
Encoding: 81 81 50
Width: 512
Flags: W
Fore
256 51 m 256,0,1
 291 51 291 51 314.5 61 c 128,-1,2
 338 71 338 71 352.5 93.5 c 128,-1,3
 367 116 367 116 373.5 151 c 128,-1,4
 380 186 380 186 380 237 c 0,5,6
 380 293 380 293 373.5 330.5 c 128,-1,7
 367 368 367 368 352.5 391 c 128,-1,8
 338 414 338 414 314.5 424 c 128,-1,9
 291 434 291 434 256 434 c 256,10,11
 221 434 221 434 197 424 c 128,-1,12
 173 414 173 414 158.5 391 c 128,-1,13
 144 368 144 368 138 330.5 c 128,-1,14
 132 293 132 293 132 237 c 0,15,16
 132 186 132 186 138 151 c 128,-1,17
 144 116 144 116 158.5 93.5 c 128,-1,18
 173 71 173 71 197 61 c 128,-1,19
 221 51 221 51 256 51 c 256,0,1
256 -6 m 0,20,21
 150 -6 150 -6 105 57 c 128,-1,22
 60 120 60 120 60 237 c 0,23,24
 60 362 60 362 104.5 425.5 c 128,-1,25
 149 489 149 489 256 489 c 0,26,27
 309 489 309 489 346.5 473 c 128,-1,28
 384 457 384 457 407.5 425.5 c 128,-1,29
 431 394 431 394 441.5 346.5 c 128,-1,30
 452 299 452 299 452 237 c 0,31,32
 452 179 452 179 441.5 133.5 c 128,-1,33
 431 88 431 88 407.5 57 c 128,-1,34
 384 26 384 26 346.5 10 c 128,-1,35
 309 -6 309 -6 256 -6 c 0,20,21
302 146 m 1,36,-1
 452 -36 l 1,37,-1
 382 -52 l 1,38,-1
 250 131 l 1,39,-1
 302 146 l 1,36,-1
EndSplineSet
EndChar
StartChar: R
Encoding: 82 82 51
Width: 437
Flags: W
Fore
221 486 m 2,0,1
 271 486 271 486 304.5 477 c 128,-1,2
 338 468 338 468 358.5 450 c 128,-1,3
 379 432 379 432 388 406 c 128,-1,4
 397 380 397 380 397 346 c 0,5,6
 397 292 397 292 366 260.5 c 128,-1,7
 335 229 335 229 290 223 c 1,8,-1
 395 0 l 1,9,-1
 313 0 l 1,10,-1
 219 220 l 1,11,-1
 130 220 l 1,12,-1
 130 0 l 1,13,-1
 60 0 l 1,14,-1
 60 486 l 1,15,-1
 221 486 l 2,0,1
130 272 m 1,16,-1
 231 272 l 2,17,18
 271 272 271 272 298 288.5 c 128,-1,19
 325 305 325 305 325 346 c 0,20,21
 325 390 325 390 299.5 407 c 128,-1,22
 274 424 274 424 221 424 c 2,23,-1
 130 424 l 1,24,-1
 130 272 l 1,16,-1
EndSplineSet
EndChar
StartChar: S
Encoding: 83 83 52
Width: 446
Flags: W
Fore
107 158 m 1,0,1
 115 126 115 126 129.5 105.5 c 128,-1,2
 144 85 144 85 162.5 73 c 128,-1,3
 181 61 181 61 202.5 56 c 128,-1,4
 224 51 224 51 245 51 c 0,5,6
 283 51 283 51 309.5 71.5 c 128,-1,7
 336 92 336 92 336 121 c 256,8,9
 336 150 336 150 315 167.5 c 128,-1,10
 294 185 294 185 263 198.5 c 128,-1,11
 232 212 232 212 195.5 223.5 c 128,-1,12
 159 235 159 235 128 252 c 128,-1,13
 97 269 97 269 76 295 c 128,-1,14
 55 321 55 321 55 361 c 0,15,16
 55 418 55 418 96 453 c 128,-1,17
 137 488 137 488 215 488 c 0,18,19
 281 488 281 488 327 454 c 128,-1,20
 373 420 373 420 393 355 c 1,21,-1
 329 342 l 1,22,23
 314 389 314 389 287.5 410.5 c 128,-1,24
 261 432 261 432 215 432 c 0,25,26
 173 432 173 432 149 411.5 c 128,-1,27
 125 391 125 391 125 361 c 0,28,29
 125 334 125 334 146 317.5 c 128,-1,30
 167 301 167 301 198 288 c 128,-1,31
 229 275 229 275 265.5 263 c 128,-1,32
 302 251 302 251 333 234 c 128,-1,33
 364 217 364 217 385 192 c 128,-1,34
 406 167 406 167 406 128 c 0,35,36
 406 70 406 70 364 32 c 128,-1,37
 322 -6 322 -6 244 -6 c 0,38,39
 159 -6 159 -6 111 30 c 128,-1,40
 63 66 63 66 40 144 c 1,41,-1
 107 158 l 1,0,1
EndSplineSet
EndChar
StartChar: T
Encoding: 84 84 53
Width: 370
Flags: W
Fore
220 0 m 1,0,-1
 150 0 l 1,1,-1
 150 434 l 1,2,-1
 10 434 l 1,3,-1
 10 486 l 1,4,-1
 360 486 l 1,5,-1
 360 434 l 1,6,-1
 220 434 l 1,7,-1
 220 0 l 1,0,-1
EndSplineSet
EndChar
StartChar: U
Encoding: 85 85 54
Width: 492
Flags: W
Fore
362 486 m 1,0,-1
 432 486 l 1,1,-1
 432 204 l 2,2,3
 432 146 432 146 423 105.5 c 128,-1,4
 414 65 414 65 392.5 40.5 c 128,-1,5
 371 16 371 16 335 5 c 128,-1,6
 299 -6 299 -6 246 -6 c 256,7,8
 193 -6 193 -6 157 5 c 128,-1,9
 121 16 121 16 99.5 40.5 c 128,-1,10
 78 65 78 65 69 105.5 c 128,-1,11
 60 146 60 146 60 204 c 2,12,-1
 60 486 l 1,13,-1
 130 486 l 1,14,-1
 130 204 l 2,15,16
 130 153 130 153 136.5 123 c 128,-1,17
 143 93 143 93 156.5 76.5 c 128,-1,18
 170 60 170 60 192.5 55 c 128,-1,19
 215 50 215 50 246 50 c 256,20,21
 277 50 277 50 299 55 c 128,-1,22
 321 60 321 60 335 76.5 c 128,-1,23
 349 93 349 93 355.5 123 c 128,-1,24
 362 153 362 153 362 204 c 2,25,-1
 362 486 l 1,0,-1
EndSplineSet
EndChar
StartChar: V
Encoding: 86 86 55
Width: 443
Flags: W
Fore
349 486 m 1,0,-1
 423 486 l 1,1,-1
 258 0 l 1,2,-1
 186 0 l 1,3,-1
 20 486 l 1,4,-1
 94 486 l 1,5,-1
 222 61 l 1,6,-1
 349 486 l 1,0,-1
EndSplineSet
EndChar
StartChar: W
Encoding: 87 87 56
Width: 566
Flags: W
Fore
317 486 m 1,0,-1
 414 81 l 1,1,-1
 414 81 l 1,2,-1
 472 486 l 1,3,-1
 546 486 l 1,4,-1
 458 0 l 1,5,-1
 378 0 l 1,6,-1
 283 416 l 1,7,-1
 188 0 l 1,8,-1
 108 0 l 1,9,-1
 20 486 l 1,10,-1
 94 486 l 1,11,-1
 152 81 l 1,12,-1
 152 81 l 1,13,-1
 249 486 l 1,14,-1
 317 486 l 1,0,-1
EndSplineSet
EndChar
StartChar: X
Encoding: 88 88 57
Width: 419
Flags: W
Fore
20 486 m 1,0,-1
 100 486 l 1,1,-1
 207 289 l 1,2,-1
 313 486 l 1,3,-1
 393 486 l 1,4,-1
 248 241 l 1,5,-1
 409 0 l 1,6,-1
 328 0 l 1,7,-1
 207 188 l 1,8,-1
 89 0 l 1,9,-1
 10 0 l 1,10,-1
 167 241 l 1,11,-1
 20 486 l 1,0,-1
EndSplineSet
EndChar
StartChar: Y
Encoding: 89 89 58
Width: 423
Flags: W
Fore
246 0 m 1,0,-1
 176 0 l 1,1,-1
 176 190 l 1,2,-1
 20 486 l 1,3,-1
 99 486 l 1,4,-1
 212 256 l 1,5,-1
 324 486 l 1,6,-1
 403 486 l 1,7,-1
 246 190 l 1,8,-1
 246 0 l 1,0,-1
EndSplineSet
EndChar
StartChar: Z
Encoding: 90 90 59
Width: 396
Flags: W
Fore
276 433 m 1,0,-1
 40 433 l 1,1,-1
 40 486 l 1,2,-1
 351 486 l 1,3,-1
 351 430 l 1,4,-1
 120 52 l 1,5,-1
 356 52 l 1,6,-1
 356 0 l 1,7,-1
 42 0 l 1,8,-1
 42 52 l 1,9,-1
 276 433 l 1,0,-1
EndSplineSet
EndChar
StartChar: bracketleft
Encoding: 91 91 60
Width: 270
Flags: W
Fore
222 585 m 1,0,-1
 222 545 l 1,1,-1
 140 545 l 1,2,-1
 140 -19 l 1,3,-1
 222 -19 l 1,4,-1
 222 -59 l 1,5,-1
 71 -59 l 1,6,-1
 71 585 l 1,7,-1
 222 585 l 1,0,-1
EndSplineSet
EndChar
StartChar: backslash
Encoding: 92 92 61
Width: 225
Flags: W
Fore
-10 593 m 1,0,-1
 55 593 l 1,1,-1
 235 -8 l 1,2,-1
 167 -8 l 1,3,-1
 -10 593 l 1,0,-1
EndSplineSet
EndChar
StartChar: bracketright
Encoding: 93 93 62
Width: 270
Flags: W
Fore
48 -59 m 1,0,-1
 48 -19 l 1,1,-1
 130 -19 l 1,2,-1
 130 545 l 1,3,-1
 48 545 l 1,4,-1
 48 585 l 1,5,-1
 199 585 l 1,6,-1
 199 -59 l 1,7,-1
 48 -59 l 1,0,-1
EndSplineSet
EndChar
StartChar: asciicircum
Encoding: 94 94 63
Width: 456
Flags: W
Fore
258 549 m 1,0,-1
 413 225 l 1,1,-1
 343 225 l 1,2,-1
 226 474 l 1,3,-1
 113 225 l 1,4,-1
 43 225 l 1,5,-1
 197 549 l 1,6,-1
 258 549 l 1,0,-1
EndSplineSet
EndChar
StartChar: underscore
Encoding: 95 95 64
Width: 475
Flags: W
Fore
0 -119 m 1,0,-1
 0 -61 l 1,1,-1
 475 -61 l 1,2,-1
 475 -119 l 1,3,-1
 0 -119 l 1,0,-1
EndSplineSet
EndChar
StartChar: grave
Encoding: 96 96 65
Width: 169
Flags: W
Fore
68 544 m 1,0,-1
 132 439 l 1,1,-1
 83 439 l 1,2,-1
 -10 544 l 1,3,-1
 68 544 l 1,0,-1
EndSplineSet
EndChar
StartChar: a
Encoding: 97 97 66
Width: 380
Flags: W
Fore
20 322 m 1,0,1
 30 335 30 335 46.5 349 c 128,-1,2
 63 363 63 363 84 375 c 128,-1,3
 105 387 105 387 129.5 395 c 128,-1,4
 154 403 154 403 178 403 c 0,5,6
 242 403 242 403 279 376 c 128,-1,7
 316 349 316 349 316 279 c 2,8,-1
 316 119 l 2,9,10
 316 81 316 81 322 53 c 128,-1,11
 328 25 328 25 337 8 c 1,12,13
 332 5 332 5 324 2.5 c 128,-1,14
 316 0 316 0 308 -1.5 c 128,-1,15
 300 -3 300 -3 292.5 -4 c 128,-1,16
 285 -5 285 -5 281 -5 c 256,17,18
 277 -5 277 -5 272.5 -3.5 c 128,-1,19
 268 -2 268 -2 265 5 c 0,20,21
 263 10 263 10 262 17 c 128,-1,22
 261 24 261 24 259 31 c 0,23,24
 257 39 257 39 256 48 c 1,25,26
 241 33 241 33 228 22.5 c 128,-1,27
 215 12 215 12 200.5 5.5 c 128,-1,28
 186 -1 186 -1 168.5 -4.5 c 128,-1,29
 151 -8 151 -8 128 -8 c 0,30,31
 82 -8 82 -8 51 24 c 128,-1,32
 20 56 20 56 20 106 c 0,33,34
 20 146 20 146 33 171 c 128,-1,35
 46 196 46 196 74.5 210.5 c 128,-1,36
 103 225 103 225 147 231 c 128,-1,37
 191 237 191 237 253 240 c 1,38,-1
 253 287 l 2,39,40
 253 308 253 308 245.5 322 c 128,-1,41
 238 336 238 336 227.5 343.5 c 128,-1,42
 217 351 217 351 205 354 c 128,-1,43
 193 357 193 357 184 357 c 0,44,45
 146 357 146 357 120 338.5 c 128,-1,46
 94 320 94 320 69 290 c 0,47,48
 67 287 67 287 61 289 c 128,-1,49
 55 291 55 291 47.5 296.5 c 128,-1,50
 40 302 40 302 32.5 309 c 128,-1,51
 25 316 25 316 20 322 c 1,0,1
251 193 m 1,52,53
 188 192 188 192 154 183.5 c 128,-1,54
 120 175 120 175 104 162 c 128,-1,55
 88 149 88 149 85 132 c 128,-1,56
 82 115 82 115 82 97 c 0,57,58
 82 71 82 71 93.5 55 c 128,-1,59
 105 39 105 39 136 39 c 0,60,61
 168 39 168 39 194.5 56.5 c 128,-1,62
 221 74 221 74 251 104 c 1,63,-1
 251 193 l 1,52,53
EndSplineSet
Substitution: 0 65534 'L030' uni0E38
Substitution: 0 65534 'L030' uni0E38
EndChar
StartChar: b
Encoding: 98 98 67
Width: 415
Flags: W
Fore
133 111 m 1,0,1
 155 80 155 80 184.5 59.5 c 128,-1,2
 214 39 214 39 241 39 c 0,3,4
 286 39 286 39 304 77.5 c 128,-1,5
 322 116 322 116 322 192 c 0,6,7
 322 234 322 234 319.5 265.5 c 128,-1,8
 317 297 317 297 308 317 c 128,-1,9
 299 337 299 337 282.5 347 c 128,-1,10
 266 357 266 357 239 357 c 0,11,12
 213 357 213 357 186 343.5 c 128,-1,13
 159 330 159 330 133 310 c 1,14,-1
 133 111 l 1,0,1
133 369 m 1,15,16
 161 386 161 386 190 394.5 c 128,-1,17
 219 403 219 403 251 403 c 0,18,19
 328 403 328 403 357.5 349 c 128,-1,20
 387 295 387 295 387 200 c 0,21,22
 387 91 387 91 350 41.5 c 128,-1,23
 313 -8 313 -8 244 -8 c 0,24,25
 223 -8 223 -8 208 -4.5 c 128,-1,26
 193 -1 193 -1 179.5 6 c 128,-1,27
 166 13 166 13 153.5 24.5 c 128,-1,28
 141 36 141 36 126 51 c 1,29,-1
 124 31 l 2,30,31
 123 23 123 23 121.5 16 c 128,-1,32
 120 9 120 9 118 5 c 0,33,34
 113 -3 113 -3 104 -3 c 0,35,36
 96 -3 96 -3 78 -1 c 128,-1,37
 60 1 60 1 52 5 c 1,38,39
 54 11 54 11 57 23 c 128,-1,40
 60 35 60 35 63 51 c 128,-1,41
 66 67 66 67 68 85.5 c 128,-1,42
 70 104 70 104 70 122 c 2,43,-1
 70 549 l 1,44,-1
 133 549 l 1,45,-1
 133 369 l 1,15,16
EndSplineSet
Substitution: 0 65534 'L030' uni0E39
Substitution: 0 65534 'L030' uni0E39
EndChar
StartChar: c
Encoding: 99 99 68
Width: 362
Flags: W
Fore
28 198 m 256,0,1
 28 293 28 293 65 348 c 128,-1,2
 102 403 102 403 186 403 c 0,3,4
 235 403 235 403 271 380 c 128,-1,5
 307 357 307 357 334 322 c 1,6,7
 329 316 329 316 321.5 309 c 128,-1,8
 314 302 314 302 307 296.5 c 128,-1,9
 300 291 300 291 294 289 c 128,-1,10
 288 287 288 287 285 290 c 0,11,12
 273 305 273 305 262 317.5 c 128,-1,13
 251 330 251 330 239 339 c 128,-1,14
 227 348 227 348 213 352.5 c 128,-1,15
 199 357 199 357 180 357 c 0,16,17
 165 357 165 357 149.5 353.5 c 128,-1,18
 134 350 134 350 121.5 334 c 128,-1,19
 109 318 109 318 101 286 c 128,-1,20
 93 254 93 254 93 198 c 256,21,22
 93 142 93 142 101 110 c 128,-1,23
 109 78 109 78 121.5 62.5 c 128,-1,24
 134 47 134 47 149.5 43 c 128,-1,25
 165 39 165 39 180 39 c 0,26,27
 199 39 199 39 213 43.5 c 128,-1,28
 227 48 227 48 239 57 c 128,-1,29
 251 66 251 66 262 78.5 c 128,-1,30
 273 91 273 91 285 106 c 0,31,32
 288 109 288 109 294 107 c 128,-1,33
 300 105 300 105 307 99.5 c 128,-1,34
 314 94 314 94 321.5 87 c 128,-1,35
 329 80 329 80 334 74 c 1,36,37
 307 39 307 39 271 16 c 128,-1,38
 235 -7 235 -7 186 -7 c 0,39,40
 102 -7 102 -7 65 48 c 128,-1,41
 28 103 28 103 28 198 c 256,0,1
EndSplineSet
Substitution: 0 65534 'L030' uni0E3A
Substitution: 0 65534 'L030' uni0E3A
EndChar
StartChar: d
Encoding: 100 100 69
Width: 415
Flags: W
Fore
282 310 m 1,0,1
 262 330 262 330 236 343.5 c 128,-1,2
 210 357 210 357 176 357 c 0,3,4
 149 357 149 357 132.5 347 c 128,-1,5
 116 337 116 337 107 317 c 128,-1,6
 98 297 98 297 95.5 265.5 c 128,-1,7
 93 234 93 234 93 192 c 0,8,9
 93 116 93 116 111 77.5 c 128,-1,10
 129 39 129 39 174 39 c 0,11,12
 195 39 195 39 210.5 44.5 c 128,-1,13
 226 50 226 50 238 59.5 c 128,-1,14
 250 69 250 69 260.5 82.5 c 128,-1,15
 271 96 271 96 282 111 c 1,16,-1
 282 310 l 1,0,1
282 549 m 1,17,-1
 345 549 l 1,18,-1
 345 122 l 2,19,20
 345 104 345 104 347 85.5 c 128,-1,21
 349 67 349 67 352 51 c 128,-1,22
 355 35 355 35 358 23 c 128,-1,23
 361 11 361 11 363 5 c 1,24,25
 355 1 355 1 337 -1 c 128,-1,26
 319 -3 319 -3 311 -3 c 0,27,28
 302 -3 302 -3 297 5 c 0,29,30
 295 9 295 9 293.5 16 c 128,-1,31
 292 23 292 23 291 31 c 2,32,-1
 289 51 l 1,33,34
 274 36 274 36 261.5 24.5 c 128,-1,35
 249 13 249 13 235.5 6 c 128,-1,36
 222 -1 222 -1 207 -4.5 c 128,-1,37
 192 -8 192 -8 171 -8 c 0,38,39
 102 -8 102 -8 65 41.5 c 128,-1,40
 28 91 28 91 28 200 c 0,41,42
 28 295 28 295 60 349 c 128,-1,43
 92 403 92 403 169 403 c 0,44,45
 189 403 189 403 204 401 c 128,-1,46
 219 399 219 399 231.5 395.5 c 128,-1,47
 244 392 244 392 256 386.5 c 128,-1,48
 268 381 268 381 282 374 c 1,49,-1
 282 549 l 1,17,-1
EndSplineSet
EndChar
StartChar: e
Encoding: 101 101 70
Width: 384
Flags: W
Fore
287 228 m 1,0,1
 287 294 287 294 265 325.5 c 128,-1,2
 243 357 243 357 191 357 c 0,3,4
 146 357 146 357 119.5 327 c 128,-1,5
 93 297 93 297 93 228 c 1,6,-1
 287 228 l 1,0,1
93 181 m 1,7,8
 93 141 93 141 101.5 114.5 c 128,-1,9
 110 88 110 88 124 72.5 c 128,-1,10
 138 57 138 57 155.5 50.5 c 128,-1,11
 173 44 173 44 190 44 c 0,12,13
 232 44 232 44 258.5 57.5 c 128,-1,14
 285 71 285 71 307 103 c 0,15,16
 309 106 309 106 315 104 c 128,-1,17
 321 102 321 102 328.5 97 c 128,-1,18
 336 92 336 92 343.5 85 c 128,-1,19
 351 78 351 78 356 72 c 1,20,21
 329 37 329 37 287 14 c 128,-1,22
 245 -9 245 -9 196 -9 c 0,23,24
 115 -9 115 -9 71.5 42 c 128,-1,25
 28 93 28 93 28 196 c 2,26,-1
 28 198 l 2,27,28
 28 305 28 305 71 354 c 128,-1,29
 114 403 114 403 190 403 c 0,30,31
 241 403 241 403 272.5 385.5 c 128,-1,32
 304 368 304 368 320.5 338 c 128,-1,33
 337 308 337 308 342.5 267.5 c 128,-1,34
 348 227 348 227 348 181 c 1,35,-1
 93 181 l 1,36,-1
 93 181 l 1,7,8
EndSplineSet
EndChar
StartChar: f
Encoding: 102 102 71
Width: 212
Flags: W
Fore
216 550 m 1,0,1
 219 544 219 544 220.5 534 c 128,-1,2
 222 524 222 524 221.5 515 c 128,-1,3
 221 506 221 506 218.5 499.5 c 128,-1,4
 216 493 216 493 212 495 c 0,5,6
 191 505 191 505 165 505 c 0,7,8
 153 505 153 505 140.5 494.5 c 128,-1,9
 128 484 128 484 128 457 c 2,10,-1
 128 395 l 1,11,-1
 199 395 l 1,12,-1
 199 349 l 1,13,-1
 128 349 l 1,14,-1
 128 0 l 1,15,-1
 63 0 l 1,16,-1
 63 349 l 1,17,-1
 8 349 l 1,18,-1
 8 395 l 1,19,-1
 63 395 l 1,20,-1
 63 451 l 2,21,22
 63 503 63 503 89.5 530 c 128,-1,23
 116 557 116 557 167 557 c 0,24,25
 191 557 191 557 216 550 c 1,0,1
EndSplineSet
EndChar
StartChar: g
Encoding: 103 103 72
Width: 380
Flags: W
Fore
272 379 m 1,0,1
 288 396 288 396 311 409 c 128,-1,2
 334 422 334 422 355 422 c 0,3,4
 367 422 367 422 367 410 c 0,5,6
 367 403 367 403 366.5 395.5 c 128,-1,7
 366 388 366 388 365 382 c 0,8,9
 364 375 364 375 362 369 c 1,10,11
 342 369 342 369 329 364.5 c 128,-1,12
 316 360 316 360 304 350 c 1,13,14
 318 333 318 333 324.5 315 c 128,-1,15
 331 297 331 297 331 268 c 0,16,17
 331 232 331 232 319 205.5 c 128,-1,18
 307 179 307 179 286 162.5 c 128,-1,19
 265 146 265 146 237 138 c 128,-1,20
 209 130 209 130 178 130 c 0,21,22
 166 130 166 130 151.5 133.5 c 128,-1,23
 137 137 137 137 122 143 c 1,24,25
 103 135 103 135 95.5 125.5 c 128,-1,26
 88 116 88 116 88 105 c 0,27,28
 88 88 88 88 112.5 79 c 128,-1,29
 137 70 137 70 200 70 c 0,30,31
 289 70 289 70 328.5 43 c 128,-1,32
 368 16 368 16 368 -32 c 0,33,34
 368 -54 368 -54 359 -73.5 c 128,-1,35
 350 -93 350 -93 329 -108 c 128,-1,36
 308 -123 308 -123 273.5 -131.5 c 128,-1,37
 239 -140 239 -140 188 -140 c 256,38,39
 137 -140 137 -140 103.5 -132 c 128,-1,40
 70 -124 70 -124 50.5 -111 c 128,-1,41
 31 -98 31 -98 23 -81 c 128,-1,42
 15 -64 15 -64 15 -47 c 0,43,44
 15 -21 15 -21 29 0.5 c 128,-1,45
 43 22 43 22 85 37 c 1,46,-1
 85 39 l 1,47,48
 57 44 57 44 44.5 59.5 c 128,-1,49
 32 75 32 75 32 92 c 0,50,51
 32 118 32 118 46.5 136.5 c 128,-1,52
 61 155 61 155 85 163 c 1,53,54
 65 174 65 174 49.5 201.5 c 128,-1,55
 34 229 34 229 34 260 c 0,56,57
 34 326 34 326 76.5 364.5 c 128,-1,58
 119 403 119 403 191 403 c 0,59,60
 220 403 220 403 242 393.5 c 128,-1,61
 264 384 264 384 272 379 c 1,0,1
178 19 m 0,62,63
 125 19 125 19 100.5 3.5 c 128,-1,64
 76 -12 76 -12 76 -38 c 0,65,66
 76 -67 76 -67 105 -80.5 c 128,-1,67
 134 -94 134 -94 181 -94 c 0,68,69
 240 -94 240 -94 273.5 -80.5 c 128,-1,70
 307 -67 307 -67 307 -36 c 0,71,72
 307 -24 307 -24 303.5 -13.5 c 128,-1,73
 300 -3 300 -3 287 4 c 128,-1,74
 274 11 274 11 248 15 c 128,-1,75
 222 19 222 19 178 19 c 0,62,63
100 265 m 0,76,77
 100 240 100 240 108 222.5 c 128,-1,78
 116 205 116 205 128 195 c 128,-1,79
 140 185 140 185 154.5 180.5 c 128,-1,80
 169 176 169 176 182 176 c 0,81,82
 215 176 215 176 240 195 c 128,-1,83
 265 214 265 214 265 265 c 0,84,85
 265 317 265 317 240 337 c 128,-1,86
 215 357 215 357 182 357 c 0,87,88
 150 357 150 357 125 334.5 c 128,-1,89
 100 312 100 312 100 265 c 0,76,77
EndSplineSet
EndChar
StartChar: h
Encoding: 104 104 73
Width: 433
Flags: W
Fore
63 0 m 1,0,-1
 63 549 l 1,1,-1
 128 549 l 1,2,-1
 128 343 l 1,3,4
 152 372 152 372 188 387.5 c 128,-1,5
 224 403 224 403 253 403 c 0,6,7
 315 403 315 403 342.5 368.5 c 128,-1,8
 370 334 370 334 370 270 c 2,9,-1
 370 0 l 1,10,-1
 304 0 l 1,11,-1
 304 265 l 2,12,13
 304 315 304 315 289.5 336 c 128,-1,14
 275 357 275 357 244 357 c 0,15,16
 215 357 215 357 183 337 c 128,-1,17
 151 317 151 317 128 291 c 1,18,-1
 128 0 l 1,19,-1
 63 0 l 1,0,-1
EndSplineSet
EndChar
StartChar: i
Encoding: 105 105 74
Width: 179
Flags: W
Fore
122 0 m 1,0,-1
 57 0 l 1,1,-1
 57 395 l 1,2,-1
 122 395 l 1,3,-1
 122 0 l 1,0,-1
57 482 m 1,4,-1
 57 549 l 1,5,-1
 122 549 l 1,6,-1
 122 482 l 1,7,-1
 57 482 l 1,4,-1
EndSplineSet
EndChar
StartChar: j
Encoding: 106 106 75
Width: 169
Flags: W
Fore
-43 -67 m 0,0,1
 -36 -71 -36 -71 -17.5 -77 c 128,-1,2
 1 -83 1 -83 15 -83 c 0,3,4
 31 -83 31 -83 41.5 -76 c 128,-1,5
 52 -69 52 -69 52 -48 c 2,6,-1
 52 395 l 1,7,-1
 117 395 l 1,8,-1
 117 -43 l 2,9,10
 117 -91 117 -91 89.5 -115.5 c 128,-1,11
 62 -140 62 -140 21 -140 c 0,12,13
 16 -140 16 -140 6 -139.5 c 128,-1,14
 -4 -139 -4 -139 -14.5 -138.5 c 128,-1,15
 -25 -138 -25 -138 -34 -137 c 128,-1,16
 -43 -136 -43 -136 -47 -134 c 1,17,18
 -53 -126 -53 -126 -55 -113.5 c 128,-1,19
 -57 -101 -57 -101 -56.5 -89.5 c 128,-1,20
 -56 -78 -56 -78 -52.5 -71 c 128,-1,21
 -49 -64 -49 -64 -43 -67 c 0,0,1
52 482 m 1,22,-1
 52 549 l 1,23,-1
 117 549 l 1,24,-1
 117 482 l 1,25,-1
 52 482 l 1,22,-1
EndSplineSet
EndChar
StartChar: k
Encoding: 107 107 76
Width: 398
Flags: W
Fore
63 0 m 1,0,-1
 63 549 l 1,1,-1
 126 549 l 1,2,-1
 126 233 l 1,3,-1
 276 395 l 1,4,-1
 362 395 l 1,5,-1
 188 218 l 1,6,-1
 381 0 l 1,7,-1
 296 0 l 1,8,-1
 147 178 l 1,9,-1
 126 154 l 1,10,-1
 126 0 l 1,11,-1
 63 0 l 1,0,-1
EndSplineSet
EndChar
StartChar: l
Encoding: 108 108 77
Width: 179
Flags: W
Fore
57 549 m 1,0,-1
 122 549 l 1,1,-1
 122 0 l 1,2,-1
 57 0 l 1,3,-1
 57 549 l 1,0,-1
EndSplineSet
EndChar
StartChar: m
Encoding: 109 109 78
Width: 643
Flags: W
Fore
63 0 m 1,0,-1
 63 395 l 1,1,-1
 128 395 l 1,2,-1
 128 345 l 1,3,4
 158 377 158 377 189.5 390 c 128,-1,5
 221 403 221 403 244 403 c 0,6,7
 324 403 324 403 340 341 c 1,8,9
 367 372 367 372 397.5 387.5 c 128,-1,10
 428 403 428 403 471 403 c 0,11,12
 523 403 523 403 551.5 375.5 c 128,-1,13
 580 348 580 348 580 295 c 2,14,-1
 580 0 l 1,15,-1
 514 0 l 1,16,-1
 514 300 l 2,17,18
 514 333 514 333 496.5 342.5 c 128,-1,19
 479 352 479 352 461 352 c 0,20,21
 427 352 427 352 399.5 331 c 128,-1,22
 372 310 372 310 354 281 c 1,23,-1
 354 0 l 1,24,-1
 289 0 l 1,25,-1
 289 300 l 2,26,27
 289 326 289 326 275 339 c 128,-1,28
 261 352 261 352 235 352 c 0,29,30
 222 352 222 352 207 346.5 c 128,-1,31
 192 341 192 341 177.5 331 c 128,-1,32
 163 321 163 321 150 308 c 128,-1,33
 137 295 137 295 128 281 c 1,34,-1
 128 0 l 1,35,-1
 63 0 l 1,0,-1
EndSplineSet
EndChar
StartChar: n
Encoding: 110 110 79
Width: 443
Flags: W
Fore
63 0 m 1,0,-1
 63 395 l 1,1,-1
 128 395 l 1,2,-1
 128 343 l 1,3,4
 152 376 152 376 189.5 389.5 c 128,-1,5
 227 403 227 403 263 403 c 0,6,7
 286 403 286 403 307.5 394 c 128,-1,8
 329 385 329 385 345 368 c 128,-1,9
 361 351 361 351 370.5 326.5 c 128,-1,10
 380 302 380 302 380 270 c 2,11,-1
 380 0 l 1,12,-1
 314 0 l 1,13,-1
 314 265 l 2,14,15
 314 315 314 315 294.5 333.5 c 128,-1,16
 275 352 275 352 244 352 c 0,17,18
 215 352 215 352 183 332.5 c 128,-1,19
 151 313 151 313 128 281 c 1,20,-1
 128 0 l 1,21,-1
 63 0 l 1,0,-1
EndSplineSet
EndChar
StartChar: o
Encoding: 111 111 80
Width: 390
Flags: W
Fore
195 357 m 256,0,1
 137 357 137 357 115 318 c 128,-1,2
 93 279 93 279 93 198 c 256,3,4
 93 117 93 117 115 78 c 128,-1,5
 137 39 137 39 195 39 c 256,6,7
 253 39 253 39 275 78 c 128,-1,8
 297 117 297 117 297 198 c 256,9,10
 297 279 297 279 275 318 c 128,-1,11
 253 357 253 357 195 357 c 256,0,1
195 403 m 0,12,13
 242 403 242 403 273.5 389 c 128,-1,14
 305 375 305 375 325 348.5 c 128,-1,15
 345 322 345 322 353.5 284 c 128,-1,16
 362 246 362 246 362 198 c 256,17,18
 362 150 362 150 353.5 112 c 128,-1,19
 345 74 345 74 325 47 c 128,-1,20
 305 20 305 20 273.5 6 c 128,-1,21
 242 -8 242 -8 195 -8 c 0,22,23
 149 -8 149 -8 117 6 c 128,-1,24
 85 20 85 20 65.5 47 c 128,-1,25
 46 74 46 74 37 112 c 128,-1,26
 28 150 28 150 28 198 c 256,27,28
 28 246 28 246 37 284 c 128,-1,29
 46 322 46 322 65.5 348.5 c 128,-1,30
 85 375 85 375 117 389 c 128,-1,31
 149 403 149 403 195 403 c 0,12,13
EndSplineSet
EndChar
StartChar: p
Encoding: 112 112 81
Width: 412
Flags: W
Fore
133 70 m 1,0,1
 151 56 151 56 170.5 47 c 128,-1,2
 190 38 190 38 209 38 c 0,3,4
 272 38 272 38 297 78 c 128,-1,5
 322 118 322 118 322 203 c 0,6,7
 322 245 322 245 319 274 c 128,-1,8
 316 303 316 303 307.5 321 c 128,-1,9
 299 339 299 339 283 347.5 c 128,-1,10
 267 356 267 356 241 356 c 0,11,12
 199 356 199 356 175 335.5 c 128,-1,13
 151 315 151 315 133 284 c 1,14,-1
 133 70 l 1,0,1
59 385 m 1,15,16
 68 387 68 387 78 390 c 0,17,18
 96 395 96 395 112 395 c 0,19,20
 121 395 121 395 127 386 c 128,-1,21
 133 377 133 377 133 355 c 2,22,-1
 133 344 l 1,23,-1
 134 344 l 1,24,25
 157 379 157 379 187 391 c 128,-1,26
 217 403 217 403 249 403 c 0,27,28
 284 403 284 403 309.5 392 c 128,-1,29
 335 381 335 381 352.5 356.5 c 128,-1,30
 370 332 370 332 378.5 292.5 c 128,-1,31
 387 253 387 253 387 195 c 0,32,33
 387 100 387 100 343 46 c 128,-1,34
 299 -8 299 -8 221 -8 c 0,35,36
 172 -8 172 -8 133 11 c 1,37,-1
 133 -140 l 1,38,-1
 70 -140 l 1,39,-1
 70 262 l 2,40,41
 70 271 70 271 69.5 288.5 c 128,-1,42
 69 306 69 306 67.5 324.5 c 128,-1,43
 66 343 66 343 64 360 c 128,-1,44
 62 377 62 377 59 385 c 1,15,16
EndSplineSet
EndChar
StartChar: q
Encoding: 113 113 82
Width: 415
Flags: W
Fore
285 349 m 1,0,1
 287 395 287 395 303 395 c 0,2,3
 320 395 320 395 338 390 c 0,4,5
 348 387 348 387 358 385 c 1,6,7
 355 377 355 377 352.5 361.5 c 128,-1,8
 350 346 350 346 348.5 328 c 128,-1,9
 347 310 347 310 346 292.5 c 128,-1,10
 345 275 345 275 345 262 c 2,11,-1
 345 -140 l 1,12,-1
 282 -140 l 1,13,-1
 282 21 l 1,14,15
 250 3 250 3 223 -2.5 c 128,-1,16
 196 -8 196 -8 179 -8 c 0,17,18
 101 -8 101 -8 64.5 46 c 128,-1,19
 28 100 28 100 28 195 c 0,20,21
 28 304 28 304 62.5 353.5 c 128,-1,22
 97 403 97 403 166 403 c 0,23,24
 207 403 207 403 233 389.5 c 128,-1,25
 259 376 259 376 285 349 c 1,0,1
282 284 m 1,26,27
 260 315 260 315 234.5 335.5 c 128,-1,28
 209 356 209 356 174 356 c 0,29,30
 129 356 129 356 111 317.5 c 128,-1,31
 93 279 93 279 93 203 c 0,32,33
 93 161 93 161 95 129.5 c 128,-1,34
 97 98 97 98 107 78 c 128,-1,35
 117 58 117 58 136.5 48 c 128,-1,36
 156 38 156 38 191 38 c 0,37,38
 210 38 210 38 237.5 48.5 c 128,-1,39
 265 59 265 59 282 80 c 1,40,-1
 282 284 l 1,26,27
EndSplineSet
EndChar
StartChar: r
Encoding: 114 114 83
Width: 288
Flags: W
Fore
228 332 m 256,0,1
 209 332 209 332 190.5 324 c 128,-1,2
 172 316 172 316 157.5 301 c 128,-1,3
 143 286 143 286 134 264 c 128,-1,4
 125 242 125 242 125 213 c 2,5,-1
 125 0 l 1,6,-1
 59 0 l 1,7,-1
 59 395 l 1,8,-1
 125 395 l 1,9,-1
 125 330 l 1,10,-1
 126 330 l 1,11,12
 142 367 142 367 172 385 c 128,-1,13
 202 403 202 403 240 403 c 0,14,15
 245 403 245 403 256.5 402 c 128,-1,16
 268 401 268 401 274 398 c 1,17,18
 277 391 277 391 276.5 378.5 c 128,-1,19
 276 366 276 366 273.5 353.5 c 128,-1,20
 271 341 271 341 267.5 332 c 128,-1,21
 264 323 264 323 262 323 c 1,22,23
 247 332 247 332 228 332 c 256,0,1
EndSplineSet
EndChar
StartChar: s
Encoding: 115 115 84
Width: 347
Flags: W
Fore
172 -8 m 0,0,1
 126 -8 126 -8 86.5 11 c 128,-1,2
 47 30 47 30 19 72 c 1,3,4
 26 80 26 80 33 86 c 0,5,6
 39 91 39 91 44.5 96.5 c 128,-1,7
 50 102 50 102 54 104 c 0,8,9
 65 109 65 109 72 100 c 0,10,11
 98 67 98 67 123.5 53 c 128,-1,12
 149 39 149 39 175 39 c 0,13,14
 186 39 186 39 198 43.5 c 128,-1,15
 210 48 210 48 220 56 c 128,-1,16
 230 64 230 64 236.5 76.5 c 128,-1,17
 243 89 243 89 243 105 c 0,18,19
 243 131 243 131 227 145.5 c 128,-1,20
 211 160 211 160 187.5 169.5 c 128,-1,21
 164 179 164 179 136.5 186.5 c 128,-1,22
 109 194 109 194 85.5 206.5 c 128,-1,23
 62 219 62 219 46 239.5 c 128,-1,24
 30 260 30 260 30 295 c 0,25,26
 30 323 30 323 40.5 343.5 c 128,-1,27
 51 364 51 364 68 377 c 128,-1,28
 85 390 85 390 108 396.5 c 128,-1,29
 131 403 131 403 156 403 c 0,30,31
 198 403 198 403 234.5 384.5 c 128,-1,32
 271 366 271 366 292 332 c 1,33,34
 286 324 286 324 279 318 c 0,35,36
 273 313 273 313 266.5 308 c 128,-1,37
 260 303 260 303 253 301 c 0,38,39
 248 299 248 299 245.5 301 c 128,-1,40
 243 303 243 303 238 309 c 0,41,42
 220 332 220 332 200 344.5 c 128,-1,43
 180 357 180 357 154 357 c 0,44,45
 145 357 145 357 135 354.5 c 128,-1,46
 125 352 125 352 116 345 c 128,-1,47
 107 338 107 338 101.5 326.5 c 128,-1,48
 96 315 96 315 96 297 c 0,49,50
 96 275 96 275 112 263 c 128,-1,51
 128 251 128 251 151.5 242.5 c 128,-1,52
 175 234 175 234 202.5 225.5 c 128,-1,53
 230 217 230 217 253.5 203 c 128,-1,54
 277 189 277 189 293 166 c 128,-1,55
 309 143 309 143 309 105 c 0,56,57
 309 78 309 78 297.5 57 c 128,-1,58
 286 36 286 36 267 21.5 c 128,-1,59
 248 7 248 7 223.5 -0.5 c 128,-1,60
 199 -8 199 -8 172 -8 c 0,0,1
EndSplineSet
EndChar
StartChar: t
Encoding: 116 116 85
Width: 241
Flags: W
Fore
224 -2 m 1,0,1
 210 -6 210 -6 198.5 -6.5 c 128,-1,2
 187 -7 187 -7 173 -8 c 0,3,4
 124 -8 124 -8 95.5 8.5 c 128,-1,5
 67 25 67 25 67 62 c 2,6,-1
 67 349 l 1,7,-1
 8 349 l 1,8,-1
 8 395 l 1,9,-1
 67 395 l 1,10,-1
 67 524 l 1,11,-1
 132 524 l 1,12,-1
 132 395 l 1,13,-1
 220 395 l 1,14,-1
 220 349 l 1,15,-1
 132 349 l 1,16,-1
 132 89 l 2,17,18
 132 49 132 49 173 49 c 0,19,20
 196 49 196 49 220 60 c 0,21,22
 224 62 224 62 226.5 54.5 c 128,-1,23
 229 47 229 47 229.5 36.5 c 128,-1,24
 230 26 230 26 228.5 15 c 128,-1,25
 227 4 227 4 224 -2 c 1,0,1
EndSplineSet
EndChar
StartChar: u
Encoding: 117 117 86
Width: 443
Flags: W
Fore
319 53 m 1,0,1
 309 38 309 38 293 27 c 128,-1,2
 277 16 277 16 259 8 c 128,-1,3
 241 0 241 0 223 -4 c 128,-1,4
 205 -8 205 -8 190 -8 c 0,5,6
 127 -8 127 -8 95 26.5 c 128,-1,7
 63 61 63 61 63 125 c 2,8,-1
 63 395 l 1,9,-1
 128 395 l 1,10,-1
 128 130 l 2,11,12
 128 81 128 81 147.5 60 c 128,-1,13
 167 39 167 39 198 39 c 0,14,15
 221 39 221 39 256 58.5 c 128,-1,16
 291 78 291 78 314 115 c 1,17,-1
 314 395 l 1,18,-1
 380 395 l 1,19,-1
 380 102 l 2,20,21
 380 75 380 75 385 46.5 c 128,-1,22
 390 18 390 18 393 8 c 1,23,24
 385 4 385 4 368 2 c 128,-1,25
 351 0 351 0 343 0 c 0,26,27
 339 0 339 0 333.5 1.5 c 128,-1,28
 328 3 328 3 325 8 c 0,29,30
 323 12 323 12 322 19 c 128,-1,31
 321 26 321 26 320 34 c 0,32,33
 319 43 319 43 319 53 c 1,0,1
EndSplineSet
EndChar
StartChar: v
Encoding: 118 118 87
Width: 357
Flags: W
Fore
10 395 m 1,0,-1
 79 395 l 1,1,-1
 177 80 l 1,2,-1
 179 80 l 1,3,-1
 278 395 l 1,4,-1
 347 395 l 1,5,-1
 211 0 l 1,6,-1
 146 0 l 1,7,-1
 10 395 l 1,0,-1
EndSplineSet
EndChar
StartChar: w
Encoding: 119 119 88
Width: 527
Flags: W
Fore
6 395 m 1,0,-1
 71 395 l 1,1,-1
 149 88 l 1,2,-1
 150 88 l 1,3,-1
 230 395 l 1,4,-1
 296 395 l 1,5,-1
 373 88 l 1,6,-1
 375 88 l 1,7,-1
 454 395 l 1,8,-1
 521 395 l 1,9,-1
 406 0 l 1,10,-1
 351 0 l 1,11,-1
 263 307 l 1,12,-1
 261 307 l 1,13,-1
 172 0 l 1,14,-1
 116 0 l 1,15,-1
 6 395 l 1,0,-1
EndSplineSet
EndChar
StartChar: x
Encoding: 120 120 89
Width: 358
Flags: W
Fore
83 0 m 1,0,-1
 8 0 l 1,1,-1
 142 210 l 1,2,-1
 23 395 l 1,3,-1
 98 395 l 1,4,-1
 179 263 l 1,5,-1
 260 395 l 1,6,-1
 334 395 l 1,7,-1
 216 210 l 1,8,-1
 350 0 l 1,9,-1
 276 0 l 1,10,-1
 179 156 l 1,11,-1
 83 0 l 1,0,-1
EndSplineSet
EndChar
StartChar: y
Encoding: 121 121 90
Width: 357
Flags: W
Fore
10 395 m 1,0,-1
 79 395 l 1,1,-1
 178 94 l 1,2,-1
 179 94 l 1,3,-1
 279 395 l 1,4,-1
 349 395 l 1,5,-1
 201 -29 l 2,6,7
 181 -86 181 -86 140 -113 c 128,-1,8
 99 -140 99 -140 45 -140 c 0,9,10
 21 -140 21 -140 -4 -133 c 1,11,12
 -7 -127 -7 -127 -8.5 -116.5 c 128,-1,13
 -10 -106 -10 -106 -9.5 -95.5 c 128,-1,14
 -9 -85 -9 -85 -6.5 -78 c 128,-1,15
 -4 -71 -4 -71 0 -73 c 0,16,17
 24 -84 24 -84 48 -84 c 0,18,19
 60 -84 60 -84 73.5 -81.5 c 128,-1,20
 87 -79 87 -79 100.5 -69.5 c 128,-1,21
 114 -60 114 -60 126 -42 c 128,-1,22
 138 -24 138 -24 146 6 c 1,23,-1
 10 395 l 1,0,-1
EndSplineSet
EndChar
StartChar: z
Encoding: 122 122 91
Width: 337
Flags: W
Fore
37 395 m 1,0,-1
 308 395 l 1,1,-1
 308 357 l 1,2,-1
 100 46 l 1,3,-1
 314 46 l 1,4,-1
 314 0 l 1,5,-1
 19 0 l 1,6,-1
 19 39 l 1,7,-1
 227 349 l 1,8,-1
 37 349 l 1,9,-1
 37 395 l 1,0,-1
EndSplineSet
EndChar
StartChar: braceleft
Encoding: 123 123 92
Width: 273
Flags: W
Fore
33 265 m 1,0,1
 59 265 59 265 69 281.5 c 128,-1,2
 79 298 79 298 79 327 c 2,3,-1
 79 470 l 2,4,5
 79 512 79 512 96.5 534.5 c 128,-1,6
 114 557 114 557 146 557 c 2,7,-1
 213 557 l 1,8,-1
 213 519 l 1,9,-1
 175 519 l 2,10,11
 160 519 160 519 152 510 c 128,-1,12
 144 501 144 501 144 469 c 2,13,-1
 144 329 l 2,14,15
 144 291 144 291 130 273 c 128,-1,16
 116 255 116 255 90 248 c 1,17,-1
 90 246 l 1,18,19
 116 240 116 240 130 221.5 c 128,-1,20
 144 203 144 203 144 165 c 2,21,-1
 144 25 l 2,22,23
 144 -7 144 -7 152 -16 c 128,-1,24
 160 -25 160 -25 175 -25 c 2,25,-1
 213 -25 l 1,26,-1
 213 -63 l 1,27,-1
 146 -63 l 2,28,29
 114 -63 114 -63 96.5 -40.5 c 128,-1,30
 79 -18 79 -18 79 24 c 2,31,-1
 79 167 l 2,32,33
 79 196 79 196 69 212.5 c 128,-1,34
 59 229 59 229 33 229 c 1,35,-1
 33 265 l 1,0,1
EndSplineSet
EndChar
StartChar: bar
Encoding: 124 124 93
Width: 179
Flags: W
Fore
59 557 m 1,0,-1
 120 557 l 1,1,-1
 120 -8 l 1,2,-1
 59 -8 l 1,3,-1
 59 557 l 1,0,-1
EndSplineSet
EndChar
StartChar: braceright
Encoding: 125 125 94
Width: 273
Flags: W
Fore
240 229 m 1,0,1
 214 229 214 229 204 212.5 c 128,-1,2
 194 196 194 196 194 167 c 2,3,-1
 194 24 l 2,4,5
 194 -18 194 -18 176.5 -40.5 c 128,-1,6
 159 -63 159 -63 127 -63 c 2,7,-1
 60 -63 l 1,8,-1
 60 -25 l 1,9,-1
 98 -25 l 2,10,11
 113 -25 113 -25 121 -16 c 128,-1,12
 129 -7 129 -7 129 25 c 2,13,-1
 129 165 l 2,14,15
 129 203 129 203 143 221.5 c 128,-1,16
 157 240 157 240 183 246 c 1,17,-1
 183 248 l 1,18,19
 157 255 157 255 143 273 c 128,-1,20
 129 291 129 291 129 329 c 2,21,-1
 129 469 l 2,22,23
 129 501 129 501 121 510 c 128,-1,24
 113 519 113 519 98 519 c 2,25,-1
 60 519 l 1,26,-1
 60 557 l 1,27,-1
 127 557 l 2,28,29
 159 557 159 557 176.5 534.5 c 128,-1,30
 194 512 194 512 194 470 c 2,31,-1
 194 327 l 2,32,33
 194 298 194 298 204 281.5 c 128,-1,34
 214 265 214 265 240 265 c 1,35,-1
 240 229 l 1,0,1
EndSplineSet
EndChar
StartChar: asciitilde
Encoding: 126 126 95
Width: 456
Flags: W
Fore
417 215 m 1,0,1
 404 191 404 191 380.5 171 c 128,-1,2
 357 151 357 151 314 151 c 0,3,4
 294 151 294 151 271 158 c 128,-1,5
 248 165 248 165 224 176 c 0,6,7
 201 185 201 185 179 193 c 128,-1,8
 157 201 157 201 140 201 c 0,9,10
 115 201 115 201 103 189.5 c 128,-1,11
 91 178 91 178 77 158 c 1,12,-1
 39 191 l 1,13,14
 52 214 52 214 76 234 c 128,-1,15
 100 254 100 254 142 254 c 0,16,17
 162 254 162 254 185 247 c 128,-1,18
 208 240 208 240 232 229 c 0,19,20
 255 220 255 220 277 212 c 128,-1,21
 299 204 299 204 316 204 c 0,22,23
 341 204 341 204 353 215.5 c 128,-1,24
 365 227 365 227 379 247 c 1,25,-1
 417 215 l 1,0,1
EndSplineSet
EndChar
StartChar: uni0E33.alt1
Encoding: 65537 -1 96
Width: 349
Flags: W
Fore
-161 534 m 256,0,1
 -161 506 -161 506 -180.5 486.5 c 128,-1,2
 -200 467 -200 467 -228 467 c 256,3,4
 -256 467 -256 467 -275.5 486.5 c 128,-1,5
 -295 506 -295 506 -295 534 c 256,6,7
 -295 562 -295 562 -275.5 581.5 c 128,-1,8
 -256 601 -256 601 -228 601 c 256,9,10
 -200 601 -200 601 -180.5 581.5 c 128,-1,11
 -161 562 -161 562 -161 534 c 256,0,1
-201 534 m 256,12,13
 -201 545 -201 545 -209 553 c 128,-1,14
 -217 561 -217 561 -228 561 c 256,15,16
 -239 561 -239 561 -247 553 c 128,-1,17
 -255 545 -255 545 -255 534 c 256,18,19
 -255 523 -255 523 -247 515 c 128,-1,20
 -239 507 -239 507 -228 507 c 256,21,22
 -217 507 -217 507 -209 515 c 128,-1,23
 -201 523 -201 523 -201 534 c 256,12,13
227 153 m 2,24,25
 227 185 227 185 229.5 209 c 128,-1,26
 232 233 232 233 232 268 c 0,27,28
 232 301 232 301 222 319.5 c 128,-1,29
 212 338 212 338 198.5 347 c 128,-1,30
 185 356 185 356 172 358.5 c 128,-1,31
 159 361 159 361 153 361 c 0,32,33
 135 361 135 361 121.5 356.5 c 128,-1,34
 108 352 108 352 96 343 c 128,-1,35
 84 334 84 334 72.5 322 c 128,-1,36
 61 310 61 310 48 295 c 0,37,38
 46 292 46 292 40 294 c 128,-1,39
 34 296 34 296 26.5 301 c 128,-1,40
 19 306 19 306 12 313 c 128,-1,41
 5 320 5 320 0 326 c 1,42,43
 9 339 9 339 26 353 c 128,-1,44
 43 367 43 367 63.5 379 c 128,-1,45
 84 391 84 391 106 398.5 c 128,-1,46
 128 406 128 406 147 406 c 0,47,48
 175 406 175 406 201 399 c 128,-1,49
 227 392 227 392 247.5 377 c 128,-1,50
 268 362 268 362 280 337.5 c 128,-1,51
 292 313 292 313 292 278 c 0,52,53
 292 246 292 246 290 217.5 c 128,-1,54
 288 189 288 189 288 158 c 0,55,56
 288 147 288 147 288 126 c 128,-1,57
 288 105 288 105 289 82.5 c 128,-1,58
 290 60 290 60 291 41 c 128,-1,59
 292 22 292 22 293 14 c 0,60,61
 295 4 295 4 292.5 2 c 128,-1,62
 290 0 290 0 286 0 c 2,63,-1
 227 0 l 1,64,-1
 227 153 l 2,24,25
EndSplineSet
EndChar
StartChar: exclamdown
Encoding: 161 161 100
Width: 190
Flags: W
Fore
52 -154 m 1,0,-1
 67 216 l 1,1,-1
 125 216 l 1,2,-1
 138 -154 l 1,3,-1
 52 -154 l 1,0,-1
138 395 m 1,4,-1
 138 317 l 1,5,-1
 52 317 l 1,6,-1
 52 395 l 1,7,-1
 138 395 l 1,4,-1
EndSplineSet
EndChar
StartChar: cent
Encoding: 162 162 101
Width: 423
Flags: W
Fore
224 327 m 1,0,1
 216 329 216 329 209 331 c 128,-1,2
 202 333 202 333 194 333 c 0,3,4
 173 333 173 333 155 326.5 c 128,-1,5
 137 320 137 320 124.5 303.5 c 128,-1,6
 112 287 112 287 105 258 c 128,-1,7
 98 229 98 229 98 185 c 0,8,9
 98 133 98 133 107.5 104.5 c 128,-1,10
 117 76 117 76 134 58 c 1,11,-1
 224 327 l 1,0,1
165 43 m 1,12,13
 171 41 171 41 178.5 39.5 c 128,-1,14
 186 38 186 38 194 38 c 0,15,16
 217 38 217 38 232 42 c 128,-1,17
 247 46 247 46 257.5 54 c 128,-1,18
 268 62 268 62 275 74 c 128,-1,19
 282 86 282 86 288 103 c 1,20,-1
 331 82 l 1,21,22
 316 45 316 45 284 19 c 128,-1,23
 252 -7 252 -7 194 -7 c 0,24,25
 173 -7 173 -7 155 -2 c 1,26,-1
 129 -81 l 1,27,-1
 93 -81 l 1,28,-1
 123 10 l 1,29,30
 83 32 83 32 62.5 72.5 c 128,-1,31
 42 113 42 113 42 185 c 0,32,33
 42 238 42 238 53 274.5 c 128,-1,34
 64 311 64 311 84 333.5 c 128,-1,35
 104 356 104 356 132 366.5 c 128,-1,36
 160 377 160 377 194 377 c 0,37,38
 215 377 215 377 234 371 c 1,39,-1
 258 443 l 1,40,-1
 294 443 l 1,41,-1
 265 357 l 1,42,43
 285 344 285 344 299 325.5 c 128,-1,44
 313 307 313 307 321 281 c 1,45,-1
 279 261 l 1,46,47
 274 275 274 275 268.5 286.5 c 128,-1,48
 263 298 263 298 253 308 c 1,49,-1
 165 43 l 1,12,13
EndSplineSet
EndChar
StartChar: sterling
Encoding: 163 163 102
Width: 395
Flags: W
Fore
11 44 m 1,0,1
 36 53 36 53 51.5 67.5 c 128,-1,2
 67 82 67 82 75 100 c 128,-1,3
 83 118 83 118 86 138.5 c 128,-1,4
 89 159 89 159 89 181 c 0,5,6
 89 192 89 192 87.5 203.5 c 128,-1,7
 86 215 86 215 85 226 c 1,8,-1
 10 226 l 1,9,-1
 10 266 l 1,10,-1
 81 266 l 1,11,12
 79 292 79 292 75.5 312 c 128,-1,13
 72 332 72 332 72 357 c 0,14,15
 72 419 72 419 108.5 456 c 128,-1,16
 145 493 145 493 207 493 c 0,17,18
 265 493 265 493 302.5 459.5 c 128,-1,19
 340 426 340 426 350 369 c 1,20,-1
 303 351 l 1,21,22
 293 396 293 396 271 421.5 c 128,-1,23
 249 447 249 447 207 447 c 0,24,25
 171 447 171 447 150 423.5 c 128,-1,26
 129 400 129 400 129 355 c 0,27,28
 129 330 129 330 132.5 310 c 128,-1,29
 136 290 136 290 141 266 c 1,30,-1
 220 266 l 1,31,-1
 220 226 l 1,32,-1
 143 226 l 1,33,34
 145 218 145 218 145.5 208.5 c 128,-1,35
 146 199 146 199 146 190 c 0,36,37
 146 157 146 157 141 131.5 c 128,-1,38
 136 106 136 106 122 76 c 1,39,40
 146 61 146 61 168.5 49.5 c 128,-1,41
 191 38 191 38 220 38 c 0,42,43
 248 38 248 38 274 57 c 128,-1,44
 300 76 300 76 313 129 c 1,45,-1
 360 112 l 1,46,47
 349 55 349 55 316 24 c 128,-1,48
 283 -7 283 -7 227 -7 c 0,49,50
 203 -7 203 -7 185 -4 c 128,-1,51
 167 -1 167 -1 152 4.5 c 128,-1,52
 137 10 137 10 123.5 18 c 128,-1,53
 110 26 110 26 95 36 c 1,54,55
 81 18 81 18 57.5 8 c 128,-1,56
 34 -2 34 -2 11 -7 c 1,57,-1
 11 44 l 1,0,1
EndSplineSet
EndChar
StartChar: currency
Encoding: 164 164 103
Width: 423
Flags: W
Fore
400 404 m 1,0,-1
 359 363 l 1,1,2
 381 337 381 337 390.5 307 c 128,-1,3
 400 277 400 277 400 245 c 256,4,5
 400 213 400 213 390.5 182 c 128,-1,6
 381 151 381 151 359 126 c 1,7,-1
 400 85 l 1,8,-1
 371 56 l 1,9,-1
 329 97 l 1,10,11
 277 56 277 56 211 56 c 0,12,13
 179 56 179 56 149 66.5 c 128,-1,14
 119 77 119 77 94 97 c 1,15,-1
 51 56 l 1,16,-1
 23 85 l 1,17,-1
 64 126 l 1,18,19
 42 151 42 151 32.5 182 c 128,-1,20
 23 213 23 213 23 245 c 256,21,22
 23 277 23 277 32.5 307 c 128,-1,23
 42 337 42 337 64 363 c 1,24,-1
 23 404 l 1,25,-1
 51 433 l 1,26,-1
 94 391 l 1,27,28
 119 412 119 412 149 422.5 c 128,-1,29
 179 433 179 433 211 433 c 0,30,31
 278 433 278 433 329 391 c 1,32,-1
 371 433 l 1,33,-1
 400 404 l 1,0,-1
211 110 m 256,34,35
 238 110 238 110 262 121 c 128,-1,36
 286 132 286 132 304 150.5 c 128,-1,37
 322 169 322 169 332 193.5 c 128,-1,38
 342 218 342 218 342 245 c 256,39,40
 342 272 342 272 332 296.5 c 128,-1,41
 322 321 322 321 304 339.5 c 128,-1,42
 286 358 286 358 262 369 c 128,-1,43
 238 380 238 380 211 380 c 256,44,45
 184 380 184 380 160.5 369 c 128,-1,46
 137 358 137 358 119 339.5 c 128,-1,47
 101 321 101 321 91 296.5 c 128,-1,48
 81 272 81 272 81 245 c 256,49,50
 81 218 81 218 91 193.5 c 128,-1,51
 101 169 101 169 119 150.5 c 128,-1,52
 137 132 137 132 160.5 121 c 128,-1,53
 184 110 184 110 211 110 c 256,34,35
EndSplineSet
EndChar
StartChar: yen
Encoding: 165 165 104
Width: 406
Flags: W
Fore
351 255 m 1,0,-1
 258 255 l 1,1,-1
 232 206 l 1,2,-1
 232 197 l 1,3,-1
 351 197 l 1,4,-1
 351 157 l 1,5,-1
 232 157 l 1,6,-1
 232 0 l 1,7,-1
 169 0 l 1,8,-1
 169 157 l 1,9,-1
 49 157 l 1,10,-1
 49 197 l 1,11,-1
 169 197 l 1,12,-1
 169 206 l 1,13,-1
 144 255 l 1,14,-1
 49 255 l 1,15,-1
 49 296 l 1,16,-1
 125 296 l 1,17,-1
 25 486 l 1,18,-1
 87 486 l 1,19,-1
 199 263 l 1,20,-1
 320 486 l 1,21,-1
 381 486 l 1,22,-1
 277 296 l 1,23,-1
 351 296 l 1,24,-1
 351 255 l 1,0,-1
EndSplineSet
EndChar
StartChar: brokenbar
Encoding: 166 166 105
Width: 189
Flags: W
Fore
64 195 m 1,0,-1
 125 195 l 1,1,-1
 125 -8 l 1,2,-1
 64 -8 l 1,3,-1
 64 195 l 1,0,-1
64 497 m 1,4,-1
 125 497 l 1,5,-1
 125 294 l 1,6,-1
 64 294 l 1,7,-1
 64 497 l 1,4,-1
EndSplineSet
EndChar
StartChar: section
Encoding: 167 167 106
Width: 366
Flags: W
Fore
265 388 m 1,0,1
 251 416 251 416 232 432 c 128,-1,2
 213 448 213 448 188 448 c 0,3,4
 162 448 162 448 150.5 436 c 128,-1,5
 139 424 139 424 139 407 c 0,6,7
 139 391 139 391 152 377 c 128,-1,8
 165 363 165 363 185 348.5 c 128,-1,9
 205 334 205 334 227.5 318 c 128,-1,10
 250 302 250 302 270 282 c 128,-1,11
 290 262 290 262 303 237 c 128,-1,12
 316 212 316 212 316 180 c 0,13,14
 316 141 316 141 292 122 c 128,-1,15
 268 103 268 103 233 100 c 1,16,17
 250 80 250 80 262.5 63 c 128,-1,18
 275 46 275 46 275 19 c 0,19,20
 275 -4 275 -4 266.5 -19 c 128,-1,21
 258 -34 258 -34 244 -43.5 c 128,-1,22
 230 -53 230 -53 212 -57 c 128,-1,23
 194 -61 194 -61 174 -61 c 0,24,25
 156 -61 156 -61 138.5 -56 c 128,-1,26
 121 -51 121 -51 105 -41.5 c 128,-1,27
 89 -32 89 -32 77 -19 c 128,-1,28
 65 -6 65 -6 58 10 c 1,29,-1
 99 40 l 1,30,31
 109 16 109 16 131.5 -1 c 128,-1,32
 154 -18 154 -18 174 -18 c 0,33,34
 206 -18 206 -18 216.5 -4 c 128,-1,35
 227 10 227 10 227 24 c 256,36,37
 227 38 227 38 214 52.5 c 128,-1,38
 201 67 201 67 181 83 c 128,-1,39
 161 99 161 99 138.5 117 c 128,-1,40
 116 135 116 135 96 156.5 c 128,-1,41
 76 178 76 178 63 202.5 c 128,-1,42
 50 227 50 227 50 256 c 0,43,44
 50 293 50 293 75.5 310.5 c 128,-1,45
 101 328 101 328 138 328 c 1,46,-1
 140 330 l 1,47,48
 120 344 120 344 105.5 363.5 c 128,-1,49
 91 383 91 383 91 413 c 0,50,51
 91 452 91 452 116.5 472 c 128,-1,52
 142 492 142 492 187 492 c 0,53,54
 226 492 226 492 257 472 c 128,-1,55
 288 452 288 452 305 417 c 1,56,-1
 265 388 l 1,0,1
147 289 m 256,57,58
 130 289 130 289 118 280.5 c 128,-1,59
 106 272 106 272 106 259 c 0,60,61
 106 236 106 236 118.5 214.5 c 128,-1,62
 131 193 131 193 148.5 176 c 128,-1,63
 166 159 166 159 184.5 149 c 128,-1,64
 203 139 203 139 216 139 c 0,65,66
 240 139 240 139 250 150.5 c 128,-1,67
 260 162 260 162 260 178 c 0,68,69
 260 199 260 199 248.5 218.5 c 128,-1,70
 237 238 237 238 220 254 c 128,-1,71
 203 270 203 270 183.5 279.5 c 128,-1,72
 164 289 164 289 147 289 c 256,57,58
EndSplineSet
EndChar
StartChar: dieresis
Encoding: 168 168 107
Width: 209
Flags: W
Fore
70 529 m 1,0,-1
 70 447 l 1,1,-1
 0 447 l 1,2,-1
 0 529 l 1,3,-1
 70 529 l 1,0,-1
209 529 m 1,4,-1
 209 447 l 1,5,-1
 139 447 l 1,6,-1
 139 529 l 1,7,-1
 209 529 l 1,4,-1
EndSplineSet
EndChar
StartChar: copyright
Encoding: 169 169 108
Width: 608
Flags: W
Fore
269 493 m 256,0,1
 321 493 321 493 366.5 473 c 128,-1,2
 412 453 412 453 446 419 c 128,-1,3
 480 385 480 385 499.5 339.5 c 128,-1,4
 519 294 519 294 519 243 c 256,5,6
 519 192 519 192 499.5 146.5 c 128,-1,7
 480 101 480 101 446 67 c 128,-1,8
 412 33 412 33 366.5 13 c 128,-1,9
 321 -7 321 -7 269 -7 c 256,10,11
 217 -7 217 -7 171.5 13 c 128,-1,12
 126 33 126 33 92 67 c 128,-1,13
 58 101 58 101 38.5 146.5 c 128,-1,14
 19 192 19 192 19 243 c 256,15,16
 19 294 19 294 38.5 339.5 c 128,-1,17
 58 385 58 385 92 419 c 128,-1,18
 126 453 126 453 171.5 473 c 128,-1,19
 217 493 217 493 269 493 c 256,0,1
269 38 m 0,20,21
 312 38 312 38 348.5 54 c 128,-1,22
 385 70 385 70 412 98 c 128,-1,23
 439 126 439 126 454 163 c 128,-1,24
 469 200 469 200 469 243 c 256,25,26
 469 286 469 286 454 323.5 c 128,-1,27
 439 361 439 361 412 388.5 c 128,-1,28
 385 416 385 416 348.5 432 c 128,-1,29
 312 448 312 448 269 448 c 0,30,31
 227 448 227 448 190.5 432 c 128,-1,32
 154 416 154 416 127 388.5 c 128,-1,33
 100 361 100 361 84.5 323.5 c 128,-1,34
 69 286 69 286 69 243 c 256,35,36
 69 200 69 200 84.5 163 c 128,-1,37
 100 126 100 126 127 98 c 128,-1,38
 154 70 154 70 190.5 54 c 128,-1,39
 227 38 227 38 269 38 c 0,20,21
391 195 m 1,40,41
 386 174 386 174 378 155.5 c 128,-1,42
 370 137 370 137 356.5 123 c 128,-1,43
 343 109 343 109 323.5 101 c 128,-1,44
 304 93 304 93 277 93 c 0,45,46
 210 93 210 93 176.5 132.5 c 128,-1,47
 143 172 143 172 143 244 c 256,48,49
 143 316 143 316 175 354.5 c 128,-1,50
 207 393 207 393 274 393 c 0,51,52
 328 393 328 393 356.5 367.5 c 128,-1,53
 385 342 385 342 391 293 c 1,54,-1
 337 293 l 1,55,56
 332 321 332 321 318 336 c 128,-1,57
 304 351 304 351 275 351 c 0,58,59
 232 351 232 351 215.5 325.5 c 128,-1,60
 199 300 199 300 199 244 c 0,61,62
 199 190 199 190 217 162.5 c 128,-1,63
 235 135 235 135 277 135 c 0,64,65
 304 135 304 135 318 150.5 c 128,-1,66
 332 166 332 166 337 195 c 1,67,-1
 391 195 l 1,40,41
EndSplineSet
EndChar
StartChar: ordfeminine
Encoding: 170 170 109
Width: 228
Flags: W
Fore
21 504 m 1,0,1
 38 533 38 533 61 545 c 128,-1,2
 84 557 84 557 120 557 c 0,3,4
 163 557 163 557 182.5 539.5 c 128,-1,5
 202 522 202 522 202 484 c 2,6,-1
 202 365 l 2,7,8
 202 348 202 348 203 338.5 c 128,-1,9
 204 329 204 329 207 316 c 1,10,-1
 163 316 l 1,11,-1
 159 342 l 1,12,13
 147 332 147 332 128.5 322 c 128,-1,14
 110 312 110 312 81 312 c 0,15,16
 50 312 50 312 30 328 c 128,-1,17
 10 344 10 344 10 373 c 0,18,19
 10 403 10 403 25.5 420.5 c 128,-1,20
 41 438 41 438 63.5 448 c 128,-1,21
 86 458 86 458 111 463 c 128,-1,22
 136 468 136 468 154 473 c 1,23,-1
 154 492 l 2,24,25
 154 521 154 521 116 521 c 0,26,27
 99 521 99 521 84 514.5 c 128,-1,28
 69 508 69 508 55 488 c 1,29,-1
 21 504 l 1,0,1
154 436 m 1,30,31
 138 432 138 432 121 428.5 c 128,-1,32
 104 425 104 425 89.5 419 c 128,-1,33
 75 413 75 413 66 403.5 c 128,-1,34
 57 394 57 394 57 378 c 0,35,36
 57 364 57 364 66 356.5 c 128,-1,37
 75 349 75 349 86 349 c 0,38,39
 127 349 127 349 154 382 c 1,40,-1
 154 436 l 1,30,31
EndSplineSet
EndChar
StartChar: guillemotleft
Encoding: 171 171 110
Width: 380
Flags: W
Fore
242 200 m 1,0,-1
 317 81 l 1,1,-1
 248 81 l 1,2,-1
 175 200 l 1,3,-1
 248 314 l 1,4,-1
 317 314 l 1,5,-1
 242 200 l 1,0,-1
130 200 m 1,6,-1
 204 81 l 1,7,-1
 134 81 l 1,8,-1
 63 200 l 1,9,-1
 134 314 l 1,10,-1
 204 314 l 1,11,-1
 130 200 l 1,6,-1
EndSplineSet
EndChar
StartChar: logicalnot
Encoding: 172 172 111
Width: 456
Flags: W
Fore
365 243 m 1,0,-1
 30 243 l 1,1,-1
 30 295 l 1,2,-1
 426 295 l 1,3,-1
 426 101 l 1,4,-1
 365 101 l 1,5,-1
 365 243 l 1,0,-1
EndSplineSet
EndChar
StartChar: registered
Encoding: 174 174 112
Width: 608
Flags: W
Fore
235 101 m 1,0,-1
 182 101 l 1,1,-1
 182 384 l 1,2,-1
 290 384 l 2,3,4
 338 384 338 384 359.5 361.5 c 128,-1,5
 381 339 381 339 381 301 c 0,6,7
 381 264 381 264 360.5 243.5 c 128,-1,8
 340 223 340 223 316 218 c 1,9,-1
 385 101 l 1,10,-1
 328 101 l 1,11,-1
 270 218 l 1,12,-1
 235 218 l 1,13,-1
 235 101 l 1,0,-1
264 259 m 2,14,15
 278 259 278 259 289.5 259 c 128,-1,16
 301 259 301 259 309.5 262.5 c 128,-1,17
 318 266 318 266 323 275 c 128,-1,18
 328 284 328 284 328 302 c 0,19,20
 328 331 328 331 316 337 c 128,-1,21
 304 343 304 343 281 343 c 2,22,-1
 235 343 l 1,23,-1
 235 259 l 1,24,-1
 264 259 l 2,14,15
269 493 m 256,25,26
 321 493 321 493 366.5 473 c 128,-1,27
 412 453 412 453 446 419 c 128,-1,28
 480 385 480 385 499.5 339.5 c 128,-1,29
 519 294 519 294 519 243 c 256,30,31
 519 192 519 192 499.5 146.5 c 128,-1,32
 480 101 480 101 446 67 c 128,-1,33
 412 33 412 33 366.5 13 c 128,-1,34
 321 -7 321 -7 269 -7 c 256,35,36
 217 -7 217 -7 171.5 13 c 128,-1,37
 126 33 126 33 92 67 c 128,-1,38
 58 101 58 101 38.5 146.5 c 128,-1,39
 19 192 19 192 19 243 c 256,40,41
 19 294 19 294 38.5 339.5 c 128,-1,42
 58 385 58 385 92 419 c 128,-1,43
 126 453 126 453 171.5 473 c 128,-1,44
 217 493 217 493 269 493 c 256,25,26
269 38 m 0,45,46
 312 38 312 38 348.5 54 c 128,-1,47
 385 70 385 70 412 98 c 128,-1,48
 439 126 439 126 454 163 c 128,-1,49
 469 200 469 200 469 243 c 256,50,51
 469 286 469 286 454 323.5 c 128,-1,52
 439 361 439 361 412 388.5 c 128,-1,53
 385 416 385 416 348.5 432 c 128,-1,54
 312 448 312 448 269 448 c 0,55,56
 227 448 227 448 190.5 432 c 128,-1,57
 154 416 154 416 127 388.5 c 128,-1,58
 100 361 100 361 84.5 323.5 c 128,-1,59
 69 286 69 286 69 243 c 256,60,61
 69 200 69 200 84.5 163 c 128,-1,62
 100 126 100 126 127 98 c 128,-1,63
 154 70 154 70 190.5 54 c 128,-1,64
 227 38 227 38 269 38 c 0,45,46
EndSplineSet
EndChar
StartChar: macron
Encoding: 175 175 113
Width: 169
Flags: W
Fore
-29 513 m 1,0,-1
 197 513 l 1,1,-1
 197 459 l 1,2,-1
 -29 459 l 1,3,-1
 -29 513 l 1,0,-1
EndSplineSet
EndChar
StartChar: degree
Encoding: 176 176 114
Width: 304
Flags: W
Fore
152 513 m 256,0,1
 123 513 123 513 105 494 c 128,-1,2
 87 475 87 475 87 446 c 256,3,4
 87 417 87 417 105 398 c 128,-1,5
 123 379 123 379 152 379 c 256,6,7
 181 379 181 379 199 398 c 128,-1,8
 217 417 217 417 217 446 c 256,9,10
 217 475 217 475 199 494 c 128,-1,11
 181 513 181 513 152 513 c 256,0,1
152 557 m 256,12,13
 176 557 176 557 196 548 c 128,-1,14
 216 539 216 539 231 524 c 128,-1,15
 246 509 246 509 254.5 489 c 128,-1,16
 263 469 263 469 263 446 c 256,17,18
 263 423 263 423 254.5 402.5 c 128,-1,19
 246 382 246 382 231 367 c 128,-1,20
 216 352 216 352 196 343 c 128,-1,21
 176 334 176 334 152 334 c 256,22,23
 128 334 128 334 108 343 c 128,-1,24
 88 352 88 352 73 367 c 128,-1,25
 58 382 58 382 49.5 402.5 c 128,-1,26
 41 423 41 423 41 446 c 256,27,28
 41 469 41 469 49.5 489 c 128,-1,29
 58 509 58 509 73 524 c 128,-1,30
 88 539 88 539 108 548 c 128,-1,31
 128 557 128 557 152 557 c 256,12,13
EndSplineSet
EndChar
StartChar: plusminus
Encoding: 177 177 115
Width: 456
Flags: W
Fore
197 415 m 1,0,-1
 259 415 l 1,1,-1
 259 275 l 1,2,-1
 426 275 l 1,3,-1
 426 224 l 1,4,-1
 259 224 l 1,5,-1
 259 83 l 1,6,-1
 197 83 l 1,7,-1
 197 224 l 1,8,-1
 30 224 l 1,9,-1
 30 275 l 1,10,-1
 197 275 l 1,11,-1
 197 415 l 1,0,-1
30 51 m 1,12,-1
 426 51 l 1,13,-1
 426 0 l 1,14,-1
 30 0 l 1,15,-1
 30 51 l 1,12,-1
EndSplineSet
EndChar
StartChar: twosuperior
Encoding: 178 178 116
Width: 231
Flags: W
Fore
19 409 m 1,0,1
 27 449 27 449 54.5 471 c 128,-1,2
 82 493 82 493 124 493 c 256,3,4
 166 493 166 493 191 470 c 128,-1,5
 216 447 216 447 216 405 c 0,6,7
 216 384 216 384 207.5 367.5 c 128,-1,8
 199 351 199 351 185.5 338 c 128,-1,9
 172 325 172 325 155.5 314.5 c 128,-1,10
 139 304 139 304 123 295 c 0,11,12
 103 284 103 284 91.5 276 c 128,-1,13
 80 268 80 268 74.5 261 c 128,-1,14
 69 254 69 254 67.5 248.5 c 128,-1,15
 66 243 66 243 66 237 c 1,16,-1
 215 237 l 1,17,-1
 215 196 l 1,18,-1
 15 196 l 1,19,-1
 15 229 l 2,20,21
 15 242 15 242 17.5 254 c 128,-1,22
 20 266 20 266 27.5 277.5 c 128,-1,23
 35 289 35 289 49.5 300.5 c 128,-1,24
 64 312 64 312 87 324 c 0,25,26
 113 338 113 338 129 349 c 128,-1,27
 145 360 145 360 153 369.5 c 128,-1,28
 161 379 161 379 163.5 388.5 c 128,-1,29
 166 398 166 398 166 408 c 0,30,31
 166 425 166 425 155 439 c 128,-1,32
 144 453 144 453 126 453 c 0,33,34
 103 453 103 453 88 444 c 128,-1,35
 73 435 73 435 65 404 c 1,36,-1
 19 409 l 1,0,1
EndSplineSet
EndChar
StartChar: threesuperior
Encoding: 179 179 117
Width: 244
Flags: W
Fore
48 271 m 1,0,1
 63 253 63 253 81 242.5 c 128,-1,2
 99 232 99 232 123 232 c 0,3,4
 143 232 143 232 161 242 c 128,-1,5
 179 252 179 252 179 278 c 0,6,7
 179 309 179 309 164.5 320 c 128,-1,8
 150 331 150 331 109 331 c 2,9,-1
 80 331 l 1,10,-1
 80 371 l 1,11,-1
 104 371 l 2,12,13
 142 371 142 371 155.5 380.5 c 128,-1,14
 169 390 169 390 169 419 c 0,15,16
 169 439 169 439 159 446 c 128,-1,17
 149 453 149 453 126 453 c 0,18,19
 108 453 108 453 91.5 447.5 c 128,-1,20
 75 442 75 442 65 424 c 1,21,-1
 30 445 l 1,22,23
 49 471 49 471 74.5 482 c 128,-1,24
 100 493 100 493 129 493 c 0,25,26
 180 493 180 493 199.5 475.5 c 128,-1,27
 219 458 219 458 219 421 c 0,28,29
 219 396 219 396 210.5 379.5 c 128,-1,30
 202 363 202 363 174 352 c 1,31,32
 200 344 200 344 214.5 326.5 c 128,-1,33
 229 309 229 309 229 278 c 0,34,35
 229 193 229 193 121 193 c 0,36,37
 83 193 83 193 55.5 208 c 128,-1,38
 28 223 28 223 15 245 c 1,39,-1
 48 271 l 1,0,1
EndSplineSet
EndChar
StartChar: acute
Encoding: 180 180 118
Width: 169
Flags: W
Fore
180 544 m 1,0,-1
 85 439 l 1,1,-1
 36 439 l 1,2,-1
 101 544 l 1,3,-1
 180 544 l 1,0,-1
EndSplineSet
EndChar
StartChar: mu
Encoding: 181 181 119
Width: 423
Flags: W
Fore
360 395 m 1,0,-1
 360 0 l 1,1,-1
 294 0 l 1,2,-1
 294 53 l 1,3,4
 273 21 273 21 242 6.5 c 128,-1,5
 211 -8 211 -8 185 -8 c 0,6,7
 170 -8 170 -8 153.5 -4 c 128,-1,8
 137 0 137 0 128 10 c 1,9,-1
 128 -140 l 1,10,-1
 63 -140 l 1,11,-1
 63 395 l 1,12,-1
 128 395 l 1,13,-1
 128 130 l 2,14,15
 128 81 128 81 146.5 60 c 128,-1,16
 165 39 165 39 188 39 c 256,17,18
 211 39 211 39 237.5 54.5 c 128,-1,19
 264 70 264 70 294 105 c 1,20,-1
 294 395 l 1,21,-1
 360 395 l 1,0,-1
EndSplineSet
EndChar
StartChar: paragraph
Encoding: 182 182 120
Width: 380
Flags: W
Fore
169 256 m 1,0,1
 136 256 136 256 107.5 267.5 c 128,-1,2
 79 279 79 279 57.5 298.5 c 128,-1,3
 36 318 36 318 24 344 c 128,-1,4
 12 370 12 370 12 400 c 0,5,6
 12 472 12 472 56.5 510.5 c 128,-1,7
 101 549 101 549 181 549 c 2,8,-1
 382 549 l 1,9,-1
 382 505 l 1,10,-1
 345 505 l 1,11,-1
 345 -61 l 1,12,-1
 287 -61 l 1,13,-1
 287 505 l 1,14,-1
 227 505 l 1,15,-1
 227 -61 l 1,16,-1
 169 -61 l 1,17,-1
 169 256 l 1,0,1
EndSplineSet
EndChar
StartChar: periodcentered
Encoding: 183 183 121
Width: 211
Flags: W
Fore
105 244 m 0,0,1
 123 244 123 244 137 230.5 c 128,-1,2
 151 217 151 217 151 198 c 256,3,4
 151 179 151 179 137 165.5 c 128,-1,5
 123 152 123 152 105 152 c 0,6,7
 88 152 88 152 73.5 165.5 c 128,-1,8
 59 179 59 179 59 198 c 256,9,10
 59 217 59 217 73.5 230.5 c 128,-1,11
 88 244 88 244 105 244 c 0,0,1
EndSplineSet
EndChar
StartChar: cedilla
Encoding: 184 184 122
Width: 169
Flags: W
Fore
10 -116 m 1,0,1
 20 -119 20 -119 33 -123 c 128,-1,2
 46 -127 46 -127 55 -127 c 0,3,4
 81 -127 81 -127 93 -120.5 c 128,-1,5
 105 -114 105 -114 105 -97 c 256,6,7
 105 -80 105 -80 94.5 -73 c 128,-1,8
 84 -66 84 -66 71 -66 c 0,9,10
 52 -66 52 -66 38 -72 c 1,11,-1
 27 -63 l 1,12,-1
 72 0 l 1,13,-1
 101 0 l 1,14,-1
 68 -38 l 1,15,-1
 70 -40 l 1,16,17
 77 -35 77 -35 93 -35 c 0,18,19
 121 -35 121 -35 137 -52 c 128,-1,20
 153 -69 153 -69 153 -99 c 0,21,22
 153 -114 153 -114 145 -125 c 128,-1,23
 137 -136 137 -136 125 -143.5 c 128,-1,24
 113 -151 113 -151 99 -154.5 c 128,-1,25
 85 -158 85 -158 73 -158 c 0,26,27
 54 -158 54 -158 35.5 -154.5 c 128,-1,28
 17 -151 17 -151 0 -143 c 1,29,-1
 10 -116 l 1,0,1
EndSplineSet
EndChar
StartChar: onesuperior
Encoding: 185 185 123
Width: 263
Flags: W
Fore
62 196 m 1,0,-1
 62 237 l 1,1,-1
 108 237 l 1,2,-1
 108 449 l 1,3,-1
 55 436 l 1,4,-1
 55 470 l 1,5,-1
 116 493 l 1,6,-1
 159 493 l 1,7,-1
 159 237 l 1,8,-1
 208 237 l 1,9,-1
 208 196 l 1,10,-1
 62 196 l 1,0,-1
EndSplineSet
EndChar
StartChar: ordmasculine
Encoding: 186 186 124
Width: 207
Flags: W
Fore
58 384 m 256,0,1
 58 352 58 352 68 336.5 c 128,-1,2
 78 321 78 321 104 321 c 256,3,4
 130 321 130 321 140 336.5 c 128,-1,5
 150 352 150 352 150 384 c 256,6,7
 150 416 150 416 140 432 c 128,-1,8
 130 448 130 448 104 448 c 256,9,10
 78 448 78 448 68 432 c 128,-1,11
 58 416 58 416 58 384 c 256,0,1
104 493 m 256,12,13
 131 493 131 493 148.5 484 c 128,-1,14
 166 475 166 475 177 460 c 128,-1,15
 188 445 188 445 192.5 425 c 128,-1,16
 197 405 197 405 197 384 c 256,17,18
 197 363 197 363 192.5 343.5 c 128,-1,19
 188 324 188 324 177 309 c 128,-1,20
 166 294 166 294 148.5 285 c 128,-1,21
 131 276 131 276 104 276 c 256,22,23
 77 276 77 276 59 285 c 128,-1,24
 41 294 41 294 30 309 c 128,-1,25
 19 324 19 324 14.5 343.5 c 128,-1,26
 10 363 10 363 10 384 c 256,27,28
 10 405 10 405 14.5 425 c 128,-1,29
 19 445 19 445 30 460 c 128,-1,30
 41 475 41 475 59 484 c 128,-1,31
 77 493 77 493 104 493 c 256,12,13
EndSplineSet
EndChar
StartChar: guillemotright
Encoding: 187 187 125
Width: 380
Flags: W
Fore
138 196 m 1,0,-1
 63 314 l 1,1,-1
 132 314 l 1,2,-1
 205 196 l 1,3,-1
 132 81 l 1,4,-1
 63 81 l 1,5,-1
 138 196 l 1,0,-1
250 196 m 1,6,-1
 176 314 l 1,7,-1
 246 314 l 1,8,-1
 317 196 l 1,9,-1
 246 81 l 1,10,-1
 176 81 l 1,11,-1
 250 196 l 1,6,-1
EndSplineSet
EndChar
StartChar: onequarter
Encoding: 188 188 126
Width: 616
Flags: W
Fore
421 493 m 1,0,-1
 470 493 l 1,1,-1
 182 -7 l 1,2,-1
 133 -7 l 1,3,-1
 421 493 l 1,0,-1
62 196 m 1,4,-1
 62 237 l 1,5,-1
 108 237 l 1,6,-1
 108 449 l 1,7,-1
 55 436 l 1,8,-1
 55 470 l 1,9,-1
 116 493 l 1,10,-1
 159 493 l 1,11,-1
 159 237 l 1,12,-1
 208 237 l 1,13,-1
 208 196 l 1,14,-1
 62 196 l 1,4,-1
378 104 m 1,15,-1
 462 104 l 1,16,-1
 462 231 l 1,17,-1
 460 231 l 1,18,-1
 378 104 l 1,15,-1
332 108 m 1,19,-1
 453 292 l 1,20,-1
 513 292 l 1,21,-1
 513 104 l 1,22,-1
 556 104 l 1,23,-1
 556 65 l 1,24,-1
 513 65 l 1,25,-1
 513 0 l 1,26,-1
 462 0 l 1,27,-1
 462 65 l 1,28,-1
 332 65 l 1,29,-1
 332 108 l 1,19,-1
EndSplineSet
Ligature: 0 0 'frac' one fraction four
Ligature: 0 0 'frac' one slash four
EndChar
StartChar: onehalf
Encoding: 189 189 127
Width: 613
Flags: W
Fore
413 493 m 1,0,-1
 461 493 l 1,1,-1
 174 -7 l 1,2,-1
 124 -7 l 1,3,-1
 413 493 l 1,0,-1
62 196 m 1,4,-1
 62 237 l 1,5,-1
 108 237 l 1,6,-1
 108 449 l 1,7,-1
 55 436 l 1,8,-1
 55 470 l 1,9,-1
 116 493 l 1,10,-1
 159 493 l 1,11,-1
 159 237 l 1,12,-1
 208 237 l 1,13,-1
 208 196 l 1,14,-1
 62 196 l 1,4,-1
356 213 m 1,15,16
 364 253 364 253 391.5 275 c 128,-1,17
 419 297 419 297 461 297 c 256,18,19
 503 297 503 297 528 274 c 128,-1,20
 553 251 553 251 553 209 c 0,21,22
 553 188 553 188 544.5 171.5 c 128,-1,23
 536 155 536 155 522.5 142 c 128,-1,24
 509 129 509 129 492.5 118.5 c 128,-1,25
 476 108 476 108 460 99 c 0,26,27
 440 88 440 88 428.5 80 c 128,-1,28
 417 72 417 72 411.5 65 c 128,-1,29
 406 58 406 58 404.5 52.5 c 128,-1,30
 403 47 403 47 403 41 c 1,31,-1
 552 41 l 1,32,-1
 552 0 l 1,33,-1
 352 0 l 1,34,-1
 352 33 l 2,35,36
 352 46 352 46 354.5 58 c 128,-1,37
 357 70 357 70 364.5 81.5 c 128,-1,38
 372 93 372 93 386.5 104.5 c 128,-1,39
 401 116 401 116 424 128 c 0,40,41
 450 142 450 142 466 153 c 128,-1,42
 482 164 482 164 490 173.5 c 128,-1,43
 498 183 498 183 500.5 192.5 c 128,-1,44
 503 202 503 202 503 212 c 0,45,46
 503 229 503 229 492 243 c 128,-1,47
 481 257 481 257 463 257 c 0,48,49
 440 257 440 257 425 248 c 128,-1,50
 410 239 410 239 402 208 c 1,51,-1
 356 213 l 1,15,16
EndSplineSet
Ligature: 0 0 'frac' one fraction two
Ligature: 0 0 'frac' one slash two
EndChar
StartChar: threequarters
Encoding: 190 190 128
Width: 615
Flags: W
Fore
378 104 m 1,0,-1
 462 104 l 1,1,-1
 462 231 l 1,2,-1
 460 231 l 1,3,-1
 378 104 l 1,0,-1
332 108 m 1,4,-1
 453 292 l 1,5,-1
 513 292 l 1,6,-1
 513 104 l 1,7,-1
 555 104 l 1,8,-1
 555 65 l 1,9,-1
 513 65 l 1,10,-1
 513 0 l 1,11,-1
 462 0 l 1,12,-1
 462 65 l 1,13,-1
 332 65 l 1,14,-1
 332 108 l 1,4,-1
431 493 m 1,15,-1
 479 493 l 1,16,-1
 193 -7 l 1,17,-1
 143 -7 l 1,18,-1
 431 493 l 1,15,-1
53 271 m 1,19,20
 68 253 68 253 86 242.5 c 128,-1,21
 104 232 104 232 128 232 c 0,22,23
 148 232 148 232 166 242 c 128,-1,24
 184 252 184 252 184 278 c 0,25,26
 184 309 184 309 169.5 320 c 128,-1,27
 155 331 155 331 114 331 c 2,28,-1
 85 331 l 1,29,-1
 85 371 l 1,30,-1
 109 371 l 2,31,32
 147 371 147 371 160.5 380.5 c 128,-1,33
 174 390 174 390 174 419 c 0,34,35
 174 439 174 439 164 446 c 128,-1,36
 154 453 154 453 131 453 c 0,37,38
 113 453 113 453 96.5 447.5 c 128,-1,39
 80 442 80 442 70 424 c 1,40,-1
 35 445 l 1,41,42
 54 471 54 471 79.5 482 c 128,-1,43
 105 493 105 493 134 493 c 0,44,45
 185 493 185 493 204.5 475.5 c 128,-1,46
 224 458 224 458 224 421 c 0,47,48
 224 396 224 396 215.5 379.5 c 128,-1,49
 207 363 207 363 179 352 c 1,50,51
 205 344 205 344 219.5 326.5 c 128,-1,52
 234 309 234 309 234 278 c 0,53,54
 234 193 234 193 126 193 c 0,55,56
 88 193 88 193 60.5 208 c 128,-1,57
 33 223 33 223 20 245 c 1,58,-1
 53 271 l 1,19,20
EndSplineSet
Ligature: 0 0 'frac' three fraction four
Ligature: 0 0 'frac' three slash four
EndChar
StartChar: questiondown
Encoding: 191 191 129
Width: 295
Flags: W
Fore
321 -62 m 1,0,1
 304 -108 304 -108 261.5 -135 c 128,-1,2
 219 -162 219 -162 166 -162 c 0,3,4
 136 -162 136 -162 110 -153.5 c 128,-1,5
 84 -145 84 -145 64.5 -128.5 c 128,-1,6
 45 -112 45 -112 34 -87 c 128,-1,7
 23 -62 23 -62 23 -30 c 0,8,9
 23 11 23 11 43 38.5 c 128,-1,10
 63 66 63 66 87 89 c 128,-1,11
 111 112 111 112 131 134.5 c 128,-1,12
 151 157 151 157 151 187 c 2,13,-1
 151 226 l 1,14,-1
 224 226 l 1,15,-1
 224 187 l 2,16,17
 224 148 224 148 204 122 c 128,-1,18
 184 96 184 96 160 72.5 c 128,-1,19
 136 49 136 49 116 23 c 128,-1,20
 96 -3 96 -3 96 -41 c 0,21,22
 96 -64 96 -64 114.5 -83.5 c 128,-1,23
 133 -103 133 -103 167 -103 c 0,24,25
 187 -103 187 -103 202.5 -96.5 c 128,-1,26
 218 -90 218 -90 229 -80 c 128,-1,27
 240 -70 240 -70 247.5 -57.5 c 128,-1,28
 255 -45 255 -45 260 -32 c 1,29,-1
 321 -62 l 1,0,1
240 394 m 1,30,-1
 240 311 l 1,31,-1
 140 311 l 1,32,-1
 140 394 l 1,33,-1
 240 394 l 1,30,-1
EndSplineSet
EndChar
StartChar: AE
Encoding: 198 198 136
Width: 649
Flags: W
Fore
413 52 m 1,0,-1
 626 52 l 1,1,-1
 626 0 l 1,2,-1
 348 0 l 1,3,-1
 348 131 l 1,4,-1
 166 131 l 1,5,-1
 99 0 l 1,6,-1
 20 0 l 1,7,-1
 289 486 l 1,8,-1
 629 486 l 1,9,-1
 629 434 l 1,10,-1
 413 434 l 1,11,-1
 413 280 l 1,12,-1
 599 280 l 1,13,-1
 599 228 l 1,14,-1
 413 228 l 1,15,-1
 413 52 l 1,0,-1
348 185 m 1,16,-1
 348 435 l 1,17,-1
 322 435 l 1,18,-1
 187 185 l 1,19,-1
 348 185 l 1,16,-1
EndSplineSet
EndChar
StartChar: Eth
Encoding: 208 208 146
Width: 467
Flags: W
Fore
-20 222 m 1,0,-1
 -20 272 l 1,1,-1
 60 272 l 1,2,-1
 60 486 l 1,3,-1
 241 486 l 2,4,5
 294 486 294 486 330 470.5 c 128,-1,6
 366 455 366 455 387.5 423.5 c 128,-1,7
 409 392 409 392 418 345 c 128,-1,8
 427 298 427 298 427 236 c 0,9,10
 427 178 427 178 418 133.5 c 128,-1,11
 409 89 409 89 387.5 59.5 c 128,-1,12
 366 30 366 30 330 15 c 128,-1,13
 294 0 294 0 241 0 c 2,14,-1
 60 0 l 1,15,-1
 60 222 l 1,16,-1
 -20 222 l 1,0,-1
261 272 m 1,17,-1
 261 222 l 1,18,-1
 130 222 l 1,19,-1
 130 52 l 1,20,-1
 241 52 l 2,21,22
 276 52 276 52 298.5 62 c 128,-1,23
 321 72 321 72 334 93.5 c 128,-1,24
 347 115 347 115 352 150 c 128,-1,25
 357 185 357 185 357 236 c 0,26,27
 357 292 357 292 352 329.5 c 128,-1,28
 347 367 347 367 334 390.5 c 128,-1,29
 321 414 321 414 298.5 424 c 128,-1,30
 276 434 276 434 241 434 c 2,31,-1
 130 434 l 1,32,-1
 130 272 l 1,33,-1
 261 272 l 1,17,-1
EndSplineSet
EndChar
StartChar: multiply
Encoding: 215 215 153
Width: 384
Flags: W
Fore
224 211 m 1,0,-1
 362 73 l 1,1,-1
 325 36 l 1,2,-1
 187 174 l 1,3,-1
 49 36 l 1,4,-1
 12 73 l 1,5,-1
 150 211 l 1,6,-1
 12 350 l 1,7,-1
 49 387 l 1,8,-1
 187 248 l 1,9,-1
 325 387 l 1,10,-1
 362 350 l 1,11,-1
 224 211 l 1,0,-1
EndSplineSet
EndChar
StartChar: Oslash
Encoding: 216 216 154
Width: 472
Flags: W
Fore
46 -60 m 1,0,-1
 2 -60 l 1,1,-1
 80 63 l 1,2,3
 59 94 59 94 49.5 137 c 128,-1,4
 40 180 40 180 40 237 c 0,5,6
 40 362 40 362 84.5 425.5 c 128,-1,7
 129 489 129 489 236 489 c 0,8,9
 297 489 297 489 337 468 c 1,10,-1
 395 556 l 1,11,-1
 445 556 l 1,12,-1
 371 444 l 1,13,14
 403 412 403 412 417.5 360.5 c 128,-1,15
 432 309 432 309 432 237 c 0,16,17
 432 179 432 179 421.5 133.5 c 128,-1,18
 411 88 411 88 387.5 57 c 128,-1,19
 364 26 364 26 326.5 10 c 128,-1,20
 289 -6 289 -6 236 -6 c 0,21,22
 193 -6 193 -6 161 4 c 128,-1,23
 129 14 129 14 106 34 c 1,24,-1
 46 -60 l 1,0,-1
236 51 m 0,25,26
 271 51 271 51 294.5 61 c 128,-1,27
 318 71 318 71 332.5 93.5 c 128,-1,28
 347 116 347 116 353.5 151 c 128,-1,29
 360 186 360 186 360 237 c 0,30,31
 360 267 360 267 358.5 289 c 128,-1,32
 357 311 357 311 353.5 329 c 128,-1,33
 350 347 350 347 345.5 362 c 128,-1,34
 341 377 341 377 335 393 c 1,35,-1
 142 84 l 1,36,37
 159 67 159 67 179.5 59 c 128,-1,38
 200 51 200 51 236 51 c 0,25,26
236 434 m 0,39,40
 201 434 201 434 177 424 c 128,-1,41
 153 414 153 414 138.5 391 c 128,-1,42
 124 368 124 368 118 330.5 c 128,-1,43
 112 293 112 293 112 237 c 0,44,45
 112 196 112 196 115 165.5 c 128,-1,46
 118 135 118 135 120 119 c 1,47,-1
 303 419 l 1,48,49
 288 427 288 427 274 430.5 c 128,-1,50
 260 434 260 434 236 434 c 0,39,40
EndSplineSet
EndChar
StartChar: Thorn
Encoding: 222 222 160
Width: 465
Flags: W
Fore
146 0 m 1,0,-1
 76 0 l 1,1,-1
 76 549 l 1,2,-1
 146 549 l 1,3,-1
 146 435 l 1,4,-1
 261 435 l 2,5,6
 310 435 310 435 342.5 424 c 128,-1,7
 375 413 375 413 394 393 c 128,-1,8
 413 373 413 373 420.5 345 c 128,-1,9
 428 317 428 317 428 282 c 0,10,11
 428 248 428 248 420.5 219.5 c 128,-1,12
 413 191 413 191 394 171 c 128,-1,13
 375 151 375 151 342.5 140 c 128,-1,14
 310 129 310 129 261 129 c 2,15,-1
 146 129 l 1,16,-1
 146 0 l 1,0,-1
146 180 m 1,17,-1
 261 180 l 2,18,19
 297 180 297 180 316.5 186 c 128,-1,20
 336 192 336 192 345 204 c 128,-1,21
 354 216 354 216 355.5 235.5 c 128,-1,22
 357 255 357 255 357 282 c 256,23,24
 357 309 357 309 355.5 328 c 128,-1,25
 354 347 354 347 345 359.5 c 128,-1,26
 336 372 336 372 316.5 377.5 c 128,-1,27
 297 383 297 383 261 383 c 2,28,-1
 146 383 l 1,29,-1
 146 180 l 1,17,-1
EndSplineSet
EndChar
StartChar: germandbls
Encoding: 223 223 161
Width: 380
Flags: W
Fore
58 0 m 1,0,-1
 58 355 l 2,1,2
 58 420 58 420 91 454.5 c 128,-1,3
 124 489 124 489 192 489 c 0,4,5
 250 489 250 489 286 455 c 128,-1,6
 322 421 322 421 322 363 c 0,7,8
 322 288 322 288 253 254 c 1,9,10
 304 238 304 238 330 207.5 c 128,-1,11
 356 177 356 177 356 123 c 0,12,13
 356 49 356 49 322.5 20.5 c 128,-1,14
 289 -8 289 -8 226 -8 c 0,15,16
 210 -8 210 -8 190.5 -3 c 128,-1,17
 171 2 171 2 157 10 c 1,18,-1
 178 59 l 1,19,20
 189 53 189 53 202 48.5 c 128,-1,21
 215 44 215 44 229 44 c 0,22,23
 253 44 253 44 272 62 c 128,-1,24
 291 80 291 80 291 127 c 0,25,26
 291 143 291 143 285 160 c 128,-1,27
 279 177 279 177 265.5 191.5 c 128,-1,28
 252 206 252 206 229.5 215 c 128,-1,29
 207 224 207 224 173 224 c 1,30,-1
 173 270 l 1,31,32
 197 271 197 271 213 275.5 c 128,-1,33
 229 280 229 280 238.5 290.5 c 128,-1,34
 248 301 248 301 252 319 c 128,-1,35
 256 337 256 337 256 365 c 0,36,37
 256 388 256 388 250.5 402 c 128,-1,38
 245 416 245 416 235.5 424 c 128,-1,39
 226 432 226 432 213 434.5 c 128,-1,40
 200 437 200 437 184 437 c 0,41,42
 152 437 152 437 138 416.5 c 128,-1,43
 124 396 124 396 124 358 c 2,44,-1
 124 0 l 1,45,-1
 58 0 l 1,0,-1
EndSplineSet
EndChar
StartChar: ae
Encoding: 230 230 168
Width: 623
Flags: W
Fore
326 191 m 1,0,1
 326 157 326 157 331.5 129 c 128,-1,2
 337 101 337 101 349.5 81 c 128,-1,3
 362 61 362 61 382.5 50 c 128,-1,4
 403 39 403 39 433 39 c 0,5,6
 452 39 452 39 467.5 42 c 128,-1,7
 483 45 483 45 496 53.5 c 128,-1,8
 509 62 509 62 520.5 76.5 c 128,-1,9
 532 91 532 91 543 114 c 1,10,-1
 585 89 l 1,11,12
 561 36 561 36 523.5 14 c 128,-1,13
 486 -8 486 -8 429 -8 c 0,14,15
 383 -8 383 -8 353 11.5 c 128,-1,16
 323 31 323 31 301 67 c 1,17,18
 283 48 283 48 266.5 34 c 128,-1,19
 250 20 250 20 231 10.5 c 128,-1,20
 212 1 212 1 189.5 -3.5 c 128,-1,21
 167 -8 167 -8 138 -8 c 0,22,23
 115 -8 115 -8 94 -1 c 128,-1,24
 73 6 73 6 56.5 20.5 c 128,-1,25
 40 35 40 35 30 56.5 c 128,-1,26
 20 78 20 78 20 106 c 0,27,28
 20 146 20 146 34 172 c 128,-1,29
 48 198 48 198 78 213 c 128,-1,30
 108 228 108 228 154 234 c 128,-1,31
 200 240 200 240 263 240 c 1,32,-1
 263 287 l 2,33,34
 263 327 263 327 240.5 342 c 128,-1,35
 218 357 218 357 182 357 c 0,36,37
 147 357 147 357 121 338 c 128,-1,38
 95 319 95 319 72 285 c 1,39,-1
 32 314 l 1,40,41
 62 362 62 362 102.5 382.5 c 128,-1,42
 143 403 143 403 184 403 c 0,43,44
 234 403 234 403 263.5 384 c 128,-1,45
 293 365 293 365 306 332 c 1,46,47
 326 362 326 362 354.5 382.5 c 128,-1,48
 383 403 383 403 428 403 c 0,49,50
 476 403 476 403 505.5 387 c 128,-1,51
 535 371 535 371 552 342.5 c 128,-1,52
 569 314 569 314 575 275.5 c 128,-1,53
 581 237 581 237 581 191 c 1,54,-1
 326 191 l 1,0,1
261 193 m 1,55,56
 195 193 195 193 158.5 186.5 c 128,-1,57
 122 180 122 180 105 168.5 c 128,-1,58
 88 157 88 157 85 141 c 128,-1,59
 82 125 82 125 82 107 c 0,60,61
 82 39 82 39 146 39 c 0,62,63
 177 39 177 39 206 51.5 c 128,-1,64
 235 64 235 64 261 94 c 1,65,-1
 261 193 l 1,55,56
525 238 m 1,66,67
 522 268 522 268 517.5 290.5 c 128,-1,68
 513 313 513 313 502.5 328 c 128,-1,69
 492 343 492 343 474 350 c 128,-1,70
 456 357 456 357 426 357 c 0,71,72
 404 357 404 357 385.5 347 c 128,-1,73
 367 337 367 337 354 320.5 c 128,-1,74
 341 304 341 304 333.5 282.5 c 128,-1,75
 326 261 326 261 326 238 c 1,76,-1
 525 238 l 1,66,67
EndSplineSet
EndChar
StartChar: eth
Encoding: 240 240 178
Width: 360
Flags: W
Fore
180 297 m 256,0,1
 153 297 153 297 136 287.5 c 128,-1,2
 119 278 119 278 109.5 261 c 128,-1,3
 100 244 100 244 96.5 220.5 c 128,-1,4
 93 197 93 197 93 168 c 256,5,6
 93 139 93 139 96.5 115 c 128,-1,7
 100 91 100 91 109.5 74 c 128,-1,8
 119 57 119 57 136 48 c 128,-1,9
 153 39 153 39 180 39 c 256,10,11
 207 39 207 39 224 48 c 128,-1,12
 241 57 241 57 250.5 74 c 128,-1,13
 260 91 260 91 263.5 115 c 128,-1,14
 267 139 267 139 267 168 c 256,15,16
 267 197 267 197 263.5 220.5 c 128,-1,17
 260 244 260 244 250.5 261 c 128,-1,18
 241 278 241 278 224 287.5 c 128,-1,19
 207 297 207 297 180 297 c 256,0,1
153 489 m 1,20,21
 167 479 167 479 180.5 469 c 128,-1,22
 194 459 194 459 206 448 c 1,23,-1
 283 489 l 1,24,-1
 305 459 l 1,25,-1
 234 421 l 1,26,27
 264 390 264 390 283 360 c 128,-1,28
 302 330 302 330 313 299.5 c 128,-1,29
 324 269 324 269 328 236.5 c 128,-1,30
 332 204 332 204 332 168 c 0,31,32
 332 87 332 87 295 39.5 c 128,-1,33
 258 -8 258 -8 180 -8 c 256,34,35
 102 -8 102 -8 65 39.5 c 128,-1,36
 28 87 28 87 28 168 c 256,37,38
 28 249 28 249 65 296 c 128,-1,39
 102 343 102 343 180 343 c 0,40,41
 203 343 203 343 216.5 338.5 c 128,-1,42
 230 334 230 334 245 326 c 1,43,-1
 247 328 l 1,44,45
 236 347 236 347 218.5 366 c 128,-1,46
 201 385 201 385 185 402 c 1,47,-1
 108 361 l 1,48,-1
 86 391 l 1,49,-1
 157 428 l 1,50,51
 145 440 145 440 131.5 450 c 128,-1,52
 118 460 118 460 102 469 c 1,53,-1
 153 489 l 1,20,21
EndSplineSet
EndChar
StartChar: divide
Encoding: 247 247 185
Width: 384
Flags: W
Fore
26 179 m 1,0,-1
 26 234 l 1,1,-1
 358 234 l 1,2,-1
 358 179 l 1,3,-1
 26 179 l 1,0,-1
192 399 m 256,4,5
 210 399 210 399 223 386 c 128,-1,6
 236 373 236 373 236 356 c 0,7,8
 236 338 236 338 223 325 c 128,-1,9
 210 312 210 312 192 312 c 256,10,11
 174 312 174 312 161 325 c 128,-1,12
 148 338 148 338 148 356 c 0,13,14
 148 373 148 373 161 386 c 128,-1,15
 174 399 174 399 192 399 c 256,4,5
192 101 m 256,16,17
 210 101 210 101 223 88 c 128,-1,18
 236 75 236 75 236 57 c 0,19,20
 236 40 236 40 223 27 c 128,-1,21
 210 14 210 14 192 14 c 256,22,23
 174 14 174 14 161 27 c 128,-1,24
 148 40 148 40 148 57 c 0,25,26
 148 75 148 75 161 88 c 128,-1,27
 174 101 174 101 192 101 c 256,16,17
EndSplineSet
EndChar
StartChar: oslash
Encoding: 248 248 186
Width: 380
Flags: W
Fore
252 336 m 1,0,1
 239 347 239 347 226 352 c 128,-1,2
 213 357 213 357 190 357 c 0,3,4
 156 357 156 357 136.5 347 c 128,-1,5
 117 337 117 337 107 317.5 c 128,-1,6
 97 298 97 298 95 268 c 128,-1,7
 93 238 93 238 93 198 c 0,8,9
 93 161 93 161 96 137 c 128,-1,10
 99 113 99 113 102 91 c 1,11,-1
 252 336 l 1,0,1
124 62 m 1,12,13
 138 51 138 51 151.5 45 c 128,-1,14
 165 39 165 39 190 39 c 0,15,16
 225 39 225 39 244 48.5 c 128,-1,17
 263 58 263 58 273 78 c 128,-1,18
 283 98 283 98 285 128 c 128,-1,19
 287 158 287 158 287 198 c 0,20,21
 287 236 287 236 283.5 261.5 c 128,-1,22
 280 287 280 287 275 308 c 1,23,-1
 124 62 l 1,12,13
43 -60 m 1,24,-1
 2 -60 l 1,25,-1
 67 42 l 1,26,27
 46 68 46 68 37 107.5 c 128,-1,28
 28 147 28 147 28 198 c 0,29,30
 28 246 28 246 36 284 c 128,-1,31
 44 322 44 322 63 348.5 c 128,-1,32
 82 375 82 375 113 389 c 128,-1,33
 144 403 144 403 190 403 c 0,34,35
 247 403 247 403 284 380 c 1,36,-1
 339 466 l 1,37,-1
 380 466 l 1,38,-1
 310 357 l 1,39,40
 333 331 333 331 342.5 290.5 c 128,-1,41
 352 250 352 250 352 198 c 0,42,43
 352 150 352 150 344 112 c 128,-1,44
 336 74 336 74 317.5 47 c 128,-1,45
 299 20 299 20 268 6 c 128,-1,46
 237 -8 237 -8 190 -8 c 0,47,48
 158 -8 158 -8 134 -1.5 c 128,-1,49
 110 5 110 5 92 17 c 1,50,-1
 43 -60 l 1,24,-1
EndSplineSet
EndChar
StartChar: thorn
Encoding: 254 254 192
Width: 423
Flags: W
Fore
70 549 m 1,0,-1
 136 549 l 1,1,-1
 136 359 l 1,2,-1
 137 359 l 1,3,4
 155 374 155 374 184 388.5 c 128,-1,5
 213 403 213 403 252 403 c 0,6,7
 287 403 287 403 313.5 393 c 128,-1,8
 340 383 340 383 358 359 c 128,-1,9
 376 335 376 335 385.5 295 c 128,-1,10
 395 255 395 255 395 196 c 0,11,12
 395 133 395 133 384 93.5 c 128,-1,13
 373 54 373 54 354.5 31.5 c 128,-1,14
 336 9 336 9 311 0.5 c 128,-1,15
 286 -8 286 -8 259 -8 c 0,16,17
 227 -8 227 -8 192.5 2 c 128,-1,18
 158 12 158 12 136 36 c 1,19,-1
 136 -140 l 1,20,-1
 70 -140 l 1,21,-1
 70 549 l 1,0,-1
136 100 m 1,22,23
 142 90 142 90 153.5 79 c 128,-1,24
 165 68 165 68 180 59 c 128,-1,25
 195 50 195 50 212.5 44.5 c 128,-1,26
 230 39 230 39 247 39 c 0,27,28
 287 39 287 39 308.5 80 c 128,-1,29
 330 121 330 121 330 203 c 0,30,31
 330 234 330 234 327 262 c 128,-1,32
 324 290 324 290 315.5 311 c 128,-1,33
 307 332 307 332 291 344.5 c 128,-1,34
 275 357 275 357 249 357 c 0,35,36
 211 357 211 357 180.5 337.5 c 128,-1,37
 150 318 150 318 136 295 c 1,38,-1
 136 100 l 1,22,23
EndSplineSet
EndChar
StartChar: dotlessi
Encoding: 305 305 194
Width: 169
Flags: W
Fore
117 0 m 1,0,-1
 52 0 l 1,1,-1
 52 395 l 1,2,-1
 117 395 l 1,3,-1
 117 0 l 1,0,-1
EndSplineSet
EndChar
StartChar: Lslash
Encoding: 321 321 195
Width: 380
Flags: W
Fore
146 267 m 1,0,-1
 146 51 l 1,1,-1
 371 51 l 1,2,-1
 371 0 l 1,3,-1
 76 0 l 1,4,-1
 76 236 l 1,5,-1
 12 210 l 1,6,-1
 12 268 l 1,7,-1
 76 294 l 1,8,-1
 76 549 l 1,9,-1
 146 549 l 1,10,-1
 146 324 l 1,11,-1
 276 376 l 1,12,-1
 276 318 l 1,13,-1
 146 267 l 1,0,-1
EndSplineSet
EndChar
StartChar: lslash
Encoding: 322 322 196
Width: 189
Flags: W
Fore
127 0 m 1,0,-1
 62 0 l 1,1,-1
 62 244 l 1,2,-1
 1 212 l 1,3,-1
 1 271 l 1,4,-1
 62 302 l 1,5,-1
 62 549 l 1,6,-1
 127 549 l 1,7,-1
 127 326 l 1,8,-1
 188 357 l 1,9,-1
 188 299 l 1,10,-1
 127 267 l 1,11,-1
 127 0 l 1,0,-1
EndSplineSet
EndChar
StartChar: OE
Encoding: 338 338 197
Width: 658
Flags: W
Fore
352 424 m 1,0,1
 333 428 333 428 300.5 431.5 c 128,-1,2
 268 435 268 435 236 435 c 0,3,4
 201 435 201 435 177 425 c 128,-1,5
 153 415 153 415 138 391.5 c 128,-1,6
 123 368 123 368 116.5 330.5 c 128,-1,7
 110 293 110 293 110 237 c 0,8,9
 110 136 110 136 138 93 c 128,-1,10
 166 50 166 50 236 50 c 0,11,12
 268 50 268 50 301.5 54 c 128,-1,13
 335 58 335 58 352 65 c 1,14,-1
 352 424 l 1,0,1
638 434 m 1,15,-1
 422 434 l 1,16,-1
 422 280 l 1,17,-1
 608 280 l 1,18,-1
 608 228 l 1,19,-1
 422 228 l 1,20,-1
 422 52 l 1,21,-1
 635 52 l 1,22,-1
 635 0 l 1,23,-1
 352 0 l 2,24,25
 339 0 339 0 306.5 -3 c 128,-1,26
 274 -6 274 -6 236 -6 c 0,27,28
 130 -6 130 -6 85 57 c 128,-1,29
 40 120 40 120 40 237 c 0,30,31
 40 362 40 362 84.5 425.5 c 128,-1,32
 129 489 129 489 236 489 c 0,33,34
 265 489 265 489 298.5 487.5 c 128,-1,35
 332 486 332 486 352 486 c 2,36,-1
 638 486 l 1,37,-1
 638 434 l 1,15,-1
EndSplineSet
EndChar
StartChar: oe
Encoding: 339 339 198
Width: 633
Flags: W
Fore
93 198 m 0,0,1
 93 158 93 158 97 128 c 128,-1,2
 101 98 101 98 112 78 c 128,-1,3
 123 58 123 58 141.5 48.5 c 128,-1,4
 160 39 160 39 190 39 c 0,5,6
 245 39 245 39 265.5 78 c 128,-1,7
 286 117 286 117 286 198 c 256,8,9
 286 279 286 279 265.5 318 c 128,-1,10
 245 357 245 357 190 357 c 0,11,12
 131 357 131 357 112 317.5 c 128,-1,13
 93 278 93 278 93 198 c 0,0,1
352 191 m 1,14,15
 352 123 352 123 376 83.5 c 128,-1,16
 400 44 400 44 448 44 c 0,17,18
 471 44 471 44 500 58 c 128,-1,19
 529 72 529 72 558 118 c 1,20,-1
 606 89 l 1,21,22
 574 37 574 37 539.5 14.5 c 128,-1,23
 505 -8 505 -8 449 -8 c 0,24,25
 401 -8 401 -8 365.5 9 c 128,-1,26
 330 26 330 26 316 69 c 1,27,28
 312 54 312 54 304.5 40.5 c 128,-1,29
 297 27 297 27 282.5 16 c 128,-1,30
 268 5 268 5 246 -1.5 c 128,-1,31
 224 -8 224 -8 190 -8 c 0,32,33
 149 -8 149 -8 118.5 2 c 128,-1,34
 88 12 88 12 68 36 c 128,-1,35
 48 60 48 60 38 99.5 c 128,-1,36
 28 139 28 139 28 198 c 0,37,38
 28 301 28 301 64 352 c 128,-1,39
 100 403 100 403 190 403 c 0,40,41
 250 403 250 403 279.5 379.5 c 128,-1,42
 309 356 309 356 317 327 c 1,43,44
 323 342 323 342 331.5 356 c 128,-1,45
 340 370 340 370 355.5 380.5 c 128,-1,46
 371 391 371 391 394.5 397 c 128,-1,47
 418 403 418 403 453 403 c 0,48,49
 532 403 532 403 566.5 354 c 128,-1,50
 601 305 601 305 601 191 c 1,51,-1
 352 191 l 1,14,15
536 238 m 1,52,53
 536 299 536 299 516 328 c 128,-1,54
 496 357 496 357 452 357 c 0,55,56
 421 357 421 357 402 348.5 c 128,-1,57
 383 340 383 340 372.5 324.5 c 128,-1,58
 362 309 362 309 358 287 c 128,-1,59
 354 265 354 265 352 238 c 1,60,-1
 536 238 l 1,52,53
EndSplineSet
EndChar
StartChar: florin
Encoding: 402 402 204
Width: 383
Flags: W
Fore
326 277 m 1,0,-1
 233 277 l 1,1,-1
 191 -9 l 2,2,3
 187 -36 187 -36 178 -59 c 128,-1,4
 169 -82 169 -82 152 -99 c 128,-1,5
 135 -116 135 -116 110 -126 c 128,-1,6
 85 -136 85 -136 49 -136 c 0,7,8
 41 -136 41 -136 34.5 -135.5 c 128,-1,9
 28 -135 28 -135 20 -133 c 0,10,11
 17 -132 17 -132 14 -129.5 c 128,-1,12
 11 -127 11 -127 10.5 -121 c 128,-1,13
 10 -115 10 -115 13 -104 c 128,-1,14
 16 -93 16 -93 26 -75 c 1,15,16
 32 -77 32 -77 38.5 -79 c 128,-1,17
 45 -81 45 -81 51 -81 c 0,18,19
 86 -81 86 -81 102 -56 c 128,-1,20
 118 -31 118 -31 128 29 c 2,21,-1
 164 277 l 1,22,-1
 65 277 l 1,23,-1
 65 322 l 1,24,-1
 169 322 l 1,25,26
 172 352 172 352 179.5 390 c 128,-1,27
 187 428 187 428 202.5 462 c 128,-1,28
 218 496 218 496 244 519 c 128,-1,29
 270 542 270 542 310 542 c 0,30,31
 327 542 327 542 339.5 540 c 128,-1,32
 352 538 352 538 363 536 c 1,33,34
 366 532 366 532 368.5 521.5 c 128,-1,35
 371 511 371 511 371 501.5 c 128,-1,36
 371 492 371 492 368 485 c 128,-1,37
 365 478 365 478 357 479 c 1,38,39
 351 481 351 481 340 483.5 c 128,-1,40
 329 486 329 486 318 486 c 0,41,42
 295 486 295 486 281.5 471 c 128,-1,43
 268 456 268 456 259.5 432.5 c 128,-1,44
 251 409 251 409 247 380 c 128,-1,45
 243 351 243 351 238 322 c 1,46,-1
 326 322 l 1,47,-1
 326 277 l 1,0,-1
EndSplineSet
EndChar
StartChar: circumflex
Encoding: 710 710 205
Width: 169
Flags: W
Fore
197 439 m 1,0,-1
 136 439 l 1,1,-1
 85 506 l 1,2,-1
 32 439 l 1,3,-1
 -29 439 l 1,4,-1
 59 544 l 1,5,-1
 110 544 l 1,6,-1
 197 439 l 1,0,-1
EndSplineSet
EndChar
StartChar: caron
Encoding: 711 711 206
Width: 169
Flags: W
Fore
-29 544 m 1,0,-1
 42 544 l 1,1,-1
 85 477 l 1,2,-1
 126 544 l 1,3,-1
 197 544 l 1,4,-1
 110 439 l 1,5,-1
 59 439 l 1,6,-1
 -29 544 l 1,0,-1
EndSplineSet
EndChar
StartChar: breve
Encoding: 728 728 207
Width: 169
Flags: W
Fore
85 494 m 0,0,1
 114 494 114 494 126 505 c 128,-1,2
 138 516 138 516 140 539 c 1,3,-1
 194 539 l 1,4,5
 191 494 191 494 165.5 468.5 c 128,-1,6
 140 443 140 443 85 443 c 0,7,8
 29 443 29 443 3.5 468.5 c 128,-1,9
 -22 494 -22 494 -25 539 c 1,10,-1
 29 539 l 1,11,12
 31 516 31 516 42.5 505 c 128,-1,13
 54 494 54 494 85 494 c 0,0,1
EndSplineSet
EndChar
StartChar: dotaccent
Encoding: 729 729 208
Width: 169
Flags: W
Fore
119 519 m 1,0,-1
 119 447 l 1,1,-1
 49 447 l 1,2,-1
 49 519 l 1,3,-1
 119 519 l 1,0,-1
EndSplineSet
EndChar
StartChar: ring
Encoding: 730 730 209
Width: 169
Flags: W
Fore
85 588 m 0,0,1
 115 588 115 588 138 566 c 128,-1,2
 161 544 161 544 161 512 c 256,3,4
 161 480 161 480 138 458 c 128,-1,5
 115 436 115 436 85 436 c 0,6,7
 54 436 54 436 31.5 458 c 128,-1,8
 9 480 9 480 9 512 c 256,9,10
 9 544 9 544 31.5 566 c 128,-1,11
 54 588 54 588 85 588 c 0,0,1
85 548 m 256,12,13
 70 548 70 548 59 538 c 128,-1,14
 48 528 48 528 48 512 c 0,15,16
 48 497 48 497 59 486.5 c 128,-1,17
 70 476 70 476 85 476 c 256,18,19
 100 476 100 476 110.5 486.5 c 128,-1,20
 121 497 121 497 121 512 c 0,21,22
 121 528 121 528 110.5 538 c 128,-1,23
 100 548 100 548 85 548 c 256,12,13
EndSplineSet
EndChar
StartChar: ogonek
Encoding: 731 731 210
Width: 169
Flags: W
Fore
163 -2 m 1,0,1
 147 -7 147 -7 128.5 -15.5 c 128,-1,2
 110 -24 110 -24 94.5 -35 c 128,-1,3
 79 -46 79 -46 68.5 -59 c 128,-1,4
 58 -72 58 -72 58 -85 c 0,5,6
 58 -94 58 -94 63.5 -101.5 c 128,-1,7
 69 -109 69 -109 86 -109 c 0,8,9
 95 -109 95 -109 106.5 -105 c 128,-1,10
 118 -101 118 -101 129.5 -95.5 c 128,-1,11
 141 -90 141 -90 152 -84 c 128,-1,12
 163 -78 163 -78 170 -74 c 1,13,-1
 181 -117 l 1,14,15
 159 -131 159 -131 129 -144 c 128,-1,16
 99 -157 99 -157 73 -157 c 0,17,18
 44 -157 44 -157 23 -143.5 c 128,-1,19
 2 -130 2 -130 2 -96 c 0,20,21
 2 -68 2 -68 19.5 -48 c 128,-1,22
 37 -28 37 -28 62 -14.5 c 128,-1,23
 87 -1 87 -1 114.5 8 c 128,-1,24
 142 17 142 17 163 24 c 1,25,-1
 163 -2 l 1,0,1
EndSplineSet
EndChar
StartChar: tilde
Encoding: 732 732 211
Width: 169
Flags: W
Fore
-35 447 m 1,0,1
 -34 461 -34 461 -29 475.5 c 128,-1,2
 -24 490 -24 490 -15 503 c 128,-1,3
 -6 516 -6 516 5.5 524 c 128,-1,4
 17 532 17 532 32 532 c 0,5,6
 46 532 46 532 59.5 526.5 c 128,-1,7
 73 521 73 521 85.5 515 c 128,-1,8
 98 509 98 509 110 503.5 c 128,-1,9
 122 498 122 498 131 498 c 0,10,11
 147 498 147 498 155 509.5 c 128,-1,12
 163 521 163 521 165 535 c 1,13,-1
 203 535 l 1,14,15
 201 520 201 520 196.5 505 c 128,-1,16
 192 490 192 490 184 478 c 128,-1,17
 176 466 176 466 164.5 458.5 c 128,-1,18
 153 451 153 451 136 451 c 0,19,20
 124 451 124 451 110.5 456.5 c 128,-1,21
 97 462 97 462 83.5 468 c 128,-1,22
 70 474 70 474 58.5 479.5 c 128,-1,23
 47 485 47 485 39 485 c 0,24,25
 23 485 23 485 14.5 473 c 128,-1,26
 6 461 6 461 4 447 c 1,27,-1
 -35 447 l 1,0,1
EndSplineSet
EndChar
StartChar: hungarumlaut
Encoding: 733 733 212
Width: 169
Flags: W
Fore
138 544 m 1,0,-1
 43 439 l 1,1,-1
 -6 439 l 1,2,-1
 59 544 l 1,3,-1
 138 544 l 1,0,-1
250 544 m 1,4,-1
 135 439 l 1,5,-1
 86 439 l 1,6,-1
 171 544 l 1,7,-1
 250 544 l 1,4,-1
EndSplineSet
EndChar
StartChar: uni0E01
Encoding: 3585 3585 214
Width: 440
Flags: W
Fore
231 406 m 0,0,1
 265 406 265 406 293.5 399 c 128,-1,2
 322 392 322 392 342 374 c 128,-1,3
 362 356 362 356 373.5 325.5 c 128,-1,4
 385 295 385 295 385 249 c 2,5,-1
 385 0 l 1,6,-1
 325 0 l 1,7,-1
 325 249 l 2,8,9
 325 288 325 288 320.5 310 c 128,-1,10
 316 332 316 332 305.5 343.5 c 128,-1,11
 295 355 295 355 277 358 c 128,-1,12
 259 361 259 361 231 361 c 0,13,14
 206 361 206 361 183 356.5 c 128,-1,15
 160 352 160 352 142.5 345.5 c 128,-1,16
 125 339 125 339 114.5 332.5 c 128,-1,17
 104 326 104 326 104 321 c 0,18,19
 104 318 104 318 107 313 c 128,-1,20
 110 308 110 308 114 302.5 c 128,-1,21
 118 297 118 297 122.5 293.5 c 128,-1,22
 127 290 127 290 130 290 c 0,23,24
 138 290 138 290 147 296.5 c 128,-1,25
 156 303 156 303 165 303 c 0,26,27
 168 303 168 303 173.5 296.5 c 128,-1,28
 179 290 179 290 184 282 c 128,-1,29
 189 274 189 274 191 267.5 c 128,-1,30
 193 261 193 261 189 261 c 0,31,32
 160 261 160 261 143 242.5 c 128,-1,33
 126 224 126 224 126 168 c 2,34,-1
 126 0 l 1,35,-1
 66 0 l 1,36,-1
 66 178 l 2,37,38
 66 216 66 216 73.5 233.5 c 128,-1,39
 81 251 81 251 98 268 c 1,40,41
 94 270 94 270 85.5 276 c 128,-1,42
 77 282 77 282 68 289.5 c 128,-1,43
 59 297 59 297 52 305 c 128,-1,44
 45 313 45 313 45 319 c 0,45,46
 45 328 45 328 60.5 343 c 128,-1,47
 76 358 76 358 102 372 c 128,-1,48
 128 386 128 386 161.5 396 c 128,-1,49
 195 406 195 406 231 406 c 0,0,1
EndSplineSet
EndChar
StartChar: uni0E02
Encoding: 3586 3586 215
Width: 419
Flags: W
Fore
149 345 m 1,0,-1
 167 316 l 1,1,2
 167 286 167 286 150.5 267.5 c 128,-1,3
 134 249 134 249 104 249 c 256,4,5
 74 249 74 249 57 268.5 c 128,-1,6
 40 288 40 288 40 317 c 0,7,8
 40 337 40 337 49 353 c 128,-1,9
 58 369 58 369 72 380.5 c 128,-1,10
 86 392 86 392 105 398 c 128,-1,11
 124 404 124 404 143 404 c 0,12,13
 163 404 163 404 181.5 398 c 128,-1,14
 200 392 200 392 214.5 380 c 128,-1,15
 229 368 229 368 238 349.5 c 128,-1,16
 247 331 247 331 247 306 c 0,17,18
 247 274 247 274 231 252.5 c 128,-1,19
 215 231 215 231 195.5 214 c 128,-1,20
 176 197 176 197 159.5 180.5 c 128,-1,21
 143 164 143 164 143 142 c 2,22,-1
 143 108 l 2,23,24
 143 70 143 70 163 54.5 c 128,-1,25
 183 39 183 39 221 39 c 0,26,27
 267 39 267 39 286 54 c 128,-1,28
 305 69 305 69 305 113 c 0,29,30
 305 130 305 130 304 151 c 128,-1,31
 303 172 303 172 303 197 c 2,32,-1
 303 400 l 1,33,-1
 364 400 l 1,34,-1
 364 118 l 2,35,36
 364 52 364 52 323.5 23 c 128,-1,37
 283 -6 283 -6 220 -6 c 0,38,39
 193 -6 193 -6 168 0 c 128,-1,40
 143 6 143 6 124.5 19 c 128,-1,41
 106 32 106 32 94.5 52.5 c 128,-1,42
 83 73 83 73 83 101 c 2,43,-1
 83 140 l 2,44,45
 83 170 83 170 101 190 c 128,-1,46
 119 210 119 210 140.5 227 c 128,-1,47
 162 244 162 244 180 262 c 128,-1,48
 198 280 198 280 198 306 c 0,49,50
 198 335 198 335 184 348 c 128,-1,51
 170 361 170 361 139 361 c 0,52,53
 132 361 132 361 122 359.5 c 128,-1,54
 112 358 112 358 103 353.5 c 128,-1,55
 94 349 94 349 87.5 340 c 128,-1,56
 81 331 81 331 81 317 c 0,57,58
 81 304 81 304 87.5 294.5 c 128,-1,59
 94 285 94 285 106 285 c 0,60,61
 117 285 117 285 124.5 292.5 c 128,-1,62
 132 300 132 300 132 316 c 2,63,-1
 132 345 l 1,64,-1
 149 345 l 1,0,-1
EndSplineSet
EndChar
StartChar: uni0E03
Encoding: 3587 3587 216
Width: 433
Flags: W
Fore
155 323 m 1,0,1
 143 335 143 335 135 344 c 128,-1,2
 127 353 127 353 121.5 358 c 128,-1,3
 116 363 116 363 110.5 365.5 c 128,-1,4
 105 368 105 368 97 368 c 0,5,6
 84 368 84 368 76.5 358.5 c 128,-1,7
 69 349 69 349 69 335 c 0,8,9
 69 320 69 320 76 310 c 128,-1,10
 83 300 83 300 98 300 c 0,11,12
 104 300 104 300 112 304.5 c 128,-1,13
 120 309 120 309 131 321 c 1,14,-1
 141 309 l 1,15,-1
 135 286 l 1,16,17
 117 265 117 265 97 265 c 0,18,19
 68 265 68 265 51.5 285 c 128,-1,20
 35 305 35 305 35 334 c 0,21,22
 36 369 36 369 55 386 c 128,-1,23
 74 403 74 403 97 403 c 0,24,25
 110 403 110 403 121 397.5 c 128,-1,26
 132 392 132 392 140 385 c 0,27,28
 150 377 150 377 157 367 c 1,29,-1
 197 407 l 1,30,31
 207 403 207 403 217.5 393.5 c 128,-1,32
 228 384 228 384 236.5 372 c 128,-1,33
 245 360 245 360 250.5 346 c 128,-1,34
 256 332 256 332 256 318 c 0,35,36
 256 289 256 289 248.5 270.5 c 128,-1,37
 241 252 241 252 230 239.5 c 128,-1,38
 219 227 219 227 206.5 218 c 128,-1,39
 194 209 194 209 183 199 c 128,-1,40
 172 189 172 189 164.5 177 c 128,-1,41
 157 165 157 165 157 145 c 2,42,-1
 157 98 l 2,43,44
 157 60 157 60 177 49.5 c 128,-1,45
 197 39 197 39 235 39 c 0,46,47
 281 39 281 39 300 54 c 128,-1,48
 319 69 319 69 319 113 c 0,49,50
 319 130 319 130 318 151 c 128,-1,51
 317 172 317 172 317 197 c 2,52,-1
 317 400 l 1,53,-1
 378 400 l 1,54,-1
 378 118 l 2,55,56
 378 52 378 52 337.5 23 c 128,-1,57
 297 -6 297 -6 234 -6 c 0,58,59
 207 -6 207 -6 182 -1.5 c 128,-1,60
 157 3 157 3 138.5 14.5 c 128,-1,61
 120 26 120 26 108.5 44.5 c 128,-1,62
 97 63 97 63 97 91 c 2,63,-1
 97 145 l 2,64,65
 97 169 97 169 105.5 185 c 128,-1,66
 114 201 114 201 126 212.5 c 128,-1,67
 138 224 138 224 153 233 c 128,-1,68
 168 242 168 242 180 253 c 128,-1,69
 192 264 192 264 200.5 279 c 128,-1,70
 209 294 209 294 209 316 c 0,71,72
 209 335 209 335 205 343 c 128,-1,73
 201 351 201 351 196 356 c 1,74,-1
 155 323 l 1,0,1
EndSplineSet
EndChar
StartChar: uni0E04
Encoding: 3588 3588 217
Width: 445
Flags: W
Fore
332 226 m 2,0,1
 332 265 332 265 326.5 291 c 128,-1,2
 321 317 321 317 308 332.5 c 128,-1,3
 295 348 295 348 275 354.5 c 128,-1,4
 255 361 255 361 225 361 c 0,5,6
 172 361 172 361 138.5 334.5 c 128,-1,7
 105 308 105 308 105 242 c 0,8,9
 105 221 105 221 107.5 201 c 128,-1,10
 110 181 110 181 116 166 c 1,11,12
 121 188 121 188 132 208.5 c 128,-1,13
 143 229 143 229 158 245 c 128,-1,14
 173 261 173 261 192 270.5 c 128,-1,15
 211 280 211 280 232 280 c 0,16,17
 263 280 263 280 283 261 c 128,-1,18
 303 242 303 242 304 207 c 0,19,20
 304 178 304 178 283.5 157.5 c 128,-1,21
 263 137 263 137 234 137 c 0,22,23
 206 137 206 137 186 157 c 1,24,-1
 182 188 l 1,25,-1
 192 200 l 1,26,-1
 211 182 l 2,27,28
 220 172 220 172 233 172 c 0,29,30
 248 172 248 172 257 182.5 c 128,-1,31
 266 193 266 193 266 208 c 0,32,33
 266 222 266 222 257.5 231.5 c 128,-1,34
 249 241 249 241 232 241 c 0,35,36
 213 241 213 241 194.5 223 c 128,-1,37
 176 205 176 205 160.5 173 c 128,-1,38
 145 141 145 141 135 97 c 128,-1,39
 125 53 125 53 124 0 c 1,40,-1
 70 0 l 2,41,42
 66 0 66 0 64.5 2 c 128,-1,43
 63 4 63 4 63 14 c 0,44,45
 63 23 63 23 65.5 35 c 128,-1,46
 68 47 68 47 71.5 60 c 128,-1,47
 75 73 75 73 79.5 85 c 128,-1,48
 84 97 84 97 87 106 c 0,49,50
 93 122 93 122 87 129 c 0,51,52
 72 148 72 148 61 175.5 c 128,-1,53
 50 203 50 203 50 242 c 256,54,55
 50 281 50 281 63.5 311.5 c 128,-1,56
 77 342 77 342 100 363 c 128,-1,57
 123 384 123 384 154 395 c 128,-1,58
 185 406 185 406 220 406 c 0,59,60
 316 406 316 406 353 364.5 c 128,-1,61
 390 323 390 323 390 236 c 2,62,-1
 390 0 l 1,63,-1
 332 0 l 1,64,-1
 332 226 l 2,0,1
EndSplineSet
EndChar
StartChar: uni0E05
Encoding: 3589 3589 218
Width: 445
Flags: W
Fore
116 166 m 1,0,1
 121 188 121 188 132 208.5 c 128,-1,2
 143 229 143 229 158 245 c 128,-1,3
 173 261 173 261 192 270.5 c 128,-1,4
 211 280 211 280 232 280 c 0,5,6
 263 280 263 280 283 261 c 128,-1,7
 303 242 303 242 304 207 c 0,8,9
 304 178 304 178 283.5 157.5 c 128,-1,10
 263 137 263 137 234 137 c 0,11,12
 206 137 206 137 186 157 c 1,13,-1
 182 188 l 1,14,-1
 192 200 l 1,15,-1
 211 182 l 2,16,17
 220 172 220 172 233 172 c 0,18,19
 248 172 248 172 257 182.5 c 128,-1,20
 266 193 266 193 266 208 c 0,21,22
 266 222 266 222 257.5 231.5 c 128,-1,23
 249 241 249 241 232 241 c 0,24,25
 213 241 213 241 194.5 223 c 128,-1,26
 176 205 176 205 160.5 173 c 128,-1,27
 145 141 145 141 135 97 c 128,-1,28
 125 53 125 53 124 0 c 1,29,-1
 70 0 l 2,30,31
 66 0 66 0 64.5 2 c 128,-1,32
 63 4 63 4 63 14 c 0,33,34
 63 23 63 23 65.5 35 c 128,-1,35
 68 47 68 47 71.5 60 c 128,-1,36
 75 73 75 73 79.5 85 c 128,-1,37
 84 97 84 97 87 106 c 0,38,39
 93 122 93 122 87 129 c 0,40,41
 72 148 72 148 61 175.5 c 128,-1,42
 50 203 50 203 50 242 c 0,43,44
 50 306 50 306 78 346 c 128,-1,45
 106 386 106 386 160 406 c 1,46,-1
 225 364 l 1,47,-1
 284 408 l 1,48,49
 346 398 346 398 368 354 c 128,-1,50
 390 310 390 310 390 236 c 2,51,-1
 390 0 l 1,52,-1
 332 0 l 1,53,-1
 332 248 l 2,54,55
 332 274 332 274 331 293 c 128,-1,56
 330 312 330 312 325.5 325.5 c 128,-1,57
 321 339 321 339 311 347.5 c 128,-1,58
 301 356 301 356 282 361 c 1,59,-1
 225 319 l 1,60,-1
 164 360 l 1,61,62
 130 349 130 349 117.5 321 c 128,-1,63
 105 293 105 293 105 242 c 0,64,65
 105 221 105 221 107.5 201 c 128,-1,66
 110 181 110 181 116 166 c 1,0,1
EndSplineSet
EndChar
StartChar: uni0E06
Encoding: 3590 3590 219
Width: 490
Flags: W
Fore
276 318 m 0,0,1
 276 294 276 294 266.5 277 c 128,-1,2
 257 260 257 260 245 245 c 128,-1,3
 233 230 233 230 222 214.5 c 128,-1,4
 211 199 211 199 209 178 c 1,5,6
 260 175 260 175 301.5 150 c 128,-1,7
 343 125 343 125 372 81 c 1,8,9
 371 93 371 93 370.5 110.5 c 128,-1,10
 370 128 370 128 369.5 146 c 128,-1,11
 369 164 369 164 369 181.5 c 128,-1,12
 369 199 369 199 369 211 c 2,13,-1
 369 400 l 1,14,-1
 429 400 l 1,15,-1
 429 222 l 2,16,17
 429 189 429 189 429 155 c 128,-1,18
 429 121 429 121 430 92.5 c 128,-1,19
 431 64 431 64 432 43 c 128,-1,20
 433 22 433 22 434 14 c 0,21,22
 436 4 436 4 433.5 2 c 128,-1,23
 431 0 431 0 427 0 c 2,24,-1
 368 0 l 1,25,26
 352 66 352 66 311.5 100.5 c 128,-1,27
 271 135 271 135 209 139 c 1,28,-1
 211 99 l 2,29,30
 211 79 211 79 208 61 c 128,-1,31
 205 43 205 43 196.5 29 c 128,-1,32
 188 15 188 15 173.5 6.5 c 128,-1,33
 159 -2 159 -2 136 -2 c 0,34,35
 106 -2 106 -2 89 18 c 128,-1,36
 72 38 72 38 72 79 c 0,37,38
 72 124 72 124 97.5 147.5 c 128,-1,39
 123 171 123 171 155 177 c 1,40,41
 155 205 155 205 165.5 221 c 128,-1,42
 176 237 176 237 188 250 c 128,-1,43
 200 263 200 263 210 277.5 c 128,-1,44
 220 292 220 292 220 316 c 0,45,46
 220 333 220 333 214 341.5 c 128,-1,47
 208 350 208 350 205 355 c 1,48,-1
 165 318 l 1,49,50
 140 343 140 343 126.5 353 c 128,-1,51
 113 363 113 363 97 363 c 0,52,53
 84 363 84 363 76.5 351 c 128,-1,54
 69 339 69 339 69 325 c 0,55,56
 69 310 69 310 76 300 c 128,-1,57
 83 290 83 290 98 290 c 0,58,59
 112 290 112 290 121 299 c 2,60,-1
 139 318 l 1,61,-1
 149 306 l 1,62,-1
 144 277 l 1,63,64
 122 255 122 255 97 255 c 0,65,66
 68 255 68 255 51.5 275 c 128,-1,67
 35 295 35 295 35 324 c 0,68,69
 36 359 36 359 55 381 c 128,-1,70
 74 403 74 403 97 403 c 0,71,72
 110 403 110 403 122.5 397.5 c 128,-1,73
 135 392 135 392 145 385 c 0,74,75
 156 377 156 377 167 367 c 1,76,-1
 217 407 l 1,77,78
 227 403 227 403 237.5 393.5 c 128,-1,79
 248 384 248 384 256.5 372 c 128,-1,80
 265 360 265 360 270.5 346 c 128,-1,81
 276 332 276 332 276 318 c 0,0,1
156 96 m 0,82,83
 156 107 156 107 155.5 114 c 128,-1,84
 155 121 155 121 155 137 c 1,85,86
 146 134 146 134 138 131 c 128,-1,87
 130 128 130 128 123 122 c 128,-1,88
 116 116 116 116 112 106 c 128,-1,89
 108 96 108 96 108 81 c 0,90,91
 108 59 108 59 116.5 46.5 c 128,-1,92
 125 34 125 34 136 34 c 0,93,94
 145 34 145 34 149.5 39 c 128,-1,95
 154 44 154 44 155.5 52.5 c 128,-1,96
 157 61 157 61 156.5 72.5 c 128,-1,97
 156 84 156 84 156 96 c 0,82,83
EndSplineSet
EndChar
StartChar: uni0E07
Encoding: 3591 3591 220
Width: 384
Flags: W
Fore
85 287 m 1,0,1
 113 259 113 259 139 197.5 c 128,-1,2
 165 136 165 136 183 44 c 0,3,4
 183 41 183 41 193 39 c 128,-1,5
 203 37 203 37 215 37 c 128,-1,6
 227 37 227 37 236.5 39 c 128,-1,7
 246 41 246 41 246 45 c 0,8,9
 246 77 246 77 250 110.5 c 128,-1,10
 254 144 254 144 258 175 c 128,-1,11
 262 206 262 206 265.5 233.5 c 128,-1,12
 269 261 269 261 269 281 c 0,13,14
 269 300 269 300 269 316.5 c 128,-1,15
 269 333 269 333 265 345 c 128,-1,16
 261 357 261 357 253 363.5 c 128,-1,17
 245 370 245 370 228 370 c 0,18,19
 214 370 214 370 204.5 361 c 128,-1,20
 195 352 195 352 195 339 c 0,21,22
 195 327 195 327 203 317.5 c 128,-1,23
 211 308 211 308 226 308 c 2,24,-1
 256 308 l 1,25,-1
 256 291 l 1,26,-1
 226 273 l 1,27,28
 196 273 196 273 177.5 291 c 128,-1,29
 159 309 159 309 159 339 c 0,30,31
 159 368 159 368 183.5 387 c 128,-1,32
 208 406 208 406 238 406 c 0,33,34
 285 406 285 406 307 372.5 c 128,-1,35
 329 339 329 339 329 288 c 0,36,37
 329 272 329 272 326.5 247.5 c 128,-1,38
 324 223 324 223 321 197.5 c 128,-1,39
 318 172 318 172 314.5 148 c 128,-1,40
 311 124 311 124 309 108 c 0,41,42
 308 96 308 96 307 82 c 128,-1,43
 306 68 306 68 305 54.5 c 128,-1,44
 304 41 304 41 304 30 c 128,-1,45
 304 19 304 19 304 13 c 0,46,47
 304 8 304 8 291.5 4.5 c 128,-1,48
 279 1 279 1 260 -0.5 c 128,-1,49
 241 -2 241 -2 218.5 -1.5 c 128,-1,50
 196 -1 196 -1 177 0.5 c 128,-1,51
 158 2 158 2 145 5.5 c 128,-1,52
 132 9 132 9 131 14 c 0,53,54
 123 62 123 62 115 94 c 128,-1,55
 107 126 107 126 96 151 c 128,-1,56
 85 176 85 176 70 197.5 c 128,-1,57
 55 219 55 219 32 245 c 0,58,59
 30 248 30 248 35.5 253.5 c 128,-1,60
 41 259 41 259 49.5 265.5 c 128,-1,61
 58 272 58 272 68 278 c 128,-1,62
 78 284 78 284 85 287 c 1,0,1
EndSplineSet
EndChar
StartChar: uni0E08
Encoding: 3592 3592 221
Width: 428
Flags: W
Fore
172 14 m 0,0,1
 174 55 174 55 174.5 92.5 c 128,-1,2
 175 130 175 130 171.5 159.5 c 128,-1,3
 168 189 168 189 158.5 206.5 c 128,-1,4
 149 224 149 224 131 224 c 0,5,6
 117 224 117 224 107.5 215 c 128,-1,7
 98 206 98 206 98 193 c 0,8,9
 98 182 98 182 106 172 c 128,-1,10
 114 162 114 162 129 162 c 2,11,-1
 159 162 l 1,12,-1
 159 145 l 1,13,-1
 129 127 l 1,14,15
 99 127 99 127 80.5 145 c 128,-1,16
 62 163 62 163 62 193 c 256,17,18
 62 223 62 223 81.5 241.5 c 128,-1,19
 101 260 101 260 131 260 c 0,20,21
 188 260 188 260 209.5 206.5 c 128,-1,22
 231 153 231 153 227 44 c 0,23,24
 227 41 227 41 237.5 39 c 128,-1,25
 248 37 248 37 262 37 c 256,26,27
 276 37 276 37 288 39 c 128,-1,28
 300 41 300 41 299 45 c 0,29,30
 297 78 297 78 299 110.5 c 128,-1,31
 301 143 301 143 304 172 c 128,-1,32
 307 201 307 201 310 225 c 128,-1,33
 313 249 313 249 313 267 c 0,34,35
 313 300 313 300 299.5 318 c 128,-1,36
 286 336 286 336 269 344.5 c 128,-1,37
 252 353 252 353 236 355 c 128,-1,38
 220 357 220 357 214 357 c 0,39,40
 168 357 168 357 136 338 c 128,-1,41
 104 319 104 319 79 289 c 0,42,43
 77 286 77 286 69.5 287.5 c 128,-1,44
 62 289 62 289 52.5 294 c 128,-1,45
 43 299 43 299 34 307 c 128,-1,46
 25 315 25 315 20 325 c 1,47,48
 30 338 30 338 50 352 c 128,-1,49
 70 366 70 366 95.5 378 c 128,-1,50
 121 390 121 390 150.5 397.5 c 128,-1,51
 180 405 180 405 208 405 c 0,52,53
 240 405 240 405 269.5 398 c 128,-1,54
 299 391 299 391 322 376 c 128,-1,55
 345 361 345 361 359 336.5 c 128,-1,56
 373 312 373 312 373 277 c 0,57,58
 373 261 373 261 370.5 238.5 c 128,-1,59
 368 216 368 216 365 192 c 128,-1,60
 362 168 362 168 359 146 c 128,-1,61
 356 124 356 124 354 108 c 0,62,63
 353 96 353 96 352.5 82 c 128,-1,64
 352 68 352 68 352 54.5 c 128,-1,65
 352 41 352 41 352.5 30 c 128,-1,66
 353 19 353 19 353 13 c 0,67,68
 353 5 353 5 326 1.5 c 128,-1,69
 299 -2 299 -2 266 -2 c 0,70,71
 249 -2 249 -2 232 -1 c 128,-1,72
 215 0 215 0 201.5 2 c 128,-1,73
 188 4 188 4 180 7 c 128,-1,74
 172 10 172 10 172 14 c 0,0,1
EndSplineSet
EndChar
StartChar: uni0E09
Encoding: 3593 3593 222
Width: 470
Flags: W
Fore
355 277 m 2,0,1
 355 306 355 306 340.5 322 c 128,-1,2
 326 338 326 338 308 346 c 128,-1,3
 290 354 290 354 272.5 355.5 c 128,-1,4
 255 357 255 357 249 357 c 0,5,6
 204 357 204 357 164.5 340 c 128,-1,7
 125 323 125 323 100 293 c 0,8,9
 97 290 97 290 91 292.5 c 128,-1,10
 85 295 85 295 77.5 301 c 128,-1,11
 70 307 70 307 61.5 316 c 128,-1,12
 53 325 53 325 46 335 c 1,13,14
 81 364 81 364 134 384.5 c 128,-1,15
 187 405 187 405 249 405 c 0,16,17
 284 405 284 405 314.5 398 c 128,-1,18
 345 391 345 391 367.5 376 c 128,-1,19
 390 361 390 361 402.5 336.5 c 128,-1,20
 415 312 415 312 415 277 c 2,21,-1
 415 195 l 2,22,23
 415 186 415 186 411 173 c 128,-1,24
 407 160 407 160 399 152 c 1,25,26
 419 141 419 141 429.5 119 c 128,-1,27
 440 97 440 97 440 71 c 0,28,29
 440 31 440 31 415 13.5 c 128,-1,30
 390 -4 390 -4 360 -4 c 256,31,32
 330 -4 330 -4 306.5 13 c 128,-1,33
 283 30 283 30 283 66 c 0,34,35
 283 89 283 89 292.5 102.5 c 128,-1,36
 302 116 302 116 314 126 c 1,37,38
 310 127 310 127 304 127 c 0,39,40
 280 127 280 127 260 116.5 c 128,-1,41
 240 106 240 106 226 89 c 128,-1,42
 212 72 212 72 204.5 49 c 128,-1,43
 197 26 197 26 197 0 c 1,44,-1
 148 0 l 2,45,46
 144 0 144 0 141.5 2 c 128,-1,47
 139 4 139 4 141 14 c 0,48,49
 144 30 144 30 149 56.5 c 128,-1,50
 154 83 154 83 154 132 c 2,51,-1
 154 166 l 2,52,53
 154 189 154 189 145.5 203 c 128,-1,54
 137 217 137 217 122 217 c 0,55,56
 105 217 105 217 95.5 206 c 128,-1,57
 86 195 86 195 86 180 c 256,58,59
 86 165 86 165 94.5 154 c 128,-1,60
 103 143 103 143 119 143 c 2,61,-1
 144 143 l 1,62,-1
 144 125 l 1,63,-1
 116 109 l 1,64,65
 87 109 87 109 68.5 129.5 c 128,-1,66
 50 150 50 150 50 180 c 256,67,68
 50 210 50 210 71 231 c 128,-1,69
 92 252 92 252 122 252 c 0,70,71
 161 252 161 252 184 227 c 128,-1,72
 207 202 207 202 204 160 c 2,73,-1
 202 132 l 2,74,75
 202 127 202 127 201 120.5 c 128,-1,76
 200 114 200 114 198 107 c 0,77,78
 194 91 l 1,79,80
 211 129 211 129 245 149 c 128,-1,81
 279 169 279 169 312 169 c 0,82,83
 326 169 326 169 336.5 167 c 128,-1,84
 347 165 347 165 352 163 c 1,85,86
 354 168 354 168 354.5 177 c 128,-1,87
 355 186 355 186 355 195 c 2,88,-1
 355 277 l 2,0,1
385 73 m 0,89,90
 385 89 385 89 374.5 101.5 c 128,-1,91
 364 114 364 114 351 118 c 1,92,93
 334 107 334 107 326 94.5 c 128,-1,94
 318 82 318 82 318 71 c 0,95,96
 318 55 318 55 325.5 43.5 c 128,-1,97
 333 32 333 32 350 32 c 0,98,99
 385 32 385 32 385 73 c 0,89,90
EndSplineSet
EndChar
StartChar: uni0E0A
Encoding: 3594 3594 223
Width: 427
Flags: W
Fore
338 424 m 1,0,1
 350 422 350 422 361 418 c 0,2,3
 370 415 370 415 378.5 411.5 c 128,-1,4
 387 408 387 408 392 403 c 0,5,6
 395 400 395 400 395 397 c 0,7,8
 395 395 395 395 394 393.5 c 128,-1,9
 393 392 393 392 392 390 c 0,10,11
 378 368 378 368 361.5 348.5 c 128,-1,12
 345 329 345 329 326 316 c 1,13,14
 332 312 332 312 339.5 306.5 c 128,-1,15
 347 301 347 301 354.5 292.5 c 128,-1,16
 362 284 362 284 367 271 c 128,-1,17
 372 258 372 258 372 240 c 2,18,-1
 372 113 l 2,19,20
 372 80 372 80 360.5 57.5 c 128,-1,21
 349 35 349 35 329.5 20.5 c 128,-1,22
 310 6 310 6 283 0 c 128,-1,23
 256 -6 256 -6 224 -6 c 0,24,25
 197 -6 197 -6 172 -0.5 c 128,-1,26
 147 5 147 5 127.5 17 c 128,-1,27
 108 29 108 29 96.5 48.5 c 128,-1,28
 85 68 85 68 85 96 c 2,29,-1
 85 140 l 2,30,31
 85 172 85 172 101 192 c 128,-1,32
 117 212 117 212 136 229 c 128,-1,33
 155 246 155 246 171 264 c 128,-1,34
 187 282 187 282 187 311 c 256,35,36
 187 340 187 340 172.5 353 c 128,-1,37
 158 366 158 366 127 366 c 0,38,39
 105 366 105 366 87 357.5 c 128,-1,40
 69 349 69 349 69 320 c 0,41,42
 69 307 69 307 75.5 298 c 128,-1,43
 82 289 82 289 96 289 c 0,44,45
 107 289 107 289 115 296 c 128,-1,46
 123 303 123 303 123 319 c 2,47,-1
 123 348 l 1,48,-1
 140 348 l 1,49,-1
 158 319 l 1,50,51
 158 289 158 289 142 270.5 c 128,-1,52
 126 252 126 252 96 252 c 256,53,54
 66 252 66 252 48 271.5 c 128,-1,55
 30 291 30 291 30 320 c 0,56,57
 30 356 30 356 57.5 380 c 128,-1,58
 85 404 85 404 131 404 c 0,59,60
 179 404 179 404 204.5 380 c 128,-1,61
 230 356 230 356 230 314 c 0,62,63
 230 283 230 283 216.5 261.5 c 128,-1,64
 203 240 203 240 187.5 222.5 c 128,-1,65
 172 205 172 205 158.5 188.5 c 128,-1,66
 145 172 145 172 145 150 c 2,67,-1
 145 103 l 2,68,69
 145 65 145 65 166 52 c 128,-1,70
 187 39 187 39 225 39 c 0,71,72
 271 39 271 39 292 51.5 c 128,-1,73
 313 64 313 64 313 108 c 0,74,75
 313 117 313 117 313 126.5 c 128,-1,76
 313 136 313 136 312.5 150 c 128,-1,77
 312 164 312 164 312 185 c 128,-1,78
 312 206 312 206 312 238 c 256,79,80
 312 270 312 270 301.5 280.5 c 128,-1,81
 291 291 291 291 282 291 c 0,82,83
 276 291 276 291 273.5 288.5 c 128,-1,84
 271 286 271 286 264 286 c 0,85,86
 261 286 261 286 256.5 291.5 c 128,-1,87
 252 297 252 297 247.5 303.5 c 128,-1,88
 243 310 243 310 241.5 315.5 c 128,-1,89
 240 321 240 321 243 322 c 0,90,91
 260 326 260 326 270.5 330.5 c 128,-1,92
 281 335 281 335 291 344 c 0,93,94
 304 355 304 355 312.5 369 c 128,-1,95
 321 383 321 383 327 395 c 0,96,97
 334 409 334 409 338 424 c 1,0,1
EndSplineSet
EndChar
StartChar: uni0E0B
Encoding: 3595 3595 224
Width: 433
Flags: W
Fore
91 145 m 2,0,1
 91 181 91 181 106.5 201.5 c 128,-1,2
 122 222 122 222 140 237.5 c 128,-1,3
 158 253 158 253 173.5 270 c 128,-1,4
 189 287 189 287 189 316 c 0,5,6
 189 327 189 327 188.5 333.5 c 128,-1,7
 188 340 188 340 187 345 c 256,8,9
 186 350 186 350 184 353 c 1,10,-1
 148 323 l 1,11,12
 123 348 123 348 111.5 357 c 128,-1,13
 100 366 100 366 92 366 c 0,14,15
 79 366 79 366 71.5 357 c 128,-1,16
 64 348 64 348 64 334 c 0,17,18
 64 319 64 319 71 309 c 128,-1,19
 78 299 78 299 93 299 c 0,20,21
 99 299 99 299 107 303.5 c 128,-1,22
 115 308 115 308 126 320 c 1,23,-1
 136 308 l 1,24,-1
 130 285 l 1,25,26
 112 264 112 264 92 264 c 0,27,28
 63 264 63 264 46.5 284 c 128,-1,29
 30 304 30 304 30 333 c 0,30,31
 31 368 31 368 50 385.5 c 128,-1,32
 69 403 69 403 92 403 c 0,33,34
 105 403 105 403 115.5 397.5 c 128,-1,35
 126 392 126 392 134 384 c 0,36,37
 143 375 143 375 150 364 c 1,38,-1
 200 407 l 1,39,40
 218 393 218 393 224.5 369.5 c 128,-1,41
 231 346 231 346 231 318 c 0,42,43
 231 283 231 283 218 261 c 128,-1,44
 205 239 205 239 189.5 222.5 c 128,-1,45
 174 206 174 206 162 190 c 128,-1,46
 150 174 150 174 151 150 c 2,47,-1
 151 103 l 2,48,49
 151 65 151 65 172 52 c 128,-1,50
 193 39 193 39 231 39 c 0,51,52
 277 39 277 39 298 51.5 c 128,-1,53
 319 64 319 64 319 108 c 0,54,55
 319 117 319 117 319 126.5 c 128,-1,56
 319 136 319 136 318.5 150 c 128,-1,57
 318 164 318 164 318 185 c 128,-1,58
 318 206 318 206 318 238 c 256,59,60
 318 270 318 270 307.5 280.5 c 128,-1,61
 297 291 297 291 288 291 c 0,62,63
 282 291 282 291 279.5 288.5 c 128,-1,64
 277 286 277 286 270 286 c 0,65,66
 267 286 267 286 262.5 291.5 c 128,-1,67
 258 297 258 297 253.5 303.5 c 128,-1,68
 249 310 249 310 247.5 315.5 c 128,-1,69
 246 321 246 321 249 322 c 0,70,71
 266 326 266 326 276.5 330.5 c 128,-1,72
 287 335 287 335 297 344 c 0,73,74
 310 355 310 355 318.5 369 c 128,-1,75
 327 383 327 383 333 395 c 0,76,77
 340 409 340 409 344 424 c 1,78,79
 356 422 356 422 367 418 c 0,80,81
 376 415 376 415 384.5 411.5 c 128,-1,82
 393 408 393 408 398 403 c 0,83,84
 401 400 401 400 401 397 c 0,85,86
 401 395 401 395 400 393.5 c 128,-1,87
 399 392 399 392 398 390 c 0,88,89
 384 368 384 368 367.5 348.5 c 128,-1,90
 351 329 351 329 332 316 c 1,91,92
 338 312 338 312 345.5 306.5 c 128,-1,93
 353 301 353 301 360.5 292.5 c 128,-1,94
 368 284 368 284 373 271 c 128,-1,95
 378 258 378 258 378 240 c 2,96,-1
 378 113 l 2,97,98
 378 80 378 80 366.5 57.5 c 128,-1,99
 355 35 355 35 335.5 20.5 c 128,-1,100
 316 6 316 6 289 0 c 128,-1,101
 262 -6 262 -6 230 -6 c 0,102,103
 203 -6 203 -6 178 -0.5 c 128,-1,104
 153 5 153 5 133.5 17 c 128,-1,105
 114 29 114 29 102.5 48.5 c 128,-1,106
 91 68 91 68 91 96 c 2,107,-1
 91 145 l 2,0,1
EndSplineSet
EndChar
StartChar: uni0E0C
Encoding: 3596 3596 225
Width: 664
Flags: W
Fore
342 96 m 0,0,1
 342 103 342 103 341 111.5 c 128,-1,2
 340 120 340 120 339 137 c 1,3,4
 322 132 322 132 308 121.5 c 128,-1,5
 294 111 294 111 294 81 c 0,6,7
 294 59 294 59 302.5 46.5 c 128,-1,8
 311 34 311 34 322 34 c 0,9,10
 331 34 331 34 335.5 39 c 128,-1,11
 340 44 340 44 341.5 52.5 c 128,-1,12
 343 61 343 61 342.5 72.5 c 128,-1,13
 342 84 342 84 342 96 c 0,0,1
126 77 m 2,14,15
 126 54 126 54 135 41.5 c 128,-1,16
 144 29 144 29 159 29 c 0,17,18
 176 29 176 29 185 40 c 128,-1,19
 194 51 194 51 194 66 c 256,20,21
 194 81 194 81 185.5 91.5 c 128,-1,22
 177 102 177 102 162 102 c 2,23,-1
 134 102 l 1,24,-1
 134 118 l 1,25,-1
 162 137 l 1,26,27
 191 137 191 137 210.5 116.5 c 128,-1,28
 230 96 230 96 230 66 c 256,29,30
 230 36 230 36 209.5 15 c 128,-1,31
 189 -6 189 -6 159 -6 c 0,32,33
 142 -6 142 -6 125.5 0 c 128,-1,34
 109 6 109 6 95.5 18 c 128,-1,35
 82 30 82 30 74 48 c 128,-1,36
 66 66 66 66 66 90 c 2,37,-1
 66 178 l 2,38,39
 66 216 66 216 73.5 233.5 c 128,-1,40
 81 251 81 251 98 268 c 1,41,42
 94 270 94 270 85.5 276 c 128,-1,43
 77 282 77 282 68 289.5 c 128,-1,44
 59 297 59 297 52 305 c 128,-1,45
 45 313 45 313 45 319 c 0,46,47
 45 328 45 328 59 343 c 128,-1,48
 73 358 73 358 97 372 c 128,-1,49
 121 386 121 386 153 396 c 128,-1,50
 185 406 185 406 221 406 c 0,51,52
 255 406 255 406 286.5 399 c 128,-1,53
 318 392 318 392 342 374 c 128,-1,54
 366 356 366 356 380.5 325.5 c 128,-1,55
 395 295 395 295 395 249 c 2,56,-1
 395 178 l 1,57,58
 446 175 446 175 485.5 153.5 c 128,-1,59
 525 132 525 132 546 81 c 1,60,61
 545 93 545 93 544.5 110.5 c 128,-1,62
 544 128 544 128 543.5 146 c 128,-1,63
 543 164 543 164 543 181.5 c 128,-1,64
 543 199 543 199 543 211 c 2,65,-1
 543 400 l 1,66,-1
 603 400 l 1,67,-1
 603 222 l 2,68,69
 603 189 603 189 603 155 c 128,-1,70
 603 121 603 121 604 92.5 c 128,-1,71
 605 64 605 64 606 43 c 128,-1,72
 607 22 607 22 608 14 c 0,73,74
 610 4 610 4 607.5 2 c 128,-1,75
 605 0 605 0 601 0 c 2,76,-1
 542 0 l 1,77,78
 526 66 526 66 492 100 c 128,-1,79
 458 134 458 134 396 139 c 1,80,-1
 397 99 l 2,81,82
 397 79 397 79 394 61 c 128,-1,83
 391 43 391 43 382.5 29 c 128,-1,84
 374 15 374 15 359.5 6.5 c 128,-1,85
 345 -2 345 -2 322 -2 c 0,86,87
 292 -2 292 -2 275 18 c 128,-1,88
 258 38 258 38 258 79 c 0,89,90
 258 123 258 123 282.5 146.5 c 128,-1,91
 307 170 307 170 338 176 c 1,92,93
 338 182 338 182 337.5 192.5 c 128,-1,94
 337 203 337 203 336.5 214 c 128,-1,95
 336 225 336 225 335.5 235 c 128,-1,96
 335 245 335 245 335 249 c 0,97,98
 335 288 335 288 327.5 310 c 128,-1,99
 320 332 320 332 305.5 343.5 c 128,-1,100
 291 355 291 355 270 358 c 128,-1,101
 249 361 249 361 221 361 c 0,102,103
 196 361 196 361 175 356.5 c 128,-1,104
 154 352 154 352 138 345.5 c 128,-1,105
 122 339 122 339 113 332.5 c 128,-1,106
 104 326 104 326 104 321 c 0,107,108
 104 318 104 318 107.5 313 c 128,-1,109
 111 308 111 308 116.5 302.5 c 128,-1,110
 122 297 122 297 127 293.5 c 128,-1,111
 132 290 132 290 135 290 c 0,112,113
 143 290 143 290 152 296.5 c 128,-1,114
 161 303 161 303 170 303 c 0,115,116
 173 303 173 303 178.5 296.5 c 128,-1,117
 184 290 184 290 189 282 c 128,-1,118
 194 274 194 274 196 267.5 c 128,-1,119
 198 261 198 261 194 261 c 0,120,121
 179 261 179 261 166.5 258.5 c 128,-1,122
 154 256 154 256 145 247.5 c 128,-1,123
 136 239 136 239 131 222.5 c 128,-1,124
 126 206 126 206 126 178 c 2,125,-1
 126 77 l 2,14,15
EndSplineSet
EndChar
StartChar: uni0E0D
Encoding: 3597 3597 226
Width: 663
Flags: W
Fore
134 102 m 1,0,-1
 134 118 l 1,1,-1
 162 137 l 1,2,3
 191 137 191 137 210.5 116.5 c 128,-1,4
 230 96 230 96 230 66 c 256,5,6
 230 36 230 36 209.5 15 c 128,-1,7
 189 -6 189 -6 159 -6 c 0,8,9
 142 -6 142 -6 125.5 0 c 128,-1,10
 109 6 109 6 95.5 18 c 128,-1,11
 82 30 82 30 74 48 c 128,-1,12
 66 66 66 66 66 90 c 2,13,-1
 66 178 l 2,14,15
 66 216 66 216 73.5 233.5 c 128,-1,16
 81 251 81 251 98 268 c 1,17,18
 94 270 94 270 85.5 276 c 128,-1,19
 77 282 77 282 68 289.5 c 128,-1,20
 59 297 59 297 52 305 c 128,-1,21
 45 313 45 313 45 319 c 0,22,23
 45 328 45 328 57.5 343 c 128,-1,24
 70 358 70 358 92 372 c 128,-1,25
 114 386 114 386 144.5 396 c 128,-1,26
 175 406 175 406 211 406 c 0,27,28
 245 406 245 406 275.5 399 c 128,-1,29
 306 392 306 392 329.5 374 c 128,-1,30
 353 356 353 356 366.5 325.5 c 128,-1,31
 380 295 380 295 380 249 c 0,32,33
 380 237 380 237 379.5 220 c 128,-1,34
 378.5 186 l 128,-1,35
 378 169 378 169 377.5 153 c 128,-1,36
 377 137 377 137 377 127 c 0,37,38
 377 103 377 103 379.5 89.5 c 128,-1,39
 382 76 382 76 390 66 c 0,40,41
 414 39 414 39 463 39 c 256,42,43
 512 39 512 39 536 66 c 0,44,45
 544 76 544 76 547 85.5 c 128,-1,46
 550 95 550 95 550 115 c 0,47,48
 550 132 550 132 549 162 c 128,-1,49
 548 192 548 192 548 217 c 2,50,-1
 548 400 l 1,51,-1
 608 400 l 1,52,-1
 608 132 l 2,53,54
 608 94 608 94 604 72.5 c 128,-1,55
 600 51 600 51 586 35 c 0,56,57
 574 22 574 22 558.5 13.5 c 128,-1,58
 543 5 543 5 526 1 c 128,-1,59
 509 -3 509 -3 493 -4.5 c 128,-1,60
 477 -6 477 -6 463 -6 c 0,61,62
 450 -6 450 -6 433.5 -4.5 c 128,-1,63
 417 -3 417 -3 400 1 c 128,-1,64
 383 5 383 5 367.5 13.5 c 128,-1,65
 352 22 352 22 340 35 c 0,66,67
 327 50 327 50 323.5 75 c 128,-1,68
 320 100 320 100 320 132 c 2,69,-1
 320 249 l 2,70,71
 320 288 320 288 313.5 310 c 128,-1,72
 307 332 307 332 293.5 343.5 c 128,-1,73
 280 355 280 355 259.5 358 c 128,-1,74
 239 361 239 361 211 361 c 0,75,76
 186 361 186 361 166.5 356.5 c 128,-1,77
 147 352 147 352 133 345.5 c 128,-1,78
 119 339 119 339 111.5 332.5 c 128,-1,79
 104 326 104 326 104 321 c 0,80,81
 104 318 104 318 107.5 313 c 128,-1,82
 111 308 111 308 116.5 302.5 c 128,-1,83
 122 297 122 297 127 293.5 c 128,-1,84
 132 290 132 290 135 290 c 0,85,86
 143 290 143 290 152 296.5 c 128,-1,87
 161 303 161 303 170 303 c 0,88,89
 173 303 173 303 178.5 296.5 c 128,-1,90
 184 290 184 290 189 282 c 128,-1,91
 194 274 194 274 196 267.5 c 128,-1,92
 198 261 198 261 194 261 c 0,93,94
 179 261 179 261 166.5 258.5 c 128,-1,95
 154 256 154 256 145 247.5 c 128,-1,96
 136 239 136 239 131 222.5 c 128,-1,97
 126 206 126 206 126 178 c 2,98,-1
 126 77 l 2,99,100
 126 54 126 54 135 41.5 c 128,-1,101
 144 29 144 29 159 29 c 0,102,103
 176 29 176 29 185 40 c 128,-1,104
 194 51 194 51 194 66 c 256,105,106
 194 81 194 81 185.5 91.5 c 128,-1,107
 177 102 177 102 162 102 c 2,108,-1
 134 102 l 1,0,-1
599 -48 m 1,109,110
 599 -77 599 -77 590.5 -102.5 c 128,-1,111
 582 -128 582 -128 564 -147 c 128,-1,112
 546 -166 546 -166 517.5 -177 c 128,-1,113
 489 -188 489 -188 449 -188 c 0,114,115
 386 -188 386 -188 358.5 -162 c 128,-1,116
 331 -136 331 -136 331 -101 c 0,117,118
 331 -71 331 -71 351 -56 c 128,-1,119
 371 -41 371 -41 393 -41 c 0,120,121
 416 -41 416 -41 431 -55.5 c 128,-1,122
 446 -70 446 -70 446 -99 c 1,123,-1
 430 -128 l 1,124,-1
 414 -128 l 1,125,-1
 414 -99 l 2,126,127
 414 -85 414 -85 407.5 -79.5 c 128,-1,128
 401 -74 401 -74 393 -74 c 0,129,130
 369 -74 369 -74 369 -101 c 0,131,132
 369 -126 369 -126 386.5 -137 c 128,-1,133
 404 -148 404 -148 446 -148 c 0,134,135
 472 -148 472 -148 490 -143.5 c 128,-1,136
 508 -139 508 -139 519 -127.5 c 128,-1,137
 530 -116 530 -116 535 -96.5 c 128,-1,138
 540 -77 540 -77 540 -48 c 1,139,-1
 599 -48 l 1,109,110
EndSplineSet
Substitution: 0 65534 'L030' uni0E0D.alt1
Substitution: 0 65534 'L030' uni0E0D.alt1
EndChar
StartChar: uni0E0E
Encoding: 3598 3598 227
Width: 484
Flags: W
Fore
255 361 m 0,0,1
 230 361 230 361 210.5 356.5 c 128,-1,2
 191 352 191 352 177 345.5 c 128,-1,3
 163 339 163 339 155.5 332.5 c 128,-1,4
 148 326 148 326 148 321 c 0,5,6
 148 318 148 318 151.5 312 c 128,-1,7
 155 306 155 306 160.5 300.5 c 128,-1,8
 166 295 166 295 171 290.5 c 128,-1,9
 176 286 176 286 179 286 c 0,10,11
 187 286 187 286 196 292.5 c 128,-1,12
 205 299 205 299 214 299 c 0,13,14
 217 299 217 299 221.5 292.5 c 128,-1,15
 226 286 226 286 230 278 c 128,-1,16
 234 270 234 270 235.5 263.5 c 128,-1,17
 237 257 237 257 233 257 c 0,18,19
 215 257 215 257 204 254.5 c 128,-1,20
 193 252 193 252 188 245 c 128,-1,21
 183 238 183 238 181.5 225.5 c 128,-1,22
 180 213 180 213 180 192 c 0,23,24
 180 175 180 175 181 161.5 c 128,-1,25
 183 134.5 l 128,-1,26
 184 121 184 121 185 106.5 c 128,-1,27
 186 92 186 92 186 73 c 0,28,29
 186 35 186 35 163.5 14.5 c 128,-1,30
 141 -6 141 -6 106 -6 c 256,31,32
 71 -6 71 -6 50.5 15 c 128,-1,33
 30 36 30 36 30 66 c 256,34,35
 30 96 30 96 48 116 c 128,-1,36
 66 136 66 136 94 136 c 1,37,-1
 117 119 l 1,38,-1
 117 103 l 1,39,-1
 94 103 l 2,40,41
 79 103 79 103 72.5 92 c 128,-1,42
 66 81 66 81 66 66 c 256,43,44
 66 51 66 51 75 40 c 128,-1,45
 84 29 84 29 101 29 c 0,46,47
 116 29 116 29 126 40.5 c 128,-1,48
 136 52 136 52 136 75 c 0,49,50
 136 86 136 86 133.5 102 c 128,-1,51
 131 118 131 118 128.5 135.5 c 128,-1,52
 126 153 126 153 123.5 170 c 128,-1,53
 121 187 121 187 121 200 c 0,54,55
 121 219 121 219 123.5 235.5 c 128,-1,56
 126 252 126 252 142 268 c 1,57,58
 138 270 138 270 129.5 276 c 128,-1,59
 121 282 121 282 112 289.5 c 128,-1,60
 103 297 103 297 96 305 c 128,-1,61
 89 313 89 313 89 319 c 0,62,63
 89 328 89 328 101.5 343 c 128,-1,64
 114 358 114 358 136 372 c 128,-1,65
 158 386 158 386 188.5 396 c 128,-1,66
 219 406 219 406 255 406 c 0,67,68
 289 406 289 406 320.5 399 c 128,-1,69
 352 392 352 392 376 374 c 128,-1,70
 400 356 400 356 414.5 325.5 c 128,-1,71
 429 295 429 295 429 249 c 2,72,-1
 429 -180 l 1,73,-1
 361 -180 l 1,74,75
 353 -167 353 -167 336.5 -147 c 128,-1,76
 320 -127 320 -127 295 -113 c 1,77,78
 283 -139 283 -139 256.5 -160.5 c 128,-1,79
 230 -182 230 -182 196 -182 c 0,80,81
 167 -182 167 -182 146.5 -167.5 c 128,-1,82
 126 -153 126 -153 126 -115 c 0,83,84
 126 -47 126 -47 207 -47 c 0,85,86
 226 -47 226 -47 241.5 -51 c 128,-1,87
 257 -55 257 -55 272 -61 c 1,88,89
 275 -54 275 -54 276.5 -47.5 c 128,-1,90
 278 -41 278 -41 280 -36 c 0,91,92
 282 -30 282 -30 282 -24 c 1,93,94
 298 -28 l 0,95,96
 305 -30 305 -30 311.5 -32 c 128,-1,97
 318 -34 318 -34 322 -37 c 0,98,99
 324 -39 324 -39 324 -42.5 c 128,-1,100
 324 -46 324 -46 323 -49 c 0,101,102
 321 -53 321 -53 317 -62.5 c 128,-1,103
 313 -72 313 -72 310 -79 c 1,104,105
 329 -90 329 -90 345 -101.5 c 128,-1,106
 361 -113 361 -113 370 -124 c 1,107,108
 370 -112 370 -112 370 -91 c 128,-1,109
 370 -70 370 -70 369.5 -28.5 c 128,-1,110
 369 13 369 13 369 79.5 c 128,-1,111
 369 146 369 146 369 249 c 0,112,113
 369 288 369 288 361.5 310 c 128,-1,114
 354 332 354 332 339.5 343.5 c 128,-1,115
 325 355 325 355 304 358 c 128,-1,116
 283 361 283 361 255 361 c 0,0,1
195 -141 m 0,117,118
 218 -141 218 -141 233 -128 c 128,-1,119
 248 -115 248 -115 259 -97 c 1,120,121
 246 -92 246 -92 235.5 -89.5 c 128,-1,122
 225 -87 225 -87 211 -87 c 0,123,124
 187 -87 187 -87 177 -94 c 128,-1,125
 167 -101 167 -101 167 -117 c 0,126,127
 167 -141 167 -141 195 -141 c 0,117,118
EndSplineSet
Substitution: 0 65534 'L030' uni0E0E.alt1
Substitution: 0 65534 'L030' uni0E0E.alt1
EndChar
StartChar: uni0E0F
Encoding: 3599 3599 228
Width: 484
Flags: W
Fore
210 -117 m 1,0,1
 197 -103 197 -103 188 -96 c 128,-1,2
 179 -89 179 -89 167 -89 c 0,3,4
 141 -89 141 -89 141 -117 c 256,5,6
 141 -145 141 -145 168 -145 c 0,7,8
 190 -145 190 -145 210 -117 c 1,0,1
255 406 m 0,9,10
 289 406 289 406 320.5 399 c 128,-1,11
 352 392 352 392 376 374 c 128,-1,12
 400 356 400 356 414.5 325.5 c 128,-1,13
 429 295 429 295 429 249 c 2,14,-1
 428 -190 l 1,15,-1
 365 -190 l 1,16,-1
 316 -155 l 1,17,-1
 269 -188 l 1,18,-1
 233 -150 l 1,19,20
 217 -167 217 -167 201 -176.5 c 128,-1,21
 185 -186 185 -186 165 -186 c 0,22,23
 139 -186 139 -186 119.5 -169.5 c 128,-1,24
 100 -153 100 -153 100 -118 c 0,25,26
 100 -96 100 -96 106 -82.5 c 128,-1,27
 112 -69 112 -69 121.5 -61.5 c 128,-1,28
 131 -54 131 -54 142.5 -51 c 128,-1,29
 154 -48 154 -48 165 -48 c 0,30,31
 185 -48 185 -48 200.5 -59 c 128,-1,32
 216 -70 216 -70 225 -79 c 1,33,34
 229 -70 229 -70 231 -55.5 c 128,-1,35
 233 -41 233 -41 233 -33 c 1,36,37
 241 -33 241 -33 248 -34 c 0,38,39
 254 -35 254 -35 261 -37 c 128,-1,40
 268 -39 268 -39 272 -41 c 256,41,42
 276 -43 276 -43 276 -46.5 c 128,-1,43
 276 -50 276 -50 275 -55 c 0,44,45
 274 -62 274 -62 270.5 -71.5 c 128,-1,46
 267 -81 267 -81 264 -90 c 0,47,48
 260 -101 260 -101 256 -111 c 1,49,-1
 273 -132 l 1,50,-1
 315 -104 l 1,51,-1
 370 -134 l 1,52,53
 370 -122 370 -122 370 -99 c 128,-1,54
 370 -76 370 -76 369.5 -33 c 128,-1,55
 369 10 369 10 369 78 c 128,-1,56
 369 146 369 146 369 249 c 0,57,58
 369 288 369 288 361.5 310 c 128,-1,59
 354 332 354 332 339.5 343.5 c 128,-1,60
 325 355 325 355 304 358 c 128,-1,61
 283 361 283 361 255 361 c 0,62,63
 230 361 230 361 210.5 356.5 c 128,-1,64
 191 352 191 352 177 345.5 c 128,-1,65
 163 339 163 339 155.5 332.5 c 128,-1,66
 148 326 148 326 148 321 c 0,67,68
 148 318 148 318 151.5 312 c 128,-1,69
 155 306 155 306 160.5 300.5 c 128,-1,70
 166 295 166 295 171 290.5 c 128,-1,71
 176 286 176 286 179 286 c 0,72,73
 187 286 187 286 196 292.5 c 128,-1,74
 205 299 205 299 214 299 c 0,75,76
 217 299 217 299 221.5 292.5 c 128,-1,77
 226 286 226 286 230 278 c 128,-1,78
 234 270 234 270 235.5 263.5 c 128,-1,79
 237 257 237 257 233 257 c 0,80,81
 215 257 215 257 204 254.5 c 128,-1,82
 193 252 193 252 188 245 c 128,-1,83
 183 238 183 238 181.5 225.5 c 128,-1,84
 180 213 180 213 180 192 c 0,85,86
 180 175 180 175 181 161.5 c 128,-1,87
 183 134.5 l 128,-1,88
 184 121 184 121 185 106.5 c 128,-1,89
 186 92 186 92 186 73 c 0,90,91
 186 35 186 35 163.5 14.5 c 128,-1,92
 141 -6 141 -6 106 -6 c 256,93,94
 71 -6 71 -6 50.5 15 c 128,-1,95
 30 36 30 36 30 66 c 256,96,97
 30 96 30 96 48 116 c 128,-1,98
 66 136 66 136 94 136 c 1,99,-1
 117 119 l 1,100,-1
 117 103 l 1,101,-1
 94 103 l 2,102,103
 79 103 79 103 72.5 92 c 128,-1,104
 66 81 66 81 66 66 c 256,105,106
 66 51 66 51 75 40 c 128,-1,107
 84 29 84 29 101 29 c 0,108,109
 116 29 116 29 126 40.5 c 128,-1,110
 136 52 136 52 136 75 c 0,111,112
 136 86 136 86 133.5 102 c 128,-1,113
 131 118 131 118 128.5 135.5 c 128,-1,114
 126 153 126 153 123.5 170 c 128,-1,115
 121 187 121 187 121 200 c 0,116,117
 121 219 121 219 123.5 235.5 c 128,-1,118
 126 252 126 252 142 268 c 1,119,120
 138 270 138 270 129.5 276 c 128,-1,121
 121 282 121 282 112 289.5 c 128,-1,122
 103 297 103 297 96 305 c 128,-1,123
 89 313 89 313 89 319 c 0,124,125
 89 328 89 328 101.5 343 c 128,-1,126
 114 358 114 358 136 372 c 128,-1,127
 158 386 158 386 188.5 396 c 128,-1,128
 219 406 219 406 255 406 c 0,9,10
EndSplineSet
Substitution: 0 65534 'L030' uni0E0F.alt1
Substitution: 0 65534 'L030' uni0E0F.alt1
EndChar
StartChar: uni0E10
Encoding: 3600 3600 229
Width: 409
Flags: W
Fore
157 -133 m 1,0,1
 134 -108 134 -108 114 -108 c 0,2,3
 103 -108 103 -108 94.5 -114.5 c 128,-1,4
 86 -121 86 -121 86 -134 c 256,5,6
 86 -147 86 -147 95 -153 c 128,-1,7
 104 -159 104 -159 115 -159 c 256,8,9
 126 -159 126 -159 137 -154.5 c 128,-1,10
 148 -150 148 -150 157 -133 c 1,0,1
179 94 m 1,11,-1
 149 76 l 1,12,13
 119 76 119 76 100.5 94 c 128,-1,14
 82 112 82 112 82 142 c 256,15,16
 82 172 82 172 101.5 190.5 c 128,-1,17
 121 209 121 209 151 209 c 0,18,19
 183 209 183 209 201 198 c 128,-1,20
 219 187 219 187 227.5 165.5 c 128,-1,21
 236 144 236 144 237.5 113.5 c 128,-1,22
 239 83 239 83 237 44 c 0,23,24
 237 41 237 41 244.5 39 c 128,-1,25
 252 37 252 37 261.5 37 c 128,-1,26
 271 37 271 37 279 39 c 128,-1,27
 287 41 287 41 287 45 c 0,28,29
 291 90 291 90 298 126.5 c 128,-1,30
 305 163 305 163 305 198 c 0,31,32
 305 208 305 208 302 218 c 128,-1,33
 299 228 299 228 289.5 236 c 128,-1,34
 280 244 280 244 260.5 249 c 128,-1,35
 241 254 241 254 208 254 c 0,36,37
 177 254 177 254 150 250 c 128,-1,38
 123 246 123 246 103 246 c 0,39,40
 74 246 74 246 63.5 267.5 c 128,-1,41
 53 289 53 289 53 316 c 0,42,43
 53 357 53 357 75.5 378.5 c 128,-1,44
 98 400 98 400 135 400 c 0,45,46
 142 400 142 400 154.5 399 c 128,-1,47
 167 398 167 398 182.5 396.5 c 128,-1,48
 198 395 198 395 214.5 394 c 128,-1,49
 231 393 231 393 245 393 c 0,50,51
 263 393 263 393 282.5 395.5 c 128,-1,52
 302 398 302 398 318 401 c 0,53,54
 354 409 l 1,55,56
 356 399 356 399 359 390 c 0,57,58
 364 373 364 373 364 362 c 0,59,60
 364 356 364 356 355 352 c 1,61,62
 344 349 344 349 314.5 346 c 128,-1,63
 285 343 285 343 256 343 c 0,64,65
 243 343 243 343 228.5 345 c 128,-1,66
 214 347 214 347 200 349 c 128,-1,67
 186 351 186 351 174.5 353 c 128,-1,68
 163 355 163 355 157 355 c 0,69,70
 128 355 128 355 118.5 346 c 128,-1,71
 109 337 109 337 109 314 c 0,72,73
 109 303 109 303 114 297.5 c 128,-1,74
 119 292 119 292 139 292 c 256,75,76
 159 292 159 292 190 299 c 128,-1,77
 221 306 221 306 256 306 c 0,78,79
 282 306 282 306 302.5 297 c 128,-1,80
 323 288 323 288 337 273.5 c 128,-1,81
 351 259 351 259 358 241 c 128,-1,82
 365 223 365 223 365 204 c 0,83,84
 365 190 365 190 362 168.5 c 128,-1,85
 359 147 359 147 354.5 121.5 c 128,-1,86
 350 96 350 96 346 68 c 128,-1,87
 342 40 342 40 340 13 c 0,88,89
 340 8 340 8 328.5 4.5 c 128,-1,90
 317 1 317 1 300.5 -0.5 c 128,-1,91
 284 -2 284 -2 265 -1.5 c 128,-1,92
 246 -1 246 -1 229.5 0.5 c 128,-1,93
 213 2 213 2 202.5 5.5 c 128,-1,94
 192 9 192 9 192 14 c 0,95,96
 194 55 194 55 194.5 84.5 c 128,-1,97
 195 114 195 114 191.5 134 c 128,-1,98
 188 154 188 154 178.5 163.5 c 128,-1,99
 169 173 169 173 151 173 c 0,100,101
 137 173 137 173 127.5 164 c 128,-1,102
 118 155 118 155 118 142 c 0,103,104
 118 131 118 131 126 121 c 128,-1,105
 134 111 134 111 149 111 c 2,106,-1
 179 111 l 1,107,-1
 179 94 l 1,11,-1
171 -102 m 1,108,109
 175 -93 175 -93 175 -81.5 c 128,-1,110
 175 -70 175 -70 175 -62 c 1,111,112
 182 -62 182 -62 189 -63 c 0,113,114
 195 -64 195 -64 201 -65.5 c 128,-1,115
 207 -67 207 -67 211 -69 c 256,116,117
 215 -71 215 -71 215 -74.5 c 128,-1,118
 215 -78 215 -78 214 -83 c 0,119,120
 213 -90 213 -90 210 -99 c 128,-1,121
 204 -117 l 2,122,-1
 197 -138 l 1,123,-1
 211 -152 l 1,124,-1
 249 -131 l 1,125,-1
 299 -157 l 1,126,127
 299 -147 299 -147 302.5 -138.5 c 128,-1,128
 306 -130 306 -130 310.5 -122 c 128,-1,129
 315 -114 315 -114 318.5 -106 c 128,-1,130
 322 -98 322 -98 322 -87 c 256,131,132
 322 -76 322 -76 316.5 -67 c 128,-1,133
 311 -58 311 -58 299 -58 c 0,134,135
 277 -58 277 -58 277 -81 c 0,136,137
 277 -89 277 -89 280.5 -93.5 c 128,-1,138
 284 -98 284 -98 288 -101 c 2,139,-1
 301 -111 l 1,140,-1
 293 -122 l 1,141,-1
 270 -118 l 1,142,143
 262 -111 262 -111 256 -102 c 128,-1,144
 250 -93 250 -93 250 -83 c 0,145,146
 250 -58 250 -58 264.5 -44 c 128,-1,147
 279 -30 279 -30 301 -30 c 0,148,149
 330 -30 330 -30 345 -48 c 128,-1,150
 360 -66 360 -66 360 -86 c 0,151,152
 360 -104 360 -104 351.5 -133.5 c 128,-1,153
 343 -163 343 -163 343 -196 c 1,154,-1
 288 -196 l 1,155,-1
 250 -173 l 1,156,-1
 207 -198 l 1,157,-1
 174 -164 l 1,158,159
 160 -182 160 -182 145.5 -189.5 c 128,-1,160
 131 -197 131 -197 113 -197 c 0,161,162
 89 -197 89 -197 68.5 -182.5 c 128,-1,163
 48 -168 48 -168 48 -134 c 0,164,165
 48 -115 48 -115 54 -102.5 c 128,-1,166
 60 -90 60 -90 70 -82.5 c 128,-1,167
 80 -75 80 -75 91.5 -72 c 128,-1,168
 103 -69 103 -69 113 -69 c 0,169,170
 131 -69 131 -69 146.5 -80.5 c 128,-1,171
 162 -92 162 -92 171 -102 c 1,108,109
EndSplineSet
Substitution: 0 65534 'L030' uni0E10.alt1
Substitution: 0 65534 'L030' uni0E10.alt1
EndChar
StartChar: uni0E11
Encoding: 3601 3601 230
Width: 486
Flags: W
Fore
136 308 m 1,0,-1
 130 287 l 1,1,2
 113 267 113 267 92 267 c 0,3,4
 65 267 65 267 47.5 287 c 128,-1,5
 30 307 30 307 30 334 c 0,6,7
 30 369 30 369 49.5 386 c 128,-1,8
 69 403 69 403 90 403 c 0,9,10
 103 403 103 403 113 398 c 128,-1,11
 123 393 123 393 130 386 c 0,12,13
 138 378 138 378 144 368 c 1,14,-1
 185 407 l 1,15,16
 200 396 200 396 210.5 378 c 128,-1,17
 221 360 221 360 221 335 c 0,18,19
 221 312 221 312 212.5 297.5 c 128,-1,20
 204 283 204 283 193.5 268 c 128,-1,21
 183 253 183 253 174.5 232 c 128,-1,22
 166 211 166 211 166 174 c 2,23,-1
 163 119 l 1,24,25
 177 157 177 157 198.5 206 c 128,-1,26
 220 255 220 255 245.5 299 c 128,-1,27
 271 343 271 343 300 373 c 128,-1,28
 329 403 329 403 357 403 c 0,29,30
 398 402 398 402 414.5 384 c 128,-1,31
 431 366 431 366 431 317 c 2,32,-1
 431 0 l 1,33,-1
 371 0 l 1,34,-1
 371 308 l 2,35,36
 371 331 371 331 364.5 336.5 c 128,-1,37
 358 342 358 342 348 342 c 0,38,39
 333 342 333 342 316 327 c 128,-1,40
 299 312 299 312 282.5 286.5 c 128,-1,41
 266 261 266 261 249.5 229 c 128,-1,42
 233 197 233 197 218 162.5 c 128,-1,43
 203 128 203 128 190 94.5 c 128,-1,44
 177 61 177 61 167 34 c 1,45,-1
 166 0 l 1,46,-1
 112 0 l 2,47,48
 108 0 108 0 105.5 2 c 128,-1,49
 103 4 103 4 105 14 c 0,50,51
 108 30 108 30 109 67.5 c 128,-1,52
 110 105 110 105 110 172 c 0,53,54
 110 205 110 205 121 228.5 c 128,-1,55
 132 252 132 252 145.5 270.5 c 128,-1,56
 159 289 159 289 170 305 c 128,-1,57
 181 321 181 321 181 339 c 0,58,59
 181 346 181 346 179 352 c 0,60,61
 178 355 178 355 177 355 c 1,62,-1
 141 325 l 1,63,64
 124 349 124 349 115 358.5 c 128,-1,65
 106 368 106 368 94 368 c 0,66,67
 79 368 79 368 70.5 358.5 c 128,-1,68
 62 349 62 349 62 335 c 0,69,70
 62 322 62 322 71 311 c 128,-1,71
 80 300 80 300 95 300 c 0,72,73
 101 300 101 300 108 304 c 128,-1,74
 115 308 115 308 126 320 c 1,75,-1
 136 308 l 1,0,-1
EndSplineSet
EndChar
StartChar: uni0E12
Encoding: 3602 3602 231
Width: 669
Flags: W
Fore
198 168 m 1,0,-1
 167 172 l 1,1,2
 147 192 147 192 147 220 c 0,3,4
 147 249 147 249 167.5 269.5 c 128,-1,5
 188 290 188 290 217 290 c 0,6,7
 234 290 234 290 247 283.5 c 128,-1,8
 260 277 260 277 268.5 267.5 c 128,-1,9
 277 258 277 258 281.5 246.5 c 128,-1,10
 286 235 286 235 286 223 c 0,11,12
 286 196 286 196 276.5 176 c 128,-1,13
 267 156 267 156 245 140 c 0,14,15
 224 124 224 124 204 110 c 128,-1,16
 184 96 184 96 168.5 80.5 c 128,-1,17
 153 65 153 65 143.5 45.5 c 128,-1,18
 134 26 134 26 134 0 c 1,19,-1
 85 0 l 2,20,21
 81 0 81 0 78.5 2 c 128,-1,22
 76 4 76 4 78 14 c 0,23,24
 81 30 81 30 88.5 47 c 128,-1,25
 96 64 96 64 106 78 c 0,26,27
 112 87 112 87 108 92 c 0,28,29
 100 100 100 100 90 109.5 c 128,-1,30
 80 119 80 119 71 135 c 128,-1,31
 62 151 62 151 56 176.5 c 128,-1,32
 50 202 50 202 50 242 c 0,33,34
 50 306 50 306 73 346 c 128,-1,35
 96 386 96 386 150 406 c 1,36,-1
 223 364 l 1,37,-1
 294 408 l 1,38,39
 356 398 356 398 378 354 c 128,-1,40
 400 310 400 310 400 236 c 2,41,-1
 400 181 l 1,42,43
 451 178 451 178 490.5 155.5 c 128,-1,44
 530 133 530 133 551 82 c 1,45,46
 550 94 550 94 549.5 111 c 128,-1,47
 549 128 549 128 548.5 146.5 c 128,-1,48
 548 165 548 165 548 182 c 128,-1,49
 548 199 548 199 548 211 c 2,50,-1
 548 400 l 1,51,-1
 608 400 l 1,52,-1
 608 222 l 2,53,54
 608 189 608 189 608 155 c 128,-1,55
 608 121 608 121 609 92.5 c 128,-1,56
 610 64 610 64 611 43 c 128,-1,57
 612 22 612 22 613 14 c 0,58,59
 615 4 615 4 612.5 2 c 128,-1,60
 610 0 610 0 606 0 c 2,61,-1
 547 0 l 1,62,63
 531 66 531 66 497 100 c 128,-1,64
 463 134 463 134 401 139 c 1,65,-1
 402 99 l 2,66,67
 402 79 402 79 399 61 c 128,-1,68
 396 43 396 43 387.5 29 c 128,-1,69
 379 15 379 15 364.5 6.5 c 128,-1,70
 350 -2 350 -2 327 -2 c 0,71,72
 297 -2 297 -2 280 18 c 128,-1,73
 263 38 263 38 263 79 c 0,74,75
 263 124 263 124 287.5 148.5 c 128,-1,76
 312 173 312 173 343 179 c 1,77,78
 342 192 342 192 341 208.5 c 128,-1,79
 340 225 340 225 339 248 c 0,80,81
 338 301 338 301 328.5 326 c 128,-1,82
 319 351 319 351 292 361 c 1,83,-1
 223 319 l 1,84,-1
 154 360 l 1,85,86
 120 349 120 349 110 321 c 128,-1,87
 100 293 100 293 100 242 c 0,88,89
 100 205 100 205 105 183.5 c 128,-1,90
 110 162 110 162 117 149.5 c 128,-1,91
 124 137 124 137 131.5 129.5 c 128,-1,92
 139 122 139 122 145 113 c 1,93,94
 149 119 149 119 160 128 c 128,-1,95
 171 137 171 137 184 146 c 128,-1,96
 197 155 197 155 208.5 163 c 128,-1,97
 220 171 220 171 226 175 c 0,98,99
 241 186 241 186 246 197 c 128,-1,100
 251 208 251 208 251 218 c 0,101,102
 251 235 251 235 241.5 245 c 128,-1,103
 232 255 232 255 218 255 c 0,104,105
 203 255 203 255 192.5 244.5 c 128,-1,106
 182 234 182 234 182 219 c 0,107,108
 182 206 182 206 192 197 c 2,109,-1
 210 178 l 1,110,-1
 198 168 l 1,0,-1
344 137 m 1,111,112
 327 132 327 132 313 121.5 c 128,-1,113
 299 111 299 111 299 81 c 0,114,115
 299 59 299 59 307.5 46.5 c 128,-1,116
 316 34 316 34 327 34 c 0,117,118
 336 34 336 34 340.5 39 c 128,-1,119
 345 44 345 44 346.5 52.5 c 128,-1,120
 348 61 348 61 347.5 72.5 c 128,-1,121
 347 84 347 84 347 96 c 0,122,123
 347 103 347 103 346 111.5 c 128,-1,124
 345 120 345 120 344 137 c 1,111,112
EndSplineSet
EndChar
StartChar: uni0E13
Encoding: 3603 3603 232
Width: 659
Flags: W
Fore
577 76 m 0,0,1
 577 109 577 109 535 125 c 1,2,3
 518 114 518 114 511 100.5 c 128,-1,4
 504 87 504 87 504 76 c 0,5,6
 504 34 504 34 539 34 c 0,7,8
 556 34 556 34 566.5 44 c 128,-1,9
 577 54 577 54 577 76 c 0,0,1
126 80 m 2,10,11
 126 57 126 57 134.5 43 c 128,-1,12
 143 29 143 29 158 29 c 0,13,14
 175 29 175 29 184.5 40 c 128,-1,15
 194 51 194 51 194 66 c 256,16,17
 194 81 194 81 185.5 92 c 128,-1,18
 177 103 177 103 162 103 c 2,19,-1
 134 103 l 1,20,-1
 134 119 l 1,21,-1
 162 138 l 1,22,23
 191 138 191 138 210.5 117 c 128,-1,24
 230 96 230 96 230 66 c 256,25,26
 230 36 230 36 209 15 c 128,-1,27
 188 -6 188 -6 158 -6 c 0,28,29
 120 -6 120 -6 93 16 c 128,-1,30
 66 38 66 38 66 80 c 2,31,-1
 66 178 l 2,32,33
 66 216 66 216 73.5 233.5 c 128,-1,34
 81 251 81 251 98 268 c 1,35,36
 94 270 94 270 85.5 276 c 128,-1,37
 77 282 77 282 68 289.5 c 128,-1,38
 59 297 59 297 52 305 c 128,-1,39
 45 313 45 313 45 319 c 0,40,41
 45 328 45 328 57.5 343 c 128,-1,42
 70 358 70 358 92 372 c 128,-1,43
 114 386 114 386 144.5 396 c 128,-1,44
 175 406 175 406 211 406 c 0,45,46
 245 406 245 406 275 399 c 128,-1,47
 305 392 305 392 327 374 c 128,-1,48
 349 356 349 356 362 325.5 c 128,-1,49
 375 295 375 295 375 249 c 2,50,-1
 375 177 l 1,51,-1
 373 111 l 1,52,53
 397 149 397 149 430 164 c 128,-1,54
 463 179 463 179 496 179 c 0,55,56
 510 179 510 179 518.5 177 c 128,-1,57
 527 175 527 175 541 170 c 1,58,59
 544 179 544 179 544 195 c 2,60,-1
 544 400 l 1,61,-1
 604 400 l 1,62,-1
 604 185 l 2,63,64
 604 167 604 167 588 149 c 1,65,66
 608 138 608 138 621 119 c 128,-1,67
 634 100 634 100 634 74 c 0,68,69
 634 54 634 54 626.5 39.5 c 128,-1,70
 619 25 619 25 606.5 16 c 128,-1,71
 594 7 594 7 579 2.5 c 128,-1,72
 564 -2 564 -2 549 -2 c 0,73,74
 519 -2 519 -2 494 16.5 c 128,-1,75
 469 35 469 35 469 71 c 0,76,77
 469 94 469 94 481.5 109.5 c 128,-1,78
 494 125 494 125 506 135 c 1,79,80
 498 137 498 137 483 137 c 0,81,82
 459 137 459 137 438.5 125 c 128,-1,83
 418 113 418 113 404 94 c 128,-1,84
 390 75 390 75 382 50.5 c 128,-1,85
 374 26 374 26 374 0 c 1,86,-1
 320 0 l 2,87,88
 316 0 316 0 313.5 2 c 128,-1,89
 311 4 311 4 313 14 c 0,90,91
 315 22 315 22 315.5 47 c 128,-1,92
 316 72 316 72 316 106 c 128,-1,93
 316 140 316 140 315.5 178 c 128,-1,94
 315 216 315 216 315 249 c 0,95,96
 315 288 315 288 309 310 c 128,-1,97
 303 332 303 332 290.5 343.5 c 128,-1,98
 278 355 278 355 258.5 358 c 128,-1,99
 239 361 239 361 211 361 c 0,100,101
 186 361 186 361 166.5 356.5 c 128,-1,102
 147 352 147 352 133 345.5 c 128,-1,103
 119 339 119 339 111.5 332.5 c 128,-1,104
 104 326 104 326 104 321 c 0,105,106
 104 318 104 318 107.5 313 c 128,-1,107
 111 308 111 308 116.5 302.5 c 128,-1,108
 122 297 122 297 127 293.5 c 128,-1,109
 132 290 132 290 135 290 c 0,110,111
 143 290 143 290 152 296.5 c 128,-1,112
 161 303 161 303 170 303 c 0,113,114
 173 303 173 303 178.5 296.5 c 128,-1,115
 184 290 184 290 189 282 c 128,-1,116
 194 274 194 274 196 267.5 c 128,-1,117
 198 261 198 261 194 261 c 0,118,119
 179 261 179 261 166.5 258.5 c 128,-1,120
 154 256 154 256 145 247.5 c 128,-1,121
 136 239 136 239 131 222.5 c 128,-1,122
 126 206 126 206 126 178 c 2,123,-1
 126 80 l 2,10,11
EndSplineSet
EndChar
StartChar: uni0E14
Encoding: 3604 3604 233
Width: 445
Flags: W
Fore
50 242 m 0,0,1
 50 281 50 281 63.5 311.5 c 128,-1,2
 77 342 77 342 100 363 c 128,-1,3
 123 384 123 384 154 395 c 128,-1,4
 185 406 185 406 220 406 c 0,5,6
 316 406 316 406 353 364.5 c 128,-1,7
 390 323 390 323 390 236 c 2,8,-1
 390 0 l 1,9,-1
 330 0 l 1,10,-1
 330 226 l 2,11,12
 330 265 330 265 328 291 c 128,-1,13
 326 317 326 317 315.5 332.5 c 128,-1,14
 305 348 305 348 283 354.5 c 128,-1,15
 261 361 261 361 220 361 c 0,16,17
 167 361 167 361 133.5 334.5 c 128,-1,18
 100 308 100 308 100 242 c 0,19,20
 100 205 100 205 105 183.5 c 128,-1,21
 110 162 110 162 117 149.5 c 128,-1,22
 124 137 124 137 131.5 129.5 c 128,-1,23
 139 122 139 122 145 113 c 1,24,25
 149 119 149 119 161 128 c 128,-1,26
 173 137 173 137 186.5 146.5 c 128,-1,27
 200 156 200 156 212.5 164 c 128,-1,28
 225 172 225 172 231 176 c 0,29,30
 246 187 246 187 251 197.5 c 128,-1,31
 256 208 256 208 256 218 c 0,32,33
 256 235 256 235 246.5 245 c 128,-1,34
 237 255 237 255 223 255 c 0,35,36
 208 255 208 255 197.5 244.5 c 128,-1,37
 187 234 187 234 187 219 c 0,38,39
 187 206 187 206 197 197 c 2,40,-1
 215 178 l 1,41,-1
 203 168 l 1,42,-1
 172 172 l 1,43,44
 152 192 152 192 152 220 c 0,45,46
 152 249 152 249 172.5 271 c 128,-1,47
 193 293 193 293 222 293 c 0,48,49
 257 292 257 292 276.5 271 c 128,-1,50
 296 250 296 250 296 223 c 256,51,52
 296 196 296 196 284 176 c 128,-1,53
 272 156 272 156 250 140 c 0,54,55
 229 124 229 124 208 110 c 128,-1,56
 187 96 187 96 170.5 80.5 c 128,-1,57
 154 65 154 65 144 45.5 c 128,-1,58
 134 26 134 26 134 0 c 1,59,-1
 85 0 l 2,60,61
 81 0 81 0 78.5 2 c 128,-1,62
 76 4 76 4 78 14 c 0,63,64
 81 30 81 30 88.5 47 c 128,-1,65
 96 64 96 64 106 78 c 0,66,67
 112 87 112 87 108 92 c 0,68,69
 100 100 100 100 90 109.5 c 128,-1,70
 80 119 80 119 71 135 c 128,-1,71
 62 151 62 151 56 176.5 c 128,-1,72
 50 202 50 202 50 242 c 0,0,1
EndSplineSet
EndChar
StartChar: uni0E15
Encoding: 3605 3605 234
Width: 455
Flags: W
Fore
225 319 m 1,0,-1
 154 360 l 1,1,2
 128 349 128 349 116.5 321 c 128,-1,3
 105 293 105 293 105 242 c 0,4,5
 105 209 105 209 110 186.5 c 128,-1,6
 115 164 115 164 122 150 c 128,-1,7
 129 136 129 136 136.5 129 c 128,-1,8
 144 122 144 122 150 118 c 1,9,10
 156 124 156 124 167.5 132.5 c 128,-1,11
 179 141 179 141 191 149 c 128,-1,12
 203 157 203 157 214 164.5 c 128,-1,13
 225 172 225 172 231 176 c 0,14,15
 246 187 246 187 251 197.5 c 128,-1,16
 256 208 256 208 256 218 c 0,17,18
 256 235 256 235 246.5 245 c 128,-1,19
 237 255 237 255 223 255 c 0,20,21
 208 255 208 255 197.5 244.5 c 128,-1,22
 187 234 187 234 187 219 c 0,23,24
 187 206 187 206 197 197 c 2,25,-1
 215 178 l 1,26,-1
 203 168 l 1,27,-1
 172 172 l 1,28,29
 152 192 152 192 152 220 c 0,30,31
 152 249 152 249 172.5 270.5 c 128,-1,32
 193 292 193 292 222 292 c 0,33,34
 257 291 257 291 276.5 270.5 c 128,-1,35
 296 250 296 250 296 223 c 256,36,37
 296 196 296 196 281.5 174.5 c 128,-1,38
 267 153 267 153 245 137 c 0,39,40
 224 121 224 121 204.5 107.5 c 128,-1,41
 185 94 185 94 170.5 79 c 128,-1,42
 156 64 156 64 147.5 45 c 128,-1,43
 139 26 139 26 139 0 c 1,44,-1
 85 0 l 2,45,46
 81 0 81 0 78.5 2 c 128,-1,47
 76 4 76 4 78 14 c 0,48,49
 81 30 81 30 88.5 47 c 128,-1,50
 96 64 96 64 106 78 c 0,51,52
 112 87 112 87 108 92 c 0,53,54
 100 100 100 100 90 109.5 c 128,-1,55
 80 119 80 119 71 135 c 128,-1,56
 62 151 62 151 56 176.5 c 128,-1,57
 50 202 50 202 50 242 c 0,58,59
 50 306 50 306 73 346 c 128,-1,60
 96 386 96 386 150 406 c 1,61,-1
 225 364 l 1,62,-1
 294 408 l 1,63,64
 356 398 356 398 378 354 c 128,-1,65
 400 310 400 310 400 236 c 2,66,-1
 400 0 l 1,67,-1
 340 0 l 1,68,-1
 340 248 l 2,69,70
 340 274 340 274 339 293 c 128,-1,71
 338 312 338 312 333.5 325.5 c 128,-1,72
 329 339 329 339 319 347.5 c 128,-1,73
 309 356 309 356 292 361 c 1,74,-1
 225 319 l 1,0,-1
EndSplineSet
EndChar
StartChar: uni0E16
Encoding: 3606 3606 235
Width: 450
Flags: W
Fore
104 321 m 0,0,1
 104 318 104 318 107 313 c 128,-1,2
 110 308 110 308 114 302.5 c 128,-1,3
 118 297 118 297 122.5 293.5 c 128,-1,4
 127 290 127 290 130 290 c 0,5,6
 138 290 138 290 147 296.5 c 128,-1,7
 156 303 156 303 165 303 c 0,8,9
 168 303 168 303 173.5 296.5 c 128,-1,10
 179 290 179 290 184 282 c 128,-1,11
 189 274 189 274 191 267.5 c 128,-1,12
 193 261 193 261 189 261 c 0,13,14
 174 261 174 261 162.5 258.5 c 128,-1,15
 151 256 151 256 143 247.5 c 128,-1,16
 135 239 135 239 130.5 222.5 c 128,-1,17
 126 206 126 206 126 178 c 2,18,-1
 126 77 l 2,19,20
 126 54 126 54 135 41.5 c 128,-1,21
 144 29 144 29 159 29 c 0,22,23
 176 29 176 29 185 40 c 128,-1,24
 194 51 194 51 194 66 c 256,25,26
 194 81 194 81 185.5 91.5 c 128,-1,27
 177 102 177 102 162 102 c 2,28,-1
 134 102 l 1,29,-1
 134 118 l 1,30,-1
 162 137 l 1,31,32
 191 137 191 137 210.5 116.5 c 128,-1,33
 230 96 230 96 230 66 c 256,34,35
 230 36 230 36 209.5 15 c 128,-1,36
 189 -6 189 -6 159 -6 c 0,37,38
 142 -6 142 -6 125.5 0 c 128,-1,39
 109 6 109 6 95.5 18 c 128,-1,40
 82 30 82 30 74 48 c 128,-1,41
 66 66 66 66 66 90 c 2,42,-1
 66 178 l 2,43,44
 66 216 66 216 73.5 233.5 c 128,-1,45
 81 251 81 251 98 268 c 1,46,47
 94 270 94 270 85.5 276 c 128,-1,48
 77 282 77 282 68 289.5 c 128,-1,49
 59 297 59 297 52 305 c 128,-1,50
 45 313 45 313 45 319 c 0,51,52
 45 328 45 328 60 343 c 128,-1,53
 75 358 75 358 99.5 372 c 128,-1,54
 124 386 124 386 157 396 c 128,-1,55
 190 406 190 406 226 406 c 0,56,57
 260 406 260 406 290.5 399 c 128,-1,58
 321 392 321 392 344.5 374 c 128,-1,59
 368 356 368 356 381.5 325.5 c 128,-1,60
 395 295 395 295 395 249 c 2,61,-1
 395 0 l 1,62,-1
 335 0 l 1,63,-1
 335 249 l 2,64,65
 335 288 335 288 328.5 310 c 128,-1,66
 322 332 322 332 308.5 343.5 c 128,-1,67
 295 355 295 355 274.5 358 c 128,-1,68
 254 361 254 361 226 361 c 0,69,70
 201 361 201 361 179 356.5 c 128,-1,71
 157 352 157 352 140.5 345.5 c 128,-1,72
 124 339 124 339 114 332.5 c 128,-1,73
 104 326 104 326 104 321 c 0,0,1
EndSplineSet
EndChar
StartChar: uni0E17
Encoding: 3607 3607 236
Width: 498
Flags: W
Fore
122 298 m 1,0,-1
 122 282 l 1,1,-1
 98 264 l 1,2,3
 69 264 69 264 52 284.5 c 128,-1,4
 35 305 35 305 35 335 c 256,5,6
 35 365 35 365 59 386 c 128,-1,7
 83 407 83 407 113 407 c 0,8,9
 148 407 148 407 169.5 386.5 c 128,-1,10
 191 366 191 366 191 328 c 0,11,12
 191 306 191 306 186.5 283 c 128,-1,13
 182 260 182 260 180 219 c 2,14,-1
 175 141 l 1,15,16
 187 192 187 192 202.5 239.5 c 128,-1,17
 218 287 218 287 239 323 c 128,-1,18
 260 359 260 359 285.5 381 c 128,-1,19
 311 403 311 403 342 403 c 0,20,21
 360 403 360 403 378 399 c 128,-1,22
 396 395 396 395 410.5 385 c 128,-1,23
 425 375 425 375 434 359 c 128,-1,24
 443 343 443 343 443 319 c 2,25,-1
 443 0 l 1,26,-1
 383 0 l 1,27,-1
 383 309 l 2,28,29
 383 333 383 333 372.5 345.5 c 128,-1,30
 362 358 362 358 346 358 c 0,31,32
 328 358 328 358 308.5 340.5 c 128,-1,33
 289 323 289 323 271.5 294.5 c 128,-1,34
 254 266 254 266 238 230 c 128,-1,35
 222 194 222 194 209.5 155.5 c 128,-1,36
 197 117 197 117 189 80.5 c 128,-1,37
 181 44 181 44 179 15 c 2,38,-1
 178 0 l 1,39,-1
 124 0 l 2,40,41
 120 0 120 0 117.5 2 c 128,-1,42
 115 4 115 4 117 14 c 0,43,44
 119 22 119 22 119.5 43 c 128,-1,45
 120 64 120 64 121 92.5 c 128,-1,46
 122 121 122 121 122 155 c 128,-1,47
 122 189 122 189 122 222 c 0,48,49
 122 241 122 241 125 255.5 c 128,-1,50
 128 270 128 270 131.5 282 c 128,-1,51
 135 294 135 294 138 304.5 c 128,-1,52
 141 315 141 315 141 326 c 0,53,54
 141 349 141 349 132 360.5 c 128,-1,55
 123 372 123 372 108 372 c 0,56,57
 91 372 91 372 81 361 c 128,-1,58
 71 350 71 350 71 335 c 256,59,60
 71 320 71 320 78 309 c 128,-1,61
 85 298 85 298 100 298 c 2,62,-1
 122 298 l 1,0,-1
EndSplineSet
EndChar
StartChar: uni0E18
Encoding: 3608 3608 237
Width: 422
Flags: W
Fore
352 409 m 1,0,1
 354 399 354 399 357 390 c 0,2,3
 362 373 362 373 362 362 c 0,4,5
 362 356 362 356 353 352 c 1,6,7
 342 349 342 349 312 345 c 128,-1,8
 282 341 282 341 253 341 c 0,9,10
 222 341 222 341 195 347 c 128,-1,11
 168 353 168 353 145 353 c 0,12,13
 119 353 119 353 107.5 343.5 c 128,-1,14
 96 334 96 334 96 315 c 0,15,16
 96 298 96 298 99 293.5 c 128,-1,17
 102 289 102 289 108 287 c 0,18,19
 115 285 115 285 136.5 285 c 128,-1,20
 158 285 158 285 186.5 283 c 128,-1,21
 215 281 215 281 247 275.5 c 128,-1,22
 279 270 279 270 305.5 257.5 c 128,-1,23
 332 245 332 245 349.5 224 c 128,-1,24
 367 203 367 203 367 171 c 2,25,-1
 367 132 l 2,26,27
 367 94 367 94 363 72.5 c 128,-1,28
 359 51 359 51 345 35 c 0,29,30
 333 22 333 22 317 13.5 c 128,-1,31
 301 5 301 5 283.5 1 c 128,-1,32
 266 -3 266 -3 249.5 -4.5 c 128,-1,33
 233 -6 233 -6 219 -6 c 0,34,35
 206 -6 206 -6 189 -4.5 c 128,-1,36
 172 -3 172 -3 154.5 1 c 128,-1,37
 137 5 137 5 121 13.5 c 128,-1,38
 105 22 105 22 93 35 c 0,39,40
 80 50 80 50 76.5 75 c 128,-1,41
 73 100 73 100 73 132 c 2,42,-1
 73 208 l 1,43,-1
 131 205 l 1,44,45
 131 180 131 180 130.5 163.5 c 128,-1,46
 130 147 130 147 130 127 c 0,47,48
 130 103 130 103 132.5 89.5 c 128,-1,49
 135 76 135 76 143 66 c 0,50,51
 156 52 156 52 172 45.5 c 128,-1,52
 188 39 188 39 219 39 c 256,53,54
 250 39 250 39 266 45.5 c 128,-1,55
 282 52 282 52 295 66 c 0,56,57
 303 76 303 76 305 85.5 c 128,-1,58
 307 95 307 95 307 115 c 2,59,-1
 307 171 l 2,60,61
 307 194 307 194 291.5 206.5 c 128,-1,62
 276 219 276 219 251.5 225.5 c 128,-1,63
 227 232 227 232 198 234 c 128,-1,64
 169 236 169 236 142.5 237.5 c 128,-1,65
 116 239 116 239 94.5 241.5 c 128,-1,66
 73 244 73 244 65 251 c 0,67,68
 52 262 52 262 48 276.5 c 128,-1,69
 44 291 44 291 44 311 c 0,70,71
 44 352 44 352 69 376 c 128,-1,72
 94 400 94 400 133 400 c 0,73,74
 140 400 140 400 154.5 398.5 c 128,-1,75
 169 397 169 397 186 395.5 c 128,-1,76
 203 394 203 394 221 392.5 c 128,-1,77
 239 391 239 391 253 391 c 0,78,79
 271 391 271 391 289 393.5 c 128,-1,80
 307 396 307 396 321 400 c 0,81,82
 338 404 338 404 352 409 c 1,0,1
EndSplineSet
EndChar
StartChar: uni0E19
Encoding: 3609 3609 238
Width: 476
Flags: W
Fore
122 282 m 1,0,-1
 98 264 l 1,1,2
 69 264 69 264 52 284.5 c 128,-1,3
 35 305 35 305 35 335 c 0,4,5
 35 350 35 350 42 363 c 128,-1,6
 49 376 49 376 60 386 c 128,-1,7
 71 396 71 396 85.5 401.5 c 128,-1,8
 100 407 100 407 115 407 c 0,9,10
 150 407 150 407 173 386.5 c 128,-1,11
 196 366 196 366 196 328 c 0,12,13
 196 317 196 317 193.5 306.5 c 128,-1,14
 191 296 191 296 188 283.5 c 128,-1,15
 185 271 185 271 182.5 255.5 c 128,-1,16
 180 240 180 240 180 219 c 2,17,-1
 180 101 l 1,18,19
 204 139 204 139 237 159 c 128,-1,20
 270 179 270 179 303 179 c 0,21,22
 331 179 331 179 358 170 c 1,23,24
 361 179 361 179 361 195 c 2,25,-1
 361 400 l 1,26,-1
 421 400 l 1,27,-1
 421 185 l 2,28,29
 421 167 421 167 405 149 c 1,30,31
 425 138 425 138 438 119 c 128,-1,32
 451 100 451 100 451 74 c 0,33,34
 451 54 451 54 443.5 39.5 c 128,-1,35
 436 25 436 25 423.5 16 c 128,-1,36
 411 7 411 7 396 2.5 c 128,-1,37
 381 -2 381 -2 366 -2 c 0,38,39
 336 -2 336 -2 311 16.5 c 128,-1,40
 286 35 286 35 286 71 c 0,41,42
 286 94 286 94 298 109 c 128,-1,43
 310 124 310 124 323 133 c 1,44,45
 316 136 316 136 301 136 c 0,46,47
 277 136 277 136 255 124.5 c 128,-1,48
 233 113 233 113 216.5 93.5 c 128,-1,49
 200 74 200 74 190.5 50 c 128,-1,50
 181 26 181 26 181 0 c 1,51,-1
 127 0 l 2,52,53
 123 0 123 0 120.5 2 c 128,-1,54
 118 4 118 4 120 14 c 0,55,56
 122 22 122 22 122.5 43 c 128,-1,57
 123 64 123 64 123 92.5 c 128,-1,58
 123 121 123 121 122.5 155 c 128,-1,59
 122 189 122 189 122 222 c 0,60,61
 122 241 122 241 125 255.5 c 128,-1,62
 128 270 128 270 131.5 282 c 128,-1,63
 135 294 135 294 138 304.5 c 128,-1,64
 141 315 141 315 141 326 c 0,65,66
 141 349 141 349 132 360.5 c 128,-1,67
 123 372 123 372 108 372 c 0,68,69
 91 372 91 372 81 361 c 128,-1,70
 71 350 71 350 71 335 c 256,71,72
 71 320 71 320 78 309 c 128,-1,73
 85 298 85 298 100 298 c 2,74,-1
 122 298 l 1,75,-1
 122 282 l 1,0,-1
394 76 m 0,76,77
 394 109 394 109 352 125 c 1,78,79
 335 114 335 114 328 100.5 c 128,-1,80
 321 87 321 87 321 76 c 0,81,82
 321 34 321 34 356 34 c 0,83,84
 373 34 373 34 383.5 44 c 128,-1,85
 394 54 394 54 394 76 c 0,76,77
EndSplineSet
EndChar
StartChar: uni0E1A
Encoding: 3610 3610 239
Width: 495
Flags: W
Fore
125 298 m 1,0,-1
 125 282 l 1,1,-1
 102 263 l 1,2,3
 73 263 73 263 54 284 c 128,-1,4
 35 305 35 305 35 335 c 256,5,6
 35 365 35 365 59 386 c 128,-1,7
 83 407 83 407 113 407 c 0,8,9
 148 407 148 407 169.5 386.5 c 128,-1,10
 191 366 191 366 191 328 c 0,11,12
 191 317 191 317 189.5 306.5 c 128,-1,13
 188 296 188 296 185.5 283.5 c 128,-1,14
 183 271 183 271 181.5 255.5 c 128,-1,15
 180 240 180 240 180 219 c 0,16,17
 180 194 180 194 179.5 170.5 c 128,-1,18
 179 147 179 147 179 127 c 0,19,20
 179 103 179 103 181.5 89.5 c 128,-1,21
 184 76 184 76 192 66 c 0,22,23
 216 39 216 39 280 39 c 256,24,25
 344 39 344 39 368 66 c 0,26,27
 376 76 376 76 379 85.5 c 128,-1,28
 382 95 382 95 382 115 c 0,29,30
 382 132 382 132 381 152 c 128,-1,31
 380 172 380 172 380 197 c 2,32,-1
 380 400 l 1,33,-1
 440 400 l 1,34,-1
 440 132 l 2,35,36
 440 94 440 94 436 72.5 c 128,-1,37
 432 51 432 51 418 35 c 0,38,39
 406 22 406 22 388 13.5 c 128,-1,40
 370 5 370 5 350.5 1 c 128,-1,41
 331 -3 331 -3 312.5 -4.5 c 128,-1,42
 294 -6 294 -6 280 -6 c 0,43,44
 267 -6 267 -6 248 -4.5 c 128,-1,45
 229 -3 229 -3 209.5 1 c 128,-1,46
 190 5 190 5 172 13.5 c 128,-1,47
 154 22 154 22 142 35 c 0,48,49
 129 50 129 50 125.5 75 c 128,-1,50
 122 100 122 100 122 132 c 2,51,-1
 122 222 l 2,52,53
 122 241 122 241 125 255.5 c 128,-1,54
 128 270 128 270 131.5 282 c 128,-1,55
 135 294 135 294 138 304.5 c 128,-1,56
 141 315 141 315 141 326 c 0,57,58
 141 349 141 349 132 360.5 c 128,-1,59
 123 372 123 372 108 372 c 0,60,61
 91 372 91 372 81 361 c 128,-1,62
 71 350 71 350 71 335 c 256,63,64
 71 320 71 320 79 309 c 128,-1,65
 87 298 87 298 102 298 c 2,66,-1
 125 298 l 1,0,-1
EndSplineSet
EndChar
StartChar: uni0E1B
Encoding: 3611 3611 240
Width: 495
Flags: W
Fore
125 298 m 1,0,-1
 125 282 l 1,1,-1
 102 263 l 1,2,3
 73 263 73 263 54 284 c 128,-1,4
 35 305 35 305 35 335 c 256,5,6
 35 365 35 365 59 386 c 128,-1,7
 83 407 83 407 113 407 c 0,8,9
 148 407 148 407 169.5 386.5 c 128,-1,10
 191 366 191 366 191 328 c 0,11,12
 191 317 191 317 189.5 306.5 c 128,-1,13
 188 296 188 296 185.5 283.5 c 128,-1,14
 183 271 183 271 181.5 255.5 c 128,-1,15
 180 240 180 240 180 219 c 0,16,17
 180 194 180 194 179.5 170.5 c 128,-1,18
 179 147 179 147 179 127 c 0,19,20
 179 103 179 103 181.5 89.5 c 128,-1,21
 184 76 184 76 192 66 c 0,22,23
 216 39 216 39 280 39 c 256,24,25
 344 39 344 39 368 66 c 0,26,27
 376 76 376 76 379 85.5 c 128,-1,28
 382 95 382 95 382 115 c 0,29,30
 382 132 382 132 381 152 c 128,-1,31
 380 172 380 172 380 197 c 2,32,-1
 380 544 l 1,33,-1
 440 544 l 1,34,-1
 440 132 l 2,35,36
 440 94 440 94 436 72.5 c 128,-1,37
 432 51 432 51 418 35 c 0,38,39
 406 22 406 22 388 13.5 c 128,-1,40
 370 5 370 5 350.5 1 c 128,-1,41
 331 -3 331 -3 312.5 -4.5 c 128,-1,42
 294 -6 294 -6 280 -6 c 0,43,44
 267 -6 267 -6 248 -4.5 c 128,-1,45
 229 -3 229 -3 209.5 1 c 128,-1,46
 190 5 190 5 172 13.5 c 128,-1,47
 154 22 154 22 142 35 c 0,48,49
 129 50 129 50 125.5 75 c 128,-1,50
 122 100 122 100 122 132 c 2,51,-1
 122 222 l 2,52,53
 122 241 122 241 125 255.5 c 128,-1,54
 128 270 128 270 131.5 282 c 128,-1,55
 135 294 135 294 138 304.5 c 128,-1,56
 141 315 141 315 141 326 c 0,57,58
 141 349 141 349 132 360.5 c 128,-1,59
 123 372 123 372 108 372 c 0,60,61
 91 372 91 372 81 361 c 128,-1,62
 71 350 71 350 71 335 c 256,63,64
 71 320 71 320 79 309 c 128,-1,65
 87 298 87 298 102 298 c 2,66,-1
 125 298 l 1,0,-1
EndSplineSet
EndChar
StartChar: uni0E1C
Encoding: 3612 3612 241
Width: 474
Flags: W
Fore
124 298 m 1,0,-1
 152 298 l 2,1,2
 167 298 167 298 175.5 309 c 128,-1,3
 184 320 184 320 184 335 c 256,4,5
 184 350 184 350 174.5 361 c 128,-1,6
 165 372 165 372 148 372 c 0,7,8
 133 372 133 372 122 358 c 128,-1,9
 111 344 111 344 111 321 c 0,10,11
 111 310 111 310 112 300 c 128,-1,12
 113 290 113 290 113.5 278.5 c 128,-1,13
 114 267 114 267 115 252 c 128,-1,14
 116 237 116 237 116 215 c 0,15,16
 116 203 116 203 115.5 186 c 128,-1,17
 115 169 115 169 114 152 c 128,-1,18
 113 135 113 135 112.5 119 c 128,-1,19
 112 103 112 103 112 93 c 1,20,21
 128 119 128 119 149 140.5 c 128,-1,22
 170 162 170 162 190 179 c 0,23,24
 213 198 213 198 237 215 c 1,25,26
 262 199 262 199 285 179 c 0,27,28
 305 162 305 162 325.5 138.5 c 128,-1,29
 346 115 346 115 360 88 c 1,30,31
 360 96 360 96 359 109.5 c 128,-1,32
 358 123 358 123 357.5 138.5 c 128,-1,33
 357 154 357 154 356 169.5 c 128,-1,34
 355 185 355 185 355 197 c 2,35,-1
 355 400 l 1,36,-1
 415 400 l 1,37,-1
 415 132 l 2,38,39
 415 98 415 98 415.5 63.5 c 128,-1,40
 416 29 416 29 418 14 c 0,41,42
 420 4 420 4 417.5 2 c 128,-1,43
 415 0 415 0 411 0 c 2,44,-1
 354 0 l 1,45,-1
 354 10 l 2,46,47
 354 35 354 35 336 62 c 128,-1,48
 318 89 318 89 296 112 c 0,49,50
 270 139 270 139 237 166 c 1,51,52
 203 139 203 139 176 112 c 0,53,54
 153 89 153 89 134 62 c 128,-1,55
 115 35 115 35 115 10 c 2,56,-1
 115 0 l 1,57,-1
 58 0 l 2,58,59
 54 0 54 0 51.5 2 c 128,-1,60
 49 4 49 4 51 14 c 0,61,62
 53 22 53 22 54 29 c 128,-1,63
 55 36 55 36 55.5 47.5 c 128,-1,64
 56 59 56 59 56.5 79 c 128,-1,65
 57 99 57 99 57 132 c 2,66,-1
 56 215 l 2,67,68
 56 234 56 234 55 247 c 128,-1,69
 54 260 54 260 53 271.5 c 128,-1,70
 52 283 52 283 51.5 294.5 c 128,-1,71
 51 306 51 306 51 321 c 0,72,73
 51 342 51 342 59 358 c 128,-1,74
 67 374 67 374 79.5 385 c 128,-1,75
 92 396 92 396 108.5 401.5 c 128,-1,76
 125 407 125 407 143 407 c 0,77,78
 173 407 173 407 196.5 386 c 128,-1,79
 220 365 220 365 220 335 c 256,80,81
 220 305 220 305 200.5 284 c 128,-1,82
 181 263 181 263 152 263 c 1,83,-1
 124 282 l 1,84,-1
 124 298 l 1,0,-1
EndSplineSet
EndChar
StartChar: uni0E1D
Encoding: 3613 3613 242
Width: 474
Flags: W
Fore
124 298 m 1,0,-1
 152 298 l 2,1,2
 167 298 167 298 175.5 309 c 128,-1,3
 184 320 184 320 184 335 c 256,4,5
 184 350 184 350 174.5 361 c 128,-1,6
 165 372 165 372 148 372 c 0,7,8
 133 372 133 372 122 358 c 128,-1,9
 111 344 111 344 111 321 c 0,10,11
 111 310 111 310 112 300 c 128,-1,12
 113 290 113 290 113.5 278.5 c 128,-1,13
 114 267 114 267 115 252 c 128,-1,14
 116 237 116 237 116 215 c 0,15,16
 116 203 116 203 115.5 186 c 128,-1,17
 115 169 115 169 114 152 c 128,-1,18
 113 135 113 135 112.5 119 c 128,-1,19
 112 103 112 103 112 93 c 1,20,21
 128 119 128 119 149 140.5 c 128,-1,22
 170 162 170 162 190 179 c 0,23,24
 213 198 213 198 237 215 c 1,25,26
 262 199 262 199 285 179 c 0,27,28
 305 162 305 162 325.5 138.5 c 128,-1,29
 346 115 346 115 360 88 c 1,30,31
 360 96 360 96 359 109.5 c 128,-1,32
 358 123 358 123 357.5 138.5 c 128,-1,33
 357 154 357 154 356 169.5 c 128,-1,34
 355 185 355 185 355 197 c 2,35,-1
 355 544 l 1,36,-1
 415 544 l 1,37,-1
 415 132 l 2,38,39
 415 98 415 98 415.5 63.5 c 128,-1,40
 416 29 416 29 418 14 c 0,41,42
 420 4 420 4 417.5 2 c 128,-1,43
 415 0 415 0 411 0 c 2,44,-1
 354 0 l 1,45,-1
 354 10 l 2,46,47
 354 35 354 35 336 62 c 128,-1,48
 318 89 318 89 296 112 c 0,49,50
 270 139 270 139 237 166 c 1,51,52
 203 139 203 139 176 112 c 0,53,54
 153 89 153 89 134 62 c 128,-1,55
 115 35 115 35 115 10 c 2,56,-1
 115 0 l 1,57,-1
 58 0 l 2,58,59
 54 0 54 0 51.5 2 c 128,-1,60
 49 4 49 4 51 14 c 0,61,62
 53 22 53 22 54 29 c 128,-1,63
 55 36 55 36 55.5 47.5 c 128,-1,64
 56 59 56 59 56.5 79 c 128,-1,65
 57 99 57 99 57 132 c 2,66,-1
 56 215 l 2,67,68
 56 234 56 234 55 247 c 128,-1,69
 54 260 54 260 53 271.5 c 128,-1,70
 52 283 52 283 51.5 294.5 c 128,-1,71
 51 306 51 306 51 321 c 0,72,73
 51 342 51 342 59 358 c 128,-1,74
 67 374 67 374 79.5 385 c 128,-1,75
 92 396 92 396 108.5 401.5 c 128,-1,76
 125 407 125 407 143 407 c 0,77,78
 173 407 173 407 196.5 386 c 128,-1,79
 220 365 220 365 220 335 c 256,80,81
 220 305 220 305 200.5 284 c 128,-1,82
 181 263 181 263 152 263 c 1,83,-1
 124 282 l 1,84,-1
 124 298 l 1,0,-1
EndSplineSet
EndChar
StartChar: uni0E1E
Encoding: 3614 3614 243
Width: 539
Flags: W
Fore
425 113 m 1,0,1
 425 130 425 130 422.5 151 c 128,-1,2
 420 172 420 172 420 197 c 2,3,-1
 420 400 l 1,4,-1
 480 400 l 1,5,-1
 480 132 l 2,6,7
 480 98 480 98 480.5 63.5 c 128,-1,8
 481 29 481 29 483 14 c 0,9,10
 485 4 485 4 482.5 2 c 128,-1,11
 480 0 480 0 476 0 c 2,12,-1
 419 0 l 1,13,-1
 419 10 l 2,14,15
 419 22 419 22 414 41 c 128,-1,16
 409 60 409 60 401 82.5 c 128,-1,17
 393 105 393 105 382.5 129 c 128,-1,18
 372 153 372 153 361 177 c 0,19,20
 335 232 335 232 302 296 c 1,21,22
 268 232 268 232 241 177 c 0,23,24
 229 153 229 153 218 129 c 128,-1,25
 207 105 207 105 198.5 82.5 c 128,-1,26
 190 60 190 60 185 41 c 128,-1,27
 180 22 180 22 180 10 c 2,28,-1
 180 0 l 1,29,-1
 123 0 l 2,30,31
 119 0 119 0 116.5 2 c 128,-1,32
 114 4 114 4 116 14 c 0,33,34
 118 22 118 22 119 29 c 128,-1,35
 120 36 120 36 120.5 47.5 c 128,-1,36
 121 59 121 59 121.5 79 c 128,-1,37
 122 99 122 99 122 132 c 2,38,-1
 122 212 l 2,39,40
 122 250 122 250 131.5 277 c 128,-1,41
 141 304 141 304 141 326 c 0,42,43
 141 349 141 349 132 360.5 c 128,-1,44
 123 372 123 372 108 372 c 0,45,46
 91 372 91 372 81 361 c 128,-1,47
 71 350 71 350 71 335 c 256,48,49
 71 320 71 320 79 309 c 128,-1,50
 87 298 87 298 102 298 c 2,51,-1
 125 298 l 1,52,-1
 125 282 l 1,53,-1
 102 263 l 1,54,55
 73 263 73 263 54 284 c 128,-1,56
 35 305 35 305 35 335 c 256,57,58
 35 365 35 365 56.5 386 c 128,-1,59
 78 407 78 407 116 407 c 0,60,61
 151 407 151 407 171 386.5 c 128,-1,62
 191 366 191 366 191 328 c 0,63,64
 191 306 191 306 185.5 278.5 c 128,-1,65
 180 251 180 251 180 209 c 0,66,67
 180 184 180 184 178.5 161 c 128,-1,68
 177 138 177 138 177 118 c 1,69,70
 193 170 193 170 214 216.5 c 128,-1,71
 235 263 235 263 255 298 c 0,72,73
 278 339 278 339 302 375 c 1,74,75
 327 339 327 339 350 297 c 0,76,77
 370 261 370 261 390.5 214 c 128,-1,78
 411 167 411 167 425 113 c 1,0,1
EndSplineSet
EndChar
StartChar: uni0E1F
Encoding: 3615 3615 244
Width: 539
Flags: W
Fore
180 209 m 0,0,1
 180 184 180 184 178.5 161 c 128,-1,2
 177 138 177 138 177 118 c 1,3,4
 193 170 193 170 214 216.5 c 128,-1,5
 235 263 235 263 255 298 c 0,6,7
 278 339 278 339 302 375 c 1,8,9
 327 339 327 339 350 297 c 0,10,11
 370 261 370 261 390.5 214 c 128,-1,12
 411 167 411 167 425 113 c 1,13,14
 425 130 425 130 422.5 151 c 128,-1,15
 420 172 420 172 420 197 c 2,16,-1
 420 544 l 1,17,-1
 480 544 l 1,18,-1
 480 132 l 2,19,20
 480 98 480 98 480.5 63.5 c 128,-1,21
 481 29 481 29 483 14 c 0,22,23
 485 4 485 4 482.5 2 c 128,-1,24
 480 0 480 0 476 0 c 2,25,-1
 419 0 l 1,26,-1
 419 10 l 2,27,28
 419 22 419 22 414 41 c 128,-1,29
 409 60 409 60 401 82.5 c 128,-1,30
 393 105 393 105 382.5 129 c 128,-1,31
 372 153 372 153 361 177 c 0,32,33
 335 232 335 232 302 296 c 1,34,35
 268 232 268 232 241 177 c 0,36,37
 229 153 229 153 218 129 c 128,-1,38
 207 105 207 105 198.5 82.5 c 128,-1,39
 190 60 190 60 185 41 c 128,-1,40
 180 22 180 22 180 10 c 2,41,-1
 180 0 l 1,42,-1
 123 0 l 2,43,44
 119 0 119 0 116.5 2 c 128,-1,45
 114 4 114 4 116 14 c 0,46,47
 118 22 118 22 119 29 c 128,-1,48
 120 36 120 36 120.5 47.5 c 128,-1,49
 121 59 121 59 121.5 79 c 128,-1,50
 122 99 122 99 122 132 c 2,51,-1
 122 212 l 2,52,53
 122 250 122 250 131.5 277 c 128,-1,54
 141 304 141 304 141 326 c 0,55,56
 141 349 141 349 132 360.5 c 128,-1,57
 123 372 123 372 108 372 c 0,58,59
 91 372 91 372 81 361 c 128,-1,60
 71 350 71 350 71 335 c 256,61,62
 71 320 71 320 79 309 c 128,-1,63
 87 298 87 298 102 298 c 2,64,-1
 125 298 l 1,65,-1
 125 282 l 1,66,-1
 102 263 l 1,67,68
 73 263 73 263 54 284 c 128,-1,69
 35 305 35 305 35 335 c 256,70,71
 35 365 35 365 56.5 386 c 128,-1,72
 78 407 78 407 116 407 c 0,73,74
 151 407 151 407 171 386.5 c 128,-1,75
 191 366 191 366 191 328 c 0,76,77
 191 306 191 306 185.5 278.5 c 128,-1,78
 180 251 180 251 180 209 c 0,0,1
EndSplineSet
EndChar
StartChar: uni0E20
Encoding: 3616 3616 245
Width: 484
Flags: W
Fore
94 103 m 2,0,1
 79 103 79 103 72.5 92 c 128,-1,2
 66 81 66 81 66 66 c 256,3,4
 66 51 66 51 75 40 c 128,-1,5
 84 29 84 29 101 29 c 0,6,7
 116 29 116 29 126 40.5 c 128,-1,8
 136 52 136 52 136 75 c 0,9,10
 136 86 136 86 133.5 102 c 128,-1,11
 131 118 131 118 128.5 135.5 c 128,-1,12
 126 153 126 153 123.5 170 c 128,-1,13
 121 187 121 187 121 200 c 0,14,15
 121 219 121 219 123.5 235.5 c 128,-1,16
 126 252 126 252 142 268 c 1,17,18
 138 270 138 270 129.5 276 c 128,-1,19
 121 282 121 282 112 289.5 c 128,-1,20
 103 297 103 297 96 305 c 128,-1,21
 89 313 89 313 89 319 c 0,22,23
 89 328 89 328 101.5 343 c 128,-1,24
 114 358 114 358 136 372 c 128,-1,25
 158 386 158 386 188.5 396 c 128,-1,26
 219 406 219 406 255 406 c 0,27,28
 289 406 289 406 320.5 399 c 128,-1,29
 352 392 352 392 376 374 c 128,-1,30
 400 356 400 356 414.5 325.5 c 128,-1,31
 429 295 429 295 429 249 c 2,32,-1
 429 0 l 1,33,-1
 369 0 l 1,34,-1
 369 249 l 2,35,36
 369 288 369 288 361.5 310 c 128,-1,37
 354 332 354 332 339.5 343.5 c 128,-1,38
 325 355 325 355 304 358 c 128,-1,39
 283 361 283 361 255 361 c 0,40,41
 230 361 230 361 210.5 356.5 c 128,-1,42
 191 352 191 352 177 345.5 c 128,-1,43
 163 339 163 339 155.5 332.5 c 128,-1,44
 148 326 148 326 148 321 c 0,45,46
 148 318 148 318 151.5 312 c 128,-1,47
 155 306 155 306 160.5 300.5 c 128,-1,48
 166 295 166 295 171 290.5 c 128,-1,49
 176 286 176 286 179 286 c 0,50,51
 187 286 187 286 196 292.5 c 128,-1,52
 205 299 205 299 214 299 c 0,53,54
 217 299 217 299 221.5 292.5 c 128,-1,55
 226 286 226 286 230 278 c 128,-1,56
 234 270 234 270 235.5 263.5 c 128,-1,57
 237 257 237 257 233 257 c 0,58,59
 215 257 215 257 204 254.5 c 128,-1,60
 193 252 193 252 188 245 c 128,-1,61
 183 238 183 238 181.5 225.5 c 128,-1,62
 180 213 180 213 180 192 c 0,63,64
 180 175 180 175 181 161.5 c 128,-1,65
 183 134.5 l 128,-1,66
 184 121 184 121 185 106.5 c 128,-1,67
 186 92 186 92 186 73 c 0,68,69
 186 35 186 35 163.5 14.5 c 128,-1,70
 141 -6 141 -6 106 -6 c 256,71,72
 71 -6 71 -6 50.5 15 c 128,-1,73
 30 36 30 36 30 66 c 256,74,75
 30 96 30 96 48 116 c 128,-1,76
 66 136 66 136 94 136 c 1,77,-1
 117 119 l 1,78,-1
 117 103 l 1,79,-1
 94 103 l 2,0,1
EndSplineSet
EndChar
StartChar: uni0E21
Encoding: 3617 3617 246
Width: 476
Flags: W
Fore
137 282 m 1,0,-1
 113 264 l 1,1,2
 84 264 84 264 67 284.5 c 128,-1,3
 50 305 50 305 50 335 c 256,4,5
 50 365 50 365 74 386 c 128,-1,6
 98 407 98 407 128 407 c 0,7,8
 163 407 163 407 184.5 386.5 c 128,-1,9
 206 366 206 366 206 328 c 0,10,11
 206 306 206 306 200 280 c 128,-1,12
 194 254 194 254 195 213 c 2,13,-1
 195 179 l 1,14,15
 252 179 252 179 291.5 153.5 c 128,-1,16
 331 128 331 128 358 81 c 1,17,18
 357 93 357 93 356.5 110.5 c 128,-1,19
 356 128 356 128 355.5 146 c 128,-1,20
 355 164 355 164 355 181.5 c 128,-1,21
 355 199 355 199 355 211 c 2,22,-1
 355 400 l 1,23,-1
 415 400 l 1,24,-1
 415 222 l 2,25,26
 415 189 415 189 415 155 c 128,-1,27
 415 121 415 121 416 92.5 c 128,-1,28
 417 64 417 64 418 43 c 128,-1,29
 419 22 419 22 420 14 c 0,30,31
 422 4 422 4 419.5 2 c 128,-1,32
 417 0 417 0 413 0 c 2,33,-1
 354 0 l 1,34,35
 338 66 338 66 298 100 c 128,-1,36
 258 134 258 134 196 139 c 1,37,-1
 197 99 l 2,38,39
 197 79 197 79 194 61 c 128,-1,40
 191 43 191 43 182.5 29 c 128,-1,41
 174 15 174 15 159.5 6.5 c 128,-1,42
 145 -2 145 -2 122 -2 c 0,43,44
 92 -2 92 -2 75 18 c 128,-1,45
 58 38 58 38 58 79 c 0,46,47
 58 123 58 123 82.5 146.5 c 128,-1,48
 107 170 107 170 138 176 c 1,49,50
 137 189 137 189 137 198 c 128,-1,51
 137 216 l 0,52,53
 137 235 137 235 140 250.5 c 128,-1,54
 143 266 143 266 146.5 279 c 128,-1,55
 150 292 150 292 153 303.5 c 128,-1,56
 156 315 156 315 156 326 c 0,57,58
 156 349 156 349 147 360.5 c 128,-1,59
 138 372 138 372 123 372 c 0,60,61
 106 372 106 372 96 361 c 128,-1,62
 86 350 86 350 86 335 c 256,63,64
 86 320 86 320 93 309 c 128,-1,65
 100 298 100 298 115 298 c 2,66,-1
 137 298 l 1,67,-1
 137 282 l 1,0,-1
142 96 m 0,68,69
 142 103 142 103 141 111.5 c 128,-1,70
 140 120 140 120 139 137 c 1,71,72
 122 132 122 132 108 121.5 c 128,-1,73
 94 111 94 111 94 81 c 0,74,75
 94 59 94 59 102.5 46.5 c 128,-1,76
 111 34 111 34 122 34 c 0,77,78
 131 34 131 34 135.5 39 c 128,-1,79
 140 44 140 44 141.5 52.5 c 128,-1,80
 143 61 143 61 142.5 72.5 c 128,-1,81
 142 84 142 84 142 96 c 0,68,69
EndSplineSet
EndChar
StartChar: uni0E22
Encoding: 3618 3618 247
Width: 449
Flags: W
Fore
63 136 m 2,0,1
 63 171 63 171 76 187 c 128,-1,2
 89 203 89 203 100 211 c 1,3,4
 93 215 93 215 84 223 c 128,-1,5
 75 231 75 231 67.5 243 c 128,-1,6
 60 255 60 255 55 271.5 c 128,-1,7
 50 288 50 288 50 310 c 0,8,9
 50 328 50 328 56.5 345.5 c 128,-1,10
 63 363 63 363 75 376.5 c 128,-1,11
 87 390 87 390 104.5 398.5 c 128,-1,12
 122 407 122 407 145 407 c 0,13,14
 175 407 175 407 197 388 c 128,-1,15
 219 369 219 369 219 339 c 0,16,17
 219 310 219 310 200.5 292 c 128,-1,18
 182 274 182 274 152 274 c 1,19,-1
 123 291 l 1,20,-1
 123 309 l 1,21,-1
 152 309 l 2,22,23
 168 309 168 309 175 318 c 128,-1,24
 182 327 182 327 182 338 c 0,25,26
 182 352 182 352 174.5 361 c 128,-1,27
 167 370 167 370 153 370 c 0,28,29
 127 370 127 370 117.5 353 c 128,-1,30
 108 336 108 336 108 310 c 0,31,32
 108 281 108 281 118 263.5 c 128,-1,33
 128 246 128 246 145 236 c 128,-1,34
 162 226 162 226 186 223 c 128,-1,35
 210 220 210 220 237 220 c 0,36,37
 241 220 241 220 239 212.5 c 128,-1,38
 237 205 237 205 232.5 196 c 128,-1,39
 228 187 228 187 222.5 179.5 c 128,-1,40
 217 172 217 172 215 172 c 0,41,42
 211 172 211 172 202 174.5 c 128,-1,43
 193 177 193 177 183 179.5 c 128,-1,44
 173 182 173 182 163.5 184.5 c 128,-1,45
 154 187 154 187 147 187 c 0,46,47
 138 187 138 187 129.5 173 c 128,-1,48
 121 159 121 159 121 135 c 2,49,-1
 121 116 l 2,50,51
 121 92 121 92 123.5 84.5 c 128,-1,52
 126 77 126 77 135 66 c 0,53,54
 148 52 148 52 172.5 45.5 c 128,-1,55
 197 39 197 39 228 39 c 256,56,57
 259 39 259 39 283.5 45.5 c 128,-1,58
 308 52 308 52 321 66 c 0,59,60
 329 75 329 75 332 87 c 128,-1,61
 335 99 335 99 335 114.5 c 128,-1,62
 335 130 335 130 334 150 c 128,-1,63
 333 170 333 170 333 197 c 2,64,-1
 333 400 l 1,65,-1
 393 400 l 1,66,-1
 393 197 l 2,67,68
 393 166 393 166 393.5 141.5 c 128,-1,69
 394 117 394 117 392.5 97.5 c 128,-1,70
 391 78 391 78 386.5 62.5 c 128,-1,71
 382 47 382 47 371 35 c 0,72,73
 359 22 359 22 340 13.5 c 128,-1,74
 321 5 321 5 301 1 c 128,-1,75
 281 -3 281 -3 261.5 -4.5 c 128,-1,76
 242 -6 242 -6 228 -6 c 0,77,78
 215 -6 215 -6 195 -4.5 c 128,-1,79
 175 -3 175 -3 155 1 c 128,-1,80
 135 5 135 5 116 13.5 c 128,-1,81
 97 22 97 22 85 35 c 0,82,83
 71 51 71 51 67 68.5 c 128,-1,84
 63 86 63 86 63 117 c 2,85,-1
 63 136 l 2,0,1
EndSplineSet
EndChar
StartChar: uni0E23
Encoding: 3619 3619 248
Width: 370
Flags: W
Fore
215 97 m 2,0,1
 184 97 184 97 184 64 c 0,2,3
 184 34 184 34 218 34 c 0,4,5
 239 34 239 34 247 52 c 128,-1,6
 255 70 255 70 255 93 c 2,7,-1
 255 160 l 2,8,9
 255 183 255 183 242.5 195.5 c 128,-1,10
 230 208 230 208 210 214.5 c 128,-1,11
 190 221 190 221 166 223.5 c 128,-1,12
 142 226 142 226 120 227.5 c 128,-1,13
 98 229 98 229 79.5 231.5 c 128,-1,14
 61 234 61 234 53 241 c 0,15,16
 40 252 40 252 35 269 c 128,-1,17
 30 286 30 286 30 306 c 0,18,19
 30 347 30 347 54.5 373.5 c 128,-1,20
 79 400 79 400 118 400 c 0,21,22
 125 400 125 400 137.5 398.5 c 128,-1,23
 150 397 150 397 165 394.5 c 128,-1,24
 180 392 180 392 196 390.5 c 128,-1,25
 212 389 212 389 226 389 c 0,26,27
 244 389 244 389 260.5 392 c 128,-1,28
 277 395 277 395 291 399 c 0,29,30
 307 403 307 403 320 409 c 1,31,32
 323 403 323 403 326 395 c 0,33,34
 331 380 331 380 331 358 c 0,35,36
 331 352 331 352 322 348 c 0,37,38
 304 341 304 341 284 339.5 c 128,-1,39
 264 338 264 338 235 338 c 0,40,41
 223 338 223 338 209 340 c 128,-1,42
 195 342 195 342 180.5 344.5 c 128,-1,43
 166 347 166 347 152.5 349 c 128,-1,44
 139 351 139 351 128 351 c 0,45,46
 106 351 106 351 97 340.5 c 128,-1,47
 88 330 88 330 88 307 c 0,48,49
 88 285 88 285 100 280 c 0,50,51
 108 276 108 276 127 275.5 c 128,-1,52
 146 275 146 275 170 273 c 128,-1,53
 194 271 194 271 219.5 266 c 128,-1,54
 245 261 245 261 266.5 249.5 c 128,-1,55
 288 238 288 238 301.5 218 c 128,-1,56
 315 198 315 198 315 165 c 2,57,-1
 315 90 l 2,58,59
 315 50 315 50 290 22 c 128,-1,60
 265 -6 265 -6 223 -6 c 0,61,62
 182 -6 182 -6 164 14.5 c 128,-1,63
 146 35 146 35 146 64 c 256,64,65
 146 93 146 93 163 110 c 128,-1,66
 180 127 180 127 215 127 c 1,67,-1
 242 113 l 1,68,-1
 242 97 l 1,69,-1
 215 97 l 2,0,1
EndSplineSet
EndChar
StartChar: uni0E24
Encoding: 3620 3620 249
Width: 450
Flags: W
Fore
104 321 m 0,0,1
 104 318 104 318 107 313 c 128,-1,2
 110 308 110 308 114 302.5 c 128,-1,3
 118 297 118 297 122.5 293.5 c 128,-1,4
 127 290 127 290 130 290 c 0,5,6
 138 290 138 290 147 296.5 c 128,-1,7
 156 303 156 303 165 303 c 0,8,9
 168 303 168 303 173.5 296.5 c 128,-1,10
 179 290 179 290 184 282 c 128,-1,11
 189 274 189 274 191 267.5 c 128,-1,12
 193 261 193 261 189 261 c 0,13,14
 174 261 174 261 162.5 258.5 c 128,-1,15
 151 256 151 256 143 247.5 c 128,-1,16
 135 239 135 239 130.5 222.5 c 128,-1,17
 126 206 126 206 126 178 c 2,18,-1
 126 77 l 2,19,20
 126 54 126 54 135 41.5 c 128,-1,21
 144 29 144 29 159 29 c 0,22,23
 176 29 176 29 185 40 c 128,-1,24
 194 51 194 51 194 66 c 256,25,26
 194 81 194 81 185.5 91.5 c 128,-1,27
 177 102 177 102 162 102 c 2,28,-1
 134 102 l 1,29,-1
 134 118 l 1,30,-1
 162 137 l 1,31,32
 191 137 191 137 210.5 116.5 c 128,-1,33
 230 96 230 96 230 66 c 256,34,35
 230 36 230 36 209.5 15 c 128,-1,36
 189 -6 189 -6 159 -6 c 0,37,38
 142 -6 142 -6 125.5 0 c 128,-1,39
 109 6 109 6 95.5 18 c 128,-1,40
 82 30 82 30 74 48 c 128,-1,41
 66 66 66 66 66 90 c 2,42,-1
 66 178 l 2,43,44
 66 216 66 216 73.5 233.5 c 128,-1,45
 81 251 81 251 98 268 c 1,46,47
 94 270 94 270 85.5 276 c 128,-1,48
 77 282 77 282 68 289.5 c 128,-1,49
 59 297 59 297 52 305 c 128,-1,50
 45 313 45 313 45 319 c 0,51,52
 45 328 45 328 60 343 c 128,-1,53
 75 358 75 358 99.5 372 c 128,-1,54
 124 386 124 386 157 396 c 128,-1,55
 190 406 190 406 226 406 c 0,56,57
 260 406 260 406 290.5 399 c 128,-1,58
 321 392 321 392 344.5 374 c 128,-1,59
 368 356 368 356 381.5 325.5 c 128,-1,60
 395 295 395 295 395 249 c 2,61,-1
 395 -150 l 1,62,-1
 335 -150 l 1,63,-1
 335 249 l 2,64,65
 335 288 335 288 328.5 310 c 128,-1,66
 322 332 322 332 308.5 343.5 c 128,-1,67
 295 355 295 355 274.5 358 c 128,-1,68
 254 361 254 361 226 361 c 0,69,70
 201 361 201 361 179 356.5 c 128,-1,71
 157 352 157 352 140.5 345.5 c 128,-1,72
 124 339 124 339 114 332.5 c 128,-1,73
 104 326 104 326 104 321 c 0,0,1
EndSplineSet
EndChar
